<ttFont>
    <TTGlyph name=".notdef" xMin="72" yMin="-220" xMax="586" yMax="1030">
      <contour>
        <pt x="72" y="1030" on="1"/>
        <pt x="586" y="1030" on="1"/>
        <pt x="586" y="-220" on="1"/>
        <pt x="72" y="-220" on="1"/>
      </contour>
      <contour>
        <pt x="472" y="-113" on="1"/>
        <pt x="472" y="924" on="1"/>
        <pt x="185" y="924" on="1"/>
        <pt x="185" y="-113" on="1"/>
      </contour>
    </TTGlyph>
    <TTGlyph name="A" xMin="1" yMin="0" xMax="601" yMax="740">
      <contour>
        <pt x="1" y="7" on="1"/>
        <pt x="195" y="740" on="1"/>
        <pt x="406" y="740" on="1"/>
        <pt x="601" y="7" on="1"/>
        <pt x="601" y="0" on="1"/>
        <pt x="469" y="0" on="1"/>
        <pt x="417" y="190" on="1"/>
        <pt x="184" y="190" on="1"/>
        <pt x="133" y="0" on="1"/>
        <pt x="1" y="0" on="1"/>
      </contour>
      <contour>
        <pt x="390" y="303" on="1"/>
        <pt x="332" y="523" on="1"/>
        <pt x="306" y="632" on="1"/>
        <pt x="296" y="632" on="1"/>
        <pt x="269" y="523" on="1"/>
        <pt x="211" y="303" on="1"/>
      </contour>
    </TTGlyph>
    <TTGlyph name="A.sc" xMin="4" yMin="0" xMax="549" yMax="577">
      <contour>
        <pt x="4" y="6" on="1"/>
        <pt x="178" y="577" on="1"/>
        <pt x="376" y="577" on="1"/>
        <pt x="549" y="6" on="1"/>
        <pt x="549" y="0" on="1"/>
        <pt x="424" y="0" on="1"/>
        <pt x="381" y="133" on="1"/>
        <pt x="172" y="133" on="1"/>
        <pt x="129" y="0" on="1"/>
        <pt x="4" y="0" on="1"/>
      </contour>
      <contour>
        <pt x="359" y="224" on="1"/>
        <pt x="304" y="398" on="1"/>
        <pt x="282" y="479" on="1"/>
        <pt x="271" y="479" on="1"/>
        <pt x="249" y="398" on="1"/>
        <pt x="193" y="224" on="1"/>
      </contour>
    </TTGlyph>
    <TTGlyph name="AE" xMin="-1" yMin="0" xMax="773" yMax="740">
      <contour>
        <pt x="-1" y="6" on="1"/>
        <pt x="223" y="740" on="1"/>
        <pt x="764" y="740" on="1"/>
        <pt x="764" y="622" on="1"/>
        <pt x="505" y="622" on="1"/>
        <pt x="516" y="431" on="1"/>
        <pt x="748" y="431" on="1"/>
        <pt x="748" y="313" on="1"/>
        <pt x="523" y="313" on="1"/>
        <pt x="535" y="118" on="1"/>
        <pt x="773" y="118" on="1"/>
        <pt x="773" y="0" on="1"/>
        <pt x="400" y="0" on="1"/>
        <pt x="392" y="188" on="1"/>
        <pt x="198" y="188" on="1"/>
        <pt x="142" y="0" on="1"/>
        <pt x="-1" y="0" on="1"/>
      </contour>
      <contour>
        <pt x="234" y="306" on="1"/>
        <pt x="387" y="306" on="1"/>
        <pt x="374" y="631" on="1"/>
        <pt x="331" y="631" on="1"/>
      </contour>
    </TTGlyph>
    <TTGlyph name="AE.sc" xMin="4" yMin="0" xMax="706" yMax="577">
      <contour>
        <pt x="4" y="5" on="1"/>
        <pt x="205" y="577" on="1"/>
        <pt x="698" y="577" on="1"/>
        <pt x="698" y="470" on="1"/>
        <pt x="468" y="470" on="1"/>
        <pt x="476" y="341" on="1"/>
        <pt x="684" y="341" on="1"/>
        <pt x="684" y="238" on="1"/>
        <pt x="486" y="238" on="1"/>
        <pt x="494" y="107" on="1"/>
        <pt x="706" y="107" on="1"/>
        <pt x="706" y="0" on="1"/>
        <pt x="366" y="0" on="1"/>
        <pt x="360" y="133" on="1"/>
        <pt x="186" y="133" on="1"/>
        <pt x="139" y="0" on="1"/>
        <pt x="4" y="0" on="1"/>
      </contour>
      <contour>
        <pt x="219" y="231" on="1"/>
        <pt x="355" y="231" on="1"/>
        <pt x="344" y="477" on="1"/>
        <pt x="307" y="477" on="1"/>
      </contour>
    </TTGlyph>
    <TTGlyph name="AEacute" xMin="-1" yMin="0" xMax="773" yMax="961">
      <contour>
        <pt x="416" y="796" on="1"/>
        <pt x="485" y="961" on="1"/>
        <pt x="626" y="961" on="1"/>
        <pt x="516" y="788" on="1"/>
      </contour>
      <contour>
        <pt x="-1" y="6" on="1"/>
        <pt x="223" y="740" on="1"/>
        <pt x="764" y="740" on="1"/>
        <pt x="764" y="622" on="1"/>
        <pt x="505" y="622" on="1"/>
        <pt x="516" y="431" on="1"/>
        <pt x="748" y="431" on="1"/>
        <pt x="748" y="313" on="1"/>
        <pt x="523" y="313" on="1"/>
        <pt x="535" y="118" on="1"/>
        <pt x="773" y="118" on="1"/>
        <pt x="773" y="0" on="1"/>
        <pt x="400" y="0" on="1"/>
        <pt x="392" y="188" on="1"/>
        <pt x="198" y="188" on="1"/>
        <pt x="142" y="0" on="1"/>
        <pt x="-1" y="0" on="1"/>
      </contour>
      <contour>
        <pt x="234" y="306" on="1"/>
        <pt x="387" y="306" on="1"/>
        <pt x="374" y="631" on="1"/>
        <pt x="331" y="631" on="1"/>
      </contour>
    </TTGlyph>
    <TTGlyph name="AEacute.sc" xMin="4" yMin="0" xMax="706" yMax="762">
      <contour>
        <pt x="4" y="5" on="1"/>
        <pt x="205" y="577" on="1"/>
        <pt x="698" y="577" on="1"/>
        <pt x="698" y="470" on="1"/>
        <pt x="468" y="470" on="1"/>
        <pt x="476" y="341" on="1"/>
        <pt x="684" y="341" on="1"/>
        <pt x="684" y="238" on="1"/>
        <pt x="486" y="238" on="1"/>
        <pt x="494" y="107" on="1"/>
        <pt x="706" y="107" on="1"/>
        <pt x="706" y="0" on="1"/>
        <pt x="366" y="0" on="1"/>
        <pt x="360" y="133" on="1"/>
        <pt x="186" y="133" on="1"/>
        <pt x="139" y="0" on="1"/>
        <pt x="4" y="0" on="1"/>
      </contour>
      <contour>
        <pt x="355" y="231" on="1"/>
        <pt x="344" y="477" on="1"/>
        <pt x="307" y="477" on="1"/>
        <pt x="219" y="231" on="1"/>
      </contour>
      <contour>
        <pt x="377" y="623" on="1"/>
        <pt x="437" y="762" on="1"/>
        <pt x="570" y="762" on="1"/>
        <pt x="471" y="617" on="1"/>
      </contour>
    </TTGlyph>
    <TTGlyph name="Aacute" xMin="1" yMin="0" xMax="601" yMax="961">
      <contour>
        <pt x="1" y="7" on="1"/>
        <pt x="195" y="740" on="1"/>
        <pt x="406" y="740" on="1"/>
        <pt x="601" y="7" on="1"/>
        <pt x="601" y="0" on="1"/>
        <pt x="469" y="0" on="1"/>
        <pt x="417" y="190" on="1"/>
        <pt x="184" y="190" on="1"/>
        <pt x="133" y="0" on="1"/>
        <pt x="1" y="0" on="1"/>
      </contour>
      <contour>
        <pt x="390" y="303" on="1"/>
        <pt x="332" y="523" on="1"/>
        <pt x="306" y="632" on="1"/>
        <pt x="296" y="632" on="1"/>
        <pt x="269" y="523" on="1"/>
        <pt x="211" y="303" on="1"/>
      </contour>
      <contour>
        <pt x="246" y="796" on="1"/>
        <pt x="315" y="961" on="1"/>
        <pt x="456" y="961" on="1"/>
        <pt x="346" y="788" on="1"/>
      </contour>
    </TTGlyph>
    <TTGlyph name="Aacute.sc" xMin="4" yMin="0" xMax="549" yMax="762">
      <contour>
        <pt x="4" y="6" on="1"/>
        <pt x="178" y="577" on="1"/>
        <pt x="376" y="577" on="1"/>
        <pt x="549" y="6" on="1"/>
        <pt x="549" y="0" on="1"/>
        <pt x="424" y="0" on="1"/>
        <pt x="381" y="133" on="1"/>
        <pt x="172" y="133" on="1"/>
        <pt x="129" y="0" on="1"/>
        <pt x="4" y="0" on="1"/>
      </contour>
      <contour>
        <pt x="359" y="224" on="1"/>
        <pt x="304" y="398" on="1"/>
        <pt x="282" y="479" on="1"/>
        <pt x="271" y="479" on="1"/>
        <pt x="249" y="398" on="1"/>
        <pt x="193" y="224" on="1"/>
      </contour>
      <contour>
        <pt x="226" y="623" on="1"/>
        <pt x="286" y="762" on="1"/>
        <pt x="419" y="762" on="1"/>
        <pt x="320" y="617" on="1"/>
      </contour>
    </TTGlyph>
    <TTGlyph name="Abreve" xMin="1" yMin="0" xMax="601" yMax="966">
      <contour>
        <pt x="1" y="7" on="1"/>
        <pt x="195" y="740" on="1"/>
        <pt x="406" y="740" on="1"/>
        <pt x="601" y="7" on="1"/>
        <pt x="601" y="0" on="1"/>
        <pt x="469" y="0" on="1"/>
        <pt x="417" y="190" on="1"/>
        <pt x="184" y="190" on="1"/>
        <pt x="133" y="0" on="1"/>
        <pt x="1" y="0" on="1"/>
      </contour>
      <contour>
        <pt x="390" y="303" on="1"/>
        <pt x="332" y="523" on="1"/>
        <pt x="306" y="632" on="1"/>
        <pt x="296" y="632" on="1"/>
        <pt x="269" y="523" on="1"/>
        <pt x="211" y="303" on="1"/>
      </contour>
      <contour>
        <pt x="303" y="799" on="1"/>
        <pt x="219" y="799" on="0"/>
        <pt x="132" y="888" on="0"/>
        <pt x="132" y="966" on="1"/>
        <pt x="227" y="966" on="1"/>
        <pt x="227" y="913" on="0"/>
        <pt x="261" y="867" on="0"/>
        <pt x="303" y="867" on="1"/>
        <pt x="343" y="867" on="0"/>
        <pt x="377" y="913" on="0"/>
        <pt x="377" y="966" on="1"/>
        <pt x="473" y="966" on="1"/>
        <pt x="473" y="888" on="0"/>
        <pt x="385" y="799" on="0"/>
      </contour>
    </TTGlyph>
    <TTGlyph name="Abreve.sc" xMin="4" yMin="0" xMax="549" yMax="759">
      <contour>
        <pt x="278" y="620" on="1"/>
        <pt x="201" y="620" on="0"/>
        <pt x="121" y="694" on="0"/>
        <pt x="121" y="759" on="1"/>
        <pt x="211" y="759" on="1"/>
        <pt x="211" y="716" on="0"/>
        <pt x="240" y="681" on="0"/>
        <pt x="278" y="681" on="1"/>
        <pt x="314" y="681" on="0"/>
        <pt x="344" y="716" on="0"/>
        <pt x="344" y="759" on="1"/>
        <pt x="434" y="759" on="1"/>
        <pt x="434" y="694" on="0"/>
        <pt x="354" y="620" on="0"/>
      </contour>
      <contour>
        <pt x="4" y="6" on="1"/>
        <pt x="178" y="577" on="1"/>
        <pt x="376" y="577" on="1"/>
        <pt x="549" y="6" on="1"/>
        <pt x="549" y="0" on="1"/>
        <pt x="424" y="0" on="1"/>
        <pt x="381" y="133" on="1"/>
        <pt x="172" y="133" on="1"/>
        <pt x="129" y="0" on="1"/>
        <pt x="4" y="0" on="1"/>
      </contour>
      <contour>
        <pt x="359" y="224" on="1"/>
        <pt x="304" y="398" on="1"/>
        <pt x="282" y="479" on="1"/>
        <pt x="271" y="479" on="1"/>
        <pt x="249" y="398" on="1"/>
        <pt x="193" y="224" on="1"/>
      </contour>
    </TTGlyph>
    <TTGlyph name="Acircumflex" xMin="1" yMin="0" xMax="601" yMax="964">
      <contour>
        <pt x="1" y="7" on="1"/>
        <pt x="195" y="740" on="1"/>
        <pt x="406" y="740" on="1"/>
        <pt x="601" y="7" on="1"/>
        <pt x="601" y="0" on="1"/>
        <pt x="469" y="0" on="1"/>
        <pt x="417" y="190" on="1"/>
        <pt x="184" y="190" on="1"/>
        <pt x="133" y="0" on="1"/>
        <pt x="1" y="0" on="1"/>
      </contour>
      <contour>
        <pt x="390" y="303" on="1"/>
        <pt x="332" y="523" on="1"/>
        <pt x="306" y="632" on="1"/>
        <pt x="296" y="632" on="1"/>
        <pt x="269" y="523" on="1"/>
        <pt x="211" y="303" on="1"/>
      </contour>
      <contour>
        <pt x="148" y="893" on="1"/>
        <pt x="303" y="964" on="1"/>
        <pt x="456" y="893" on="1"/>
        <pt x="456" y="797" on="1"/>
        <pt x="302" y="869" on="1"/>
        <pt x="148" y="797" on="1"/>
      </contour>
    </TTGlyph>
    <TTGlyph name="Acircumflex.sc" xMin="4" yMin="0" xMax="549" yMax="760">
      <contour>
        <pt x="4" y="6" on="1"/>
        <pt x="178" y="577" on="1"/>
        <pt x="376" y="577" on="1"/>
        <pt x="549" y="6" on="1"/>
        <pt x="549" y="0" on="1"/>
        <pt x="424" y="0" on="1"/>
        <pt x="381" y="133" on="1"/>
        <pt x="172" y="133" on="1"/>
        <pt x="129" y="0" on="1"/>
        <pt x="4" y="0" on="1"/>
      </contour>
      <contour>
        <pt x="359" y="224" on="1"/>
        <pt x="304" y="398" on="1"/>
        <pt x="282" y="479" on="1"/>
        <pt x="271" y="479" on="1"/>
        <pt x="249" y="398" on="1"/>
        <pt x="193" y="224" on="1"/>
      </contour>
      <contour>
        <pt x="137" y="704" on="1"/>
        <pt x="279" y="760" on="1"/>
        <pt x="419" y="704" on="1"/>
        <pt x="419" y="618" on="1"/>
        <pt x="278" y="674" on="1"/>
        <pt x="137" y="618" on="1"/>
      </contour>
    </TTGlyph>
    <TTGlyph name="Adblgrave" xMin="1" yMin="0" xMax="601" yMax="961">
      <contour>
        <pt x="1" y="7" on="1"/>
        <pt x="195" y="740" on="1"/>
        <pt x="406" y="740" on="1"/>
        <pt x="601" y="7" on="1"/>
        <pt x="601" y="0" on="1"/>
        <pt x="469" y="0" on="1"/>
        <pt x="417" y="190" on="1"/>
        <pt x="184" y="190" on="1"/>
        <pt x="133" y="0" on="1"/>
        <pt x="1" y="0" on="1"/>
      </contour>
      <contour>
        <pt x="390" y="303" on="1"/>
        <pt x="332" y="523" on="1"/>
        <pt x="306" y="632" on="1"/>
        <pt x="296" y="632" on="1"/>
        <pt x="269" y="523" on="1"/>
        <pt x="211" y="303" on="1"/>
      </contour>
      <contour>
        <pt x="186" y="788" on="1"/>
        <pt x="76" y="961" on="1"/>
        <pt x="192" y="961" on="1"/>
        <pt x="261" y="800" on="1"/>
      </contour>
      <contour>
        <pt x="360" y="788" on="1"/>
        <pt x="249" y="961" on="1"/>
        <pt x="366" y="961" on="1"/>
        <pt x="435" y="800" on="1"/>
      </contour>
    </TTGlyph>
    <TTGlyph name="Adblgrave.sc" xMin="4" yMin="0" xMax="549" yMax="762">
      <contour>
        <pt x="4" y="6" on="1"/>
        <pt x="178" y="577" on="1"/>
        <pt x="376" y="577" on="1"/>
        <pt x="549" y="6" on="1"/>
        <pt x="549" y="0" on="1"/>
        <pt x="424" y="0" on="1"/>
        <pt x="381" y="133" on="1"/>
        <pt x="172" y="133" on="1"/>
        <pt x="129" y="0" on="1"/>
        <pt x="4" y="0" on="1"/>
      </contour>
      <contour>
        <pt x="359" y="224" on="1"/>
        <pt x="304" y="398" on="1"/>
        <pt x="282" y="479" on="1"/>
        <pt x="271" y="479" on="1"/>
        <pt x="249" y="398" on="1"/>
        <pt x="193" y="224" on="1"/>
      </contour>
      <contour>
        <pt x="69" y="762" on="1"/>
        <pt x="180" y="762" on="1"/>
        <pt x="241" y="625" on="1"/>
        <pt x="169" y="616" on="1"/>
      </contour>
      <contour>
        <pt x="228" y="762" on="1"/>
        <pt x="338" y="762" on="1"/>
        <pt x="399" y="625" on="1"/>
        <pt x="328" y="616" on="1"/>
      </contour>
    </TTGlyph>
    <TTGlyph name="Adieresis" xMin="1" yMin="0" xMax="601" yMax="955">
      <contour>
        <pt x="1" y="7" on="1"/>
        <pt x="195" y="740" on="1"/>
        <pt x="406" y="740" on="1"/>
        <pt x="601" y="7" on="1"/>
        <pt x="601" y="0" on="1"/>
        <pt x="469" y="0" on="1"/>
        <pt x="417" y="190" on="1"/>
        <pt x="184" y="190" on="1"/>
        <pt x="133" y="0" on="1"/>
        <pt x="1" y="0" on="1"/>
      </contour>
      <contour>
        <pt x="390" y="303" on="1"/>
        <pt x="332" y="523" on="1"/>
        <pt x="306" y="632" on="1"/>
        <pt x="296" y="632" on="1"/>
        <pt x="269" y="523" on="1"/>
        <pt x="211" y="303" on="1"/>
      </contour>
      <contour>
        <pt x="185" y="803" on="1"/>
        <pt x="108" y="803" on="0"/>
        <pt x="108" y="880" on="1"/>
        <pt x="108" y="920" on="0"/>
        <pt x="145" y="955" on="0"/>
        <pt x="185" y="955" on="1"/>
        <pt x="225" y="955" on="0"/>
        <pt x="264" y="920" on="0"/>
        <pt x="264" y="880" on="1"/>
        <pt x="264" y="839" on="0"/>
        <pt x="225" y="803" on="0"/>
      </contour>
      <contour>
        <pt x="416" y="803" on="1"/>
        <pt x="339" y="803" on="0"/>
        <pt x="339" y="880" on="1"/>
        <pt x="339" y="920" on="0"/>
        <pt x="376" y="955" on="0"/>
        <pt x="416" y="955" on="1"/>
        <pt x="455" y="955" on="0"/>
        <pt x="495" y="920" on="0"/>
        <pt x="495" y="880" on="1"/>
        <pt x="495" y="839" on="0"/>
        <pt x="455" y="803" on="0"/>
      </contour>
    </TTGlyph>
    <TTGlyph name="Adieresis.sc" xMin="4" yMin="0" xMax="549" yMax="763">
      <contour>
        <pt x="172" y="624" on="1"/>
        <pt x="134" y="624" on="0"/>
        <pt x="100" y="658" on="0"/>
        <pt x="100" y="694" on="1"/>
        <pt x="100" y="731" on="0"/>
        <pt x="134" y="763" on="0"/>
        <pt x="172" y="763" on="1"/>
        <pt x="210" y="763" on="0"/>
        <pt x="245" y="730" on="0"/>
        <pt x="245" y="694" on="1"/>
        <pt x="245" y="657" on="0"/>
        <pt x="210" y="624" on="0"/>
      </contour>
      <contour>
        <pt x="384" y="624" on="1"/>
        <pt x="311" y="624" on="0"/>
        <pt x="311" y="694" on="1"/>
        <pt x="311" y="731" on="0"/>
        <pt x="346" y="763" on="0"/>
        <pt x="384" y="763" on="1"/>
        <pt x="421" y="763" on="0"/>
        <pt x="456" y="730" on="0"/>
        <pt x="456" y="694" on="1"/>
        <pt x="456" y="657" on="0"/>
        <pt x="421" y="624" on="0"/>
      </contour>
      <contour>
        <pt x="4" y="6" on="1"/>
        <pt x="178" y="577" on="1"/>
        <pt x="376" y="577" on="1"/>
        <pt x="549" y="6" on="1"/>
        <pt x="549" y="0" on="1"/>
        <pt x="424" y="0" on="1"/>
        <pt x="381" y="133" on="1"/>
        <pt x="172" y="133" on="1"/>
        <pt x="129" y="0" on="1"/>
        <pt x="4" y="0" on="1"/>
      </contour>
      <contour>
        <pt x="359" y="224" on="1"/>
        <pt x="304" y="398" on="1"/>
        <pt x="282" y="479" on="1"/>
        <pt x="271" y="479" on="1"/>
        <pt x="249" y="398" on="1"/>
        <pt x="193" y="224" on="1"/>
      </contour>
    </TTGlyph>
    <TTGlyph name="Agrave" xMin="1" yMin="0" xMax="601" yMax="961">
      <contour>
        <pt x="1" y="7" on="1"/>
        <pt x="195" y="740" on="1"/>
        <pt x="406" y="740" on="1"/>
        <pt x="601" y="7" on="1"/>
        <pt x="601" y="0" on="1"/>
        <pt x="469" y="0" on="1"/>
        <pt x="417" y="190" on="1"/>
        <pt x="184" y="190" on="1"/>
        <pt x="133" y="0" on="1"/>
        <pt x="1" y="0" on="1"/>
      </contour>
      <contour>
        <pt x="390" y="303" on="1"/>
        <pt x="332" y="523" on="1"/>
        <pt x="306" y="632" on="1"/>
        <pt x="296" y="632" on="1"/>
        <pt x="269" y="523" on="1"/>
        <pt x="211" y="303" on="1"/>
      </contour>
      <contour>
        <pt x="248" y="788" on="1"/>
        <pt x="138" y="961" on="1"/>
        <pt x="279" y="961" on="1"/>
        <pt x="348" y="800" on="1"/>
      </contour>
    </TTGlyph>
    <TTGlyph name="Agrave.sc" xMin="4" yMin="0" xMax="549" yMax="762">
      <contour>
        <pt x="4" y="6" on="1"/>
        <pt x="178" y="577" on="1"/>
        <pt x="376" y="577" on="1"/>
        <pt x="549" y="6" on="1"/>
        <pt x="549" y="0" on="1"/>
        <pt x="424" y="0" on="1"/>
        <pt x="381" y="133" on="1"/>
        <pt x="172" y="133" on="1"/>
        <pt x="129" y="0" on="1"/>
        <pt x="4" y="0" on="1"/>
      </contour>
      <contour>
        <pt x="359" y="224" on="1"/>
        <pt x="304" y="398" on="1"/>
        <pt x="282" y="479" on="1"/>
        <pt x="271" y="479" on="1"/>
        <pt x="249" y="398" on="1"/>
        <pt x="193" y="224" on="1"/>
      </contour>
      <contour>
        <pt x="227" y="617" on="1"/>
        <pt x="128" y="762" on="1"/>
        <pt x="261" y="762" on="1"/>
        <pt x="322" y="625" on="1"/>
      </contour>
    </TTGlyph>
    <TTGlyph name="Ainvertedbreve" xMin="1" yMin="0" xMax="601" yMax="976">
      <contour>
        <pt x="1" y="7" on="1"/>
        <pt x="195" y="740" on="1"/>
        <pt x="406" y="740" on="1"/>
        <pt x="601" y="7" on="1"/>
        <pt x="601" y="0" on="1"/>
        <pt x="469" y="0" on="1"/>
        <pt x="417" y="190" on="1"/>
        <pt x="184" y="190" on="1"/>
        <pt x="133" y="0" on="1"/>
        <pt x="1" y="0" on="1"/>
      </contour>
      <contour>
        <pt x="390" y="303" on="1"/>
        <pt x="332" y="523" on="1"/>
        <pt x="306" y="632" on="1"/>
        <pt x="296" y="632" on="1"/>
        <pt x="269" y="523" on="1"/>
        <pt x="211" y="303" on="1"/>
      </contour>
      <contour>
        <pt x="377" y="809" on="1"/>
        <pt x="377" y="863" on="0"/>
        <pt x="343" y="908" on="0"/>
        <pt x="303" y="908" on="1"/>
        <pt x="261" y="908" on="0"/>
        <pt x="227" y="863" on="0"/>
        <pt x="227" y="809" on="1"/>
        <pt x="132" y="809" on="1"/>
        <pt x="132" y="887" on="0"/>
        <pt x="219" y="976" on="0"/>
        <pt x="303" y="976" on="1"/>
        <pt x="385" y="976" on="0"/>
        <pt x="473" y="887" on="0"/>
        <pt x="473" y="809" on="1"/>
      </contour>
    </TTGlyph>
    <TTGlyph name="Ainvertedbreve.sc" xMin="4" yMin="0" xMax="549" yMax="766">
      <contour>
        <pt x="123" y="628" on="1"/>
        <pt x="123" y="693" on="0"/>
        <pt x="202" y="766" on="0"/>
        <pt x="279" y="766" on="1"/>
        <pt x="356" y="766" on="0"/>
        <pt x="435" y="693" on="0"/>
        <pt x="435" y="628" on="1"/>
        <pt x="345" y="628" on="1"/>
        <pt x="345" y="670" on="0"/>
        <pt x="315" y="705" on="0"/>
        <pt x="279" y="705" on="1"/>
        <pt x="242" y="705" on="0"/>
        <pt x="212" y="670" on="0"/>
        <pt x="212" y="628" on="1"/>
      </contour>
      <contour>
        <pt x="4" y="6" on="1"/>
        <pt x="178" y="577" on="1"/>
        <pt x="376" y="577" on="1"/>
        <pt x="549" y="6" on="1"/>
        <pt x="549" y="0" on="1"/>
        <pt x="424" y="0" on="1"/>
        <pt x="381" y="133" on="1"/>
        <pt x="172" y="133" on="1"/>
        <pt x="129" y="0" on="1"/>
        <pt x="4" y="0" on="1"/>
      </contour>
      <contour>
        <pt x="359" y="224" on="1"/>
        <pt x="304" y="398" on="1"/>
        <pt x="282" y="479" on="1"/>
        <pt x="271" y="479" on="1"/>
        <pt x="249" y="398" on="1"/>
        <pt x="193" y="224" on="1"/>
      </contour>
    </TTGlyph>
    <TTGlyph name="Amacron" xMin="1" yMin="0" xMax="601" yMax="931">
      <contour>
        <pt x="1" y="7" on="1"/>
        <pt x="195" y="740" on="1"/>
        <pt x="406" y="740" on="1"/>
        <pt x="601" y="7" on="1"/>
        <pt x="601" y="0" on="1"/>
        <pt x="469" y="0" on="1"/>
        <pt x="417" y="190" on="1"/>
        <pt x="184" y="190" on="1"/>
        <pt x="133" y="0" on="1"/>
        <pt x="1" y="0" on="1"/>
      </contour>
      <contour>
        <pt x="390" y="303" on="1"/>
        <pt x="332" y="523" on="1"/>
        <pt x="306" y="632" on="1"/>
        <pt x="296" y="632" on="1"/>
        <pt x="269" y="523" on="1"/>
        <pt x="211" y="303" on="1"/>
      </contour>
      <contour>
        <pt x="150" y="931" on="1"/>
        <pt x="447" y="931" on="1"/>
        <pt x="447" y="838" on="1"/>
        <pt x="150" y="838" on="1"/>
      </contour>
    </TTGlyph>
    <TTGlyph name="Amacron.sc" xMin="4" yMin="0" xMax="549" yMax="739">
      <contour>
        <pt x="4" y="6" on="1"/>
        <pt x="178" y="577" on="1"/>
        <pt x="376" y="577" on="1"/>
        <pt x="549" y="6" on="1"/>
        <pt x="549" y="0" on="1"/>
        <pt x="424" y="0" on="1"/>
        <pt x="381" y="133" on="1"/>
        <pt x="172" y="133" on="1"/>
        <pt x="129" y="0" on="1"/>
        <pt x="4" y="0" on="1"/>
      </contour>
      <contour>
        <pt x="359" y="224" on="1"/>
        <pt x="304" y="398" on="1"/>
        <pt x="282" y="479" on="1"/>
        <pt x="271" y="479" on="1"/>
        <pt x="249" y="398" on="1"/>
        <pt x="193" y="224" on="1"/>
      </contour>
      <contour>
        <pt x="139" y="739" on="1"/>
        <pt x="413" y="739" on="1"/>
        <pt x="413" y="653" on="1"/>
        <pt x="139" y="653" on="1"/>
      </contour>
    </TTGlyph>
    <TTGlyph name="Aogonek" xMin="1" yMin="-220" xMax="601" yMax="740">
      <contour>
        <pt x="523" y="-220" on="1"/>
        <pt x="408" y="-220" on="0"/>
        <pt x="408" y="-123" on="1"/>
        <pt x="408" y="-88" on="0"/>
        <pt x="445" y="-31" on="0"/>
        <pt x="488" y="0" on="1"/>
        <pt x="469" y="0" on="1"/>
        <pt x="417" y="190" on="1"/>
        <pt x="184" y="190" on="1"/>
        <pt x="133" y="0" on="1"/>
        <pt x="1" y="0" on="1"/>
        <pt x="1" y="7" on="1"/>
        <pt x="195" y="740" on="1"/>
        <pt x="406" y="740" on="1"/>
        <pt x="601" y="7" on="1"/>
        <pt x="601" y="-10" on="1"/>
        <pt x="545" y="-31" on="0"/>
        <pt x="499" y="-88" on="0"/>
        <pt x="499" y="-110" on="1"/>
        <pt x="499" y="-138" on="0"/>
        <pt x="538" y="-138" on="1"/>
        <pt x="555" y="-138" on="0"/>
        <pt x="588" y="-131" on="0"/>
        <pt x="601" y="-126" on="1"/>
        <pt x="601" y="-208" on="1"/>
        <pt x="580" y="-213" on="0"/>
        <pt x="544" y="-220" on="0"/>
      </contour>
      <contour>
        <pt x="390" y="303" on="1"/>
        <pt x="332" y="523" on="1"/>
        <pt x="306" y="632" on="1"/>
        <pt x="296" y="632" on="1"/>
        <pt x="269" y="523" on="1"/>
        <pt x="211" y="303" on="1"/>
      </contour>
    </TTGlyph>
    <TTGlyph name="Aogonek.sc" xMin="3" yMin="-167" xMax="549" yMax="577">
      <contour>
        <pt x="478" y="-167" on="1"/>
        <pt x="372" y="-167" on="0"/>
        <pt x="372" y="-90" on="1"/>
        <pt x="372" y="-64" on="0"/>
        <pt x="401" y="-22" on="0"/>
        <pt x="434" y="0" on="1"/>
        <pt x="424" y="0" on="1"/>
        <pt x="380" y="133" on="1"/>
        <pt x="172" y="133" on="1"/>
        <pt x="128" y="0" on="1"/>
        <pt x="3" y="0" on="1"/>
        <pt x="3" y="6" on="1"/>
        <pt x="177" y="577" on="1"/>
        <pt x="376" y="577" on="1"/>
        <pt x="549" y="6" on="1"/>
        <pt x="549" y="-5" on="1"/>
        <pt x="496" y="-22" on="0"/>
        <pt x="457" y="-62" on="0"/>
        <pt x="457" y="-75" on="1"/>
        <pt x="457" y="-93" on="0"/>
        <pt x="491" y="-93" on="1"/>
        <pt x="505" y="-93" on="0"/>
        <pt x="538" y="-87" on="0"/>
        <pt x="549" y="-83" on="1"/>
        <pt x="549" y="-158" on="1"/>
        <pt x="530" y="-162" on="0"/>
        <pt x="497" y="-167" on="0"/>
      </contour>
      <contour>
        <pt x="358" y="224" on="1"/>
        <pt x="304" y="402" on="1"/>
        <pt x="282" y="479" on="1"/>
        <pt x="271" y="479" on="1"/>
        <pt x="249" y="402" on="1"/>
        <pt x="192" y="224" on="1"/>
      </contour>
    </TTGlyph>
    <TTGlyph name="Aring" xMin="1" yMin="0" xMax="601" yMax="967">
      <contour>
        <pt x="1" y="7" on="1"/>
        <pt x="195" y="740" on="1"/>
        <pt x="406" y="740" on="1"/>
        <pt x="601" y="7" on="1"/>
        <pt x="601" y="0" on="1"/>
        <pt x="469" y="0" on="1"/>
        <pt x="417" y="190" on="1"/>
        <pt x="184" y="190" on="1"/>
        <pt x="133" y="0" on="1"/>
        <pt x="1" y="0" on="1"/>
      </contour>
      <contour>
        <pt x="390" y="303" on="1"/>
        <pt x="332" y="523" on="1"/>
        <pt x="306" y="632" on="1"/>
        <pt x="296" y="632" on="1"/>
        <pt x="269" y="523" on="1"/>
        <pt x="211" y="303" on="1"/>
      </contour>
      <contour>
        <pt x="299" y="746" on="1"/>
        <pt x="249" y="746" on="0"/>
        <pt x="188" y="809" on="0"/>
        <pt x="188" y="856" on="1"/>
        <pt x="188" y="904" on="0"/>
        <pt x="249" y="967" on="0"/>
        <pt x="299" y="967" on="1"/>
        <pt x="350" y="967" on="0"/>
        <pt x="410" y="904" on="0"/>
        <pt x="410" y="856" on="1"/>
        <pt x="410" y="809" on="0"/>
        <pt x="350" y="746" on="0"/>
      </contour>
      <contour>
        <pt x="299" y="799" on="1"/>
        <pt x="328" y="799" on="0"/>
        <pt x="354" y="827" on="0"/>
        <pt x="354" y="856" on="1"/>
        <pt x="354" y="885" on="0"/>
        <pt x="328" y="915" on="0"/>
        <pt x="299" y="915" on="1"/>
        <pt x="269" y="915" on="0"/>
        <pt x="244" y="885" on="0"/>
        <pt x="244" y="856" on="1"/>
        <pt x="244" y="827" on="0"/>
        <pt x="269" y="799" on="0"/>
      </contour>
    </TTGlyph>
    <TTGlyph name="Aring.sc" xMin="4" yMin="0" xMax="549" yMax="787">
      <contour>
        <pt x="4" y="6" on="1"/>
        <pt x="178" y="577" on="1"/>
        <pt x="376" y="577" on="1"/>
        <pt x="549" y="6" on="1"/>
        <pt x="549" y="0" on="1"/>
        <pt x="424" y="0" on="1"/>
        <pt x="381" y="133" on="1"/>
        <pt x="172" y="133" on="1"/>
        <pt x="129" y="0" on="1"/>
        <pt x="4" y="0" on="1"/>
      </contour>
      <contour>
        <pt x="359" y="224" on="1"/>
        <pt x="304" y="398" on="1"/>
        <pt x="282" y="479" on="1"/>
        <pt x="271" y="479" on="1"/>
        <pt x="249" y="398" on="1"/>
        <pt x="193" y="224" on="1"/>
      </contour>
      <contour>
        <pt x="275" y="610" on="1"/>
        <pt x="230" y="610" on="0"/>
        <pt x="174" y="661" on="0"/>
        <pt x="174" y="698" on="1"/>
        <pt x="174" y="737" on="0"/>
        <pt x="230" y="787" on="0"/>
        <pt x="275" y="787" on="1"/>
        <pt x="321" y="787" on="0"/>
        <pt x="376" y="737" on="0"/>
        <pt x="376" y="698" on="1"/>
        <pt x="376" y="661" on="0"/>
        <pt x="321" y="610" on="0"/>
      </contour>
      <contour>
        <pt x="275" y="656" on="1"/>
        <pt x="325" y="656" on="0"/>
        <pt x="325" y="698" on="1"/>
        <pt x="325" y="721" on="0"/>
        <pt x="302" y="743" on="0"/>
        <pt x="275" y="743" on="1"/>
        <pt x="248" y="743" on="0"/>
        <pt x="226" y="721" on="0"/>
        <pt x="226" y="698" on="1"/>
        <pt x="226" y="676" on="0"/>
        <pt x="248" y="656" on="0"/>
      </contour>
    </TTGlyph>
    <TTGlyph name="Aringacute" xMin="0" yMin="0" xMax="600" yMax="989">
      <contour>
        <pt x="0" y="7" on="1"/>
        <pt x="182" y="662" on="1"/>
        <pt x="155" y="695" on="0"/>
        <pt x="155" y="746" on="1"/>
        <pt x="155" y="798" on="0"/>
        <pt x="212" y="870" on="0"/>
        <pt x="264" y="879" on="1"/>
        <pt x="314" y="989" on="1"/>
        <pt x="455" y="989" on="1"/>
        <pt x="374" y="864" on="1"/>
        <pt x="407" y="848" on="0"/>
        <pt x="444" y="786" on="0"/>
        <pt x="444" y="746" on="1"/>
        <pt x="444" y="697" on="0"/>
        <pt x="418" y="666" on="1"/>
        <pt x="600" y="7" on="1"/>
        <pt x="600" y="0" on="1"/>
        <pt x="468" y="0" on="1"/>
        <pt x="417" y="188" on="1"/>
        <pt x="183" y="188" on="1"/>
        <pt x="132" y="0" on="1"/>
        <pt x="0" y="0" on="1"/>
      </contour>
      <contour>
        <pt x="299" y="680" on="1"/>
        <pt x="328" y="680" on="0"/>
        <pt x="364" y="717" on="0"/>
        <pt x="364" y="746" on="1"/>
        <pt x="364" y="775" on="0"/>
        <pt x="329" y="812" on="0"/>
        <pt x="299" y="812" on="1"/>
        <pt x="269" y="812" on="0"/>
        <pt x="235" y="775" on="0"/>
        <pt x="235" y="746" on="1"/>
        <pt x="235" y="717" on="0"/>
        <pt x="270" y="680" on="0"/>
      </contour>
      <contour>
        <pt x="389" y="306" on="1"/>
        <pt x="333" y="523" on="1"/>
        <pt x="314" y="606" on="1"/>
        <pt x="287" y="606" on="1"/>
        <pt x="269" y="523" on="1"/>
        <pt x="211" y="306" on="1"/>
      </contour>
    </TTGlyph>
    <TTGlyph name="Aringacute.sc" xMin="3" yMin="0" xMax="549" yMax="789">
      <contour>
        <pt x="3" y="6" on="1"/>
        <pt x="166" y="523" on="1"/>
        <pt x="142" y="550" on="0"/>
        <pt x="142" y="587" on="1"/>
        <pt x="142" y="632" on="0"/>
        <pt x="194" y="690" on="0"/>
        <pt x="242" y="698" on="1"/>
        <pt x="285" y="789" on="1"/>
        <pt x="417" y="789" on="1"/>
        <pt x="345" y="684" on="1"/>
        <pt x="375" y="670" on="0"/>
        <pt x="408" y="620" on="0"/>
        <pt x="408" y="587" on="1"/>
        <pt x="408" y="550" on="0"/>
        <pt x="386" y="525" on="1"/>
        <pt x="549" y="6" on="1"/>
        <pt x="549" y="0" on="1"/>
        <pt x="424" y="0" on="1"/>
        <pt x="380" y="133" on="1"/>
        <pt x="171" y="133" on="1"/>
        <pt x="128" y="0" on="1"/>
        <pt x="3" y="0" on="1"/>
      </contour>
      <contour>
        <pt x="275" y="536" on="1"/>
        <pt x="301" y="536" on="0"/>
        <pt x="333" y="565" on="0"/>
        <pt x="333" y="587" on="1"/>
        <pt x="333" y="611" on="0"/>
        <pt x="302" y="639" on="0"/>
        <pt x="275" y="639" on="1"/>
        <pt x="247" y="639" on="0"/>
        <pt x="216" y="611" on="0"/>
        <pt x="216" y="587" on="1"/>
        <pt x="216" y="564" on="0"/>
        <pt x="248" y="536" on="0"/>
      </contour>
      <contour>
        <pt x="359" y="224" on="1"/>
        <pt x="304" y="398" on="1"/>
        <pt x="287" y="469" on="1"/>
        <pt x="264" y="469" on="1"/>
        <pt x="248" y="398" on="1"/>
        <pt x="193" y="224" on="1"/>
      </contour>
    </TTGlyph>
    <TTGlyph name="Atilde" xMin="1" yMin="0" xMax="601" yMax="943">
      <contour>
        <pt x="1" y="7" on="1"/>
        <pt x="195" y="740" on="1"/>
        <pt x="406" y="740" on="1"/>
        <pt x="601" y="7" on="1"/>
        <pt x="601" y="0" on="1"/>
        <pt x="469" y="0" on="1"/>
        <pt x="417" y="190" on="1"/>
        <pt x="184" y="190" on="1"/>
        <pt x="133" y="0" on="1"/>
        <pt x="1" y="0" on="1"/>
      </contour>
      <contour>
        <pt x="390" y="303" on="1"/>
        <pt x="332" y="523" on="1"/>
        <pt x="306" y="632" on="1"/>
        <pt x="296" y="632" on="1"/>
        <pt x="269" y="523" on="1"/>
        <pt x="211" y="303" on="1"/>
      </contour>
      <contour>
        <pt x="129" y="839" on="1"/>
        <pt x="155" y="889" on="0"/>
        <pt x="222" y="943" on="0"/>
        <pt x="255" y="943" on="1"/>
        <pt x="274" y="943" on="0"/>
        <pt x="311" y="930" on="0"/>
        <pt x="346" y="915" on="0"/>
        <pt x="381" y="903" on="0"/>
        <pt x="399" y="903" on="1"/>
        <pt x="417" y="903" on="0"/>
        <pt x="451" y="921" on="0"/>
        <pt x="469" y="942" on="1"/>
        <pt x="493" y="921" on="1"/>
        <pt x="469" y="868" on="0"/>
        <pt x="402" y="815" on="0"/>
        <pt x="368" y="815" on="1"/>
        <pt x="349" y="815" on="0"/>
        <pt x="313" y="827" on="0"/>
        <pt x="278" y="842" on="0"/>
        <pt x="243" y="854" on="0"/>
        <pt x="225" y="854" on="1"/>
        <pt x="187" y="854" on="0"/>
        <pt x="151" y="817" on="1"/>
      </contour>
    </TTGlyph>
    <TTGlyph name="Atilde.sc" xMin="4" yMin="0" xMax="549" yMax="746">
      <contour>
        <pt x="4" y="6" on="1"/>
        <pt x="178" y="577" on="1"/>
        <pt x="376" y="577" on="1"/>
        <pt x="549" y="6" on="1"/>
        <pt x="549" y="0" on="1"/>
        <pt x="424" y="0" on="1"/>
        <pt x="381" y="133" on="1"/>
        <pt x="172" y="133" on="1"/>
        <pt x="129" y="0" on="1"/>
        <pt x="4" y="0" on="1"/>
      </contour>
      <contour>
        <pt x="359" y="224" on="1"/>
        <pt x="304" y="398" on="1"/>
        <pt x="282" y="479" on="1"/>
        <pt x="271" y="479" on="1"/>
        <pt x="249" y="398" on="1"/>
        <pt x="193" y="224" on="1"/>
      </contour>
      <contour>
        <pt x="120" y="653" on="1"/>
        <pt x="143" y="699" on="0"/>
        <pt x="206" y="746" on="0"/>
        <pt x="236" y="746" on="1"/>
        <pt x="253" y="746" on="0"/>
        <pt x="286" y="737" on="0"/>
        <pt x="318" y="725" on="0"/>
        <pt x="351" y="716" on="0"/>
        <pt x="368" y="716" on="1"/>
        <pt x="385" y="716" on="0"/>
        <pt x="415" y="729" on="0"/>
        <pt x="432" y="746" on="1"/>
        <pt x="454" y="729" on="1"/>
        <pt x="431" y="681" on="0"/>
        <pt x="368" y="635" on="0"/>
        <pt x="338" y="635" on="1"/>
        <pt x="321" y="635" on="0"/>
        <pt x="288" y="644" on="0"/>
        <pt x="255" y="656" on="0"/>
        <pt x="223" y="665" on="0"/>
        <pt x="206" y="665" on="1"/>
        <pt x="189" y="665" on="0"/>
        <pt x="157" y="653" on="0"/>
        <pt x="139" y="636" on="1"/>
      </contour>
    </TTGlyph>
    <TTGlyph name="B" xMin="61" yMin="-10" xMax="553" yMax="750">
      <contour>
        <pt x="254" y="-10" on="1"/>
        <pt x="207" y="-10" on="0"/>
        <pt x="102" y="-3" on="0"/>
        <pt x="61" y="5" on="1"/>
        <pt x="61" y="735" on="1"/>
        <pt x="126" y="743" on="0"/>
        <pt x="217" y="750" on="0"/>
        <pt x="258" y="750" on="1"/>
        <pt x="401" y="750" on="0"/>
        <pt x="533" y="650" on="0"/>
        <pt x="533" y="543" on="1"/>
        <pt x="533" y="410" on="0"/>
        <pt x="424" y="382" on="1"/>
        <pt x="424" y="378" on="1"/>
        <pt x="486" y="366" on="0"/>
        <pt x="553" y="275" on="0"/>
        <pt x="553" y="200" on="1"/>
        <pt x="553" y="95" on="0"/>
        <pt x="403" y="-10" on="0"/>
      </contour>
      <contour>
        <pt x="276" y="98" on="1"/>
        <pt x="409" y="98" on="0"/>
        <pt x="409" y="208" on="1"/>
        <pt x="409" y="269" on="0"/>
        <pt x="344" y="320" on="0"/>
        <pt x="266" y="320" on="1"/>
        <pt x="190" y="320" on="1"/>
        <pt x="190" y="104" on="1"/>
        <pt x="201" y="102" on="0"/>
        <pt x="250" y="98" on="0"/>
      </contour>
      <contour>
        <pt x="265" y="423" on="1"/>
        <pt x="299" y="423" on="0"/>
        <pt x="347" y="435" on="0"/>
        <pt x="375" y="461" on="0"/>
        <pt x="388" y="503" on="0"/>
        <pt x="388" y="534" on="1"/>
        <pt x="388" y="641" on="0"/>
        <pt x="272" y="641" on="1"/>
        <pt x="252" y="641" on="0"/>
        <pt x="213" y="638" on="0"/>
        <pt x="190" y="635" on="1"/>
        <pt x="190" y="423" on="1"/>
      </contour>
    </TTGlyph>
    <TTGlyph name="B.sc" xMin="58" yMin="-8" xMax="505" yMax="585">
      <contour>
        <pt x="235" y="-8" on="1"/>
        <pt x="192" y="-8" on="0"/>
        <pt x="97" y="-2" on="0"/>
        <pt x="58" y="4" on="1"/>
        <pt x="58" y="573" on="1"/>
        <pt x="116" y="579" on="0"/>
        <pt x="200" y="585" on="0"/>
        <pt x="238" y="585" on="1"/>
        <pt x="368" y="585" on="0"/>
        <pt x="487" y="506" on="0"/>
        <pt x="487" y="421" on="1"/>
        <pt x="487" y="321" on="0"/>
        <pt x="389" y="298" on="1"/>
        <pt x="389" y="295" on="1"/>
        <pt x="446" y="284" on="0"/>
        <pt x="505" y="215" on="0"/>
        <pt x="505" y="158" on="1"/>
        <pt x="505" y="-8" on="0"/>
      </contour>
      <contour>
        <pt x="257" y="91" on="1"/>
        <pt x="316" y="91" on="0"/>
        <pt x="377" y="129" on="0"/>
        <pt x="377" y="167" on="1"/>
        <pt x="377" y="210" on="0"/>
        <pt x="320" y="245" on="0"/>
        <pt x="251" y="245" on="1"/>
        <pt x="180" y="245" on="1"/>
        <pt x="180" y="94" on="1"/>
        <pt x="190" y="92" on="0"/>
        <pt x="231" y="91" on="0"/>
      </contour>
      <contour>
        <pt x="249" y="335" on="1"/>
        <pt x="309" y="335" on="0"/>
        <pt x="356" y="369" on="0"/>
        <pt x="356" y="413" on="1"/>
        <pt x="356" y="451" on="0"/>
        <pt x="307" y="486" on="0"/>
        <pt x="254" y="486" on="1"/>
        <pt x="237" y="486" on="0"/>
        <pt x="200" y="484" on="0"/>
        <pt x="180" y="482" on="1"/>
        <pt x="180" y="335" on="1"/>
      </contour>
    </TTGlyph>
    <TTGlyph name="C" xMin="34" yMin="-9" xMax="472" yMax="749">
      <contour>
        <pt x="338" y="-9" on="1"/>
        <pt x="184" y="-9" on="0"/>
        <pt x="34" y="174" on="0"/>
        <pt x="34" y="370" on="1"/>
        <pt x="34" y="567" on="0"/>
        <pt x="185" y="749" on="0"/>
        <pt x="337" y="749" on="1"/>
        <pt x="400" y="749" on="0"/>
        <pt x="472" y="734" on="1"/>
        <pt x="472" y="622" on="1"/>
        <pt x="445" y="627" on="0"/>
        <pt x="384" y="632" on="0"/>
        <pt x="358" y="632" on="1"/>
        <pt x="308" y="632" on="0"/>
        <pt x="240" y="608" on="0"/>
        <pt x="197" y="548" on="0"/>
        <pt x="178" y="447" on="0"/>
        <pt x="178" y="369" on="1"/>
        <pt x="178" y="293" on="0"/>
        <pt x="198" y="192" on="0"/>
        <pt x="240" y="132" on="0"/>
        <pt x="308" y="107" on="0"/>
        <pt x="356" y="107" on="1"/>
        <pt x="383" y="107" on="0"/>
        <pt x="444" y="113" on="0"/>
        <pt x="472" y="119" on="1"/>
        <pt x="472" y="10" on="1"/>
        <pt x="450" y="2" on="0"/>
        <pt x="379" y="-9" on="0"/>
      </contour>
    </TTGlyph>
    <TTGlyph name="C.sc" xMin="33" yMin="-7" xMax="429" yMax="585">
      <contour>
        <pt x="306" y="-7" on="1"/>
        <pt x="168" y="-7" on="0"/>
        <pt x="33" y="136" on="0"/>
        <pt x="33" y="289" on="1"/>
        <pt x="33" y="441" on="0"/>
        <pt x="167" y="585" on="0"/>
        <pt x="304" y="585" on="1"/>
        <pt x="333" y="585" on="0"/>
        <pt x="394" y="577" on="0"/>
        <pt x="429" y="572" on="1"/>
        <pt x="429" y="467" on="1"/>
        <pt x="373" y="476" on="0"/>
        <pt x="324" y="476" on="1"/>
        <pt x="281" y="476" on="0"/>
        <pt x="222" y="460" on="0"/>
        <pt x="185" y="418" on="0"/>
        <pt x="169" y="345" on="0"/>
        <pt x="169" y="288" on="1"/>
        <pt x="169" y="232" on="0"/>
        <pt x="186" y="160" on="0"/>
        <pt x="222" y="118" on="0"/>
        <pt x="281" y="102" on="0"/>
        <pt x="323" y="102" on="1"/>
        <pt x="348" y="102" on="0"/>
        <pt x="403" y="107" on="0"/>
        <pt x="429" y="112" on="1"/>
        <pt x="429" y="10" on="1"/>
        <pt x="409" y="2" on="0"/>
        <pt x="343" y="-7" on="0"/>
      </contour>
    </TTGlyph>
    <TTGlyph name="Cacute" xMin="34" yMin="-9" xMax="472" yMax="961">
      <contour>
        <pt x="338" y="-9" on="1"/>
        <pt x="184" y="-9" on="0"/>
        <pt x="34" y="174" on="0"/>
        <pt x="34" y="370" on="1"/>
        <pt x="34" y="567" on="0"/>
        <pt x="185" y="749" on="0"/>
        <pt x="337" y="749" on="1"/>
        <pt x="400" y="749" on="0"/>
        <pt x="472" y="734" on="1"/>
        <pt x="472" y="622" on="1"/>
        <pt x="445" y="627" on="0"/>
        <pt x="384" y="632" on="0"/>
        <pt x="358" y="632" on="1"/>
        <pt x="308" y="632" on="0"/>
        <pt x="240" y="608" on="0"/>
        <pt x="197" y="548" on="0"/>
        <pt x="178" y="447" on="0"/>
        <pt x="178" y="369" on="1"/>
        <pt x="178" y="293" on="0"/>
        <pt x="198" y="192" on="0"/>
        <pt x="240" y="132" on="0"/>
        <pt x="308" y="107" on="0"/>
        <pt x="356" y="107" on="1"/>
        <pt x="383" y="107" on="0"/>
        <pt x="444" y="113" on="0"/>
        <pt x="472" y="119" on="1"/>
        <pt x="472" y="10" on="1"/>
        <pt x="450" y="2" on="0"/>
        <pt x="379" y="-9" on="0"/>
      </contour>
      <contour>
        <pt x="233" y="796" on="1"/>
        <pt x="302" y="961" on="1"/>
        <pt x="443" y="961" on="1"/>
        <pt x="333" y="788" on="1"/>
      </contour>
    </TTGlyph>
    <TTGlyph name="Cacute.sc" xMin="33" yMin="-7" xMax="429" yMax="762">
      <contour>
        <pt x="306" y="-7" on="1"/>
        <pt x="168" y="-7" on="0"/>
        <pt x="33" y="136" on="0"/>
        <pt x="33" y="289" on="1"/>
        <pt x="33" y="441" on="0"/>
        <pt x="167" y="585" on="0"/>
        <pt x="304" y="585" on="1"/>
        <pt x="333" y="585" on="0"/>
        <pt x="394" y="577" on="0"/>
        <pt x="429" y="572" on="1"/>
        <pt x="429" y="467" on="1"/>
        <pt x="373" y="476" on="0"/>
        <pt x="324" y="476" on="1"/>
        <pt x="281" y="476" on="0"/>
        <pt x="222" y="460" on="0"/>
        <pt x="185" y="418" on="0"/>
        <pt x="169" y="345" on="0"/>
        <pt x="169" y="288" on="1"/>
        <pt x="169" y="232" on="0"/>
        <pt x="186" y="160" on="0"/>
        <pt x="222" y="118" on="0"/>
        <pt x="281" y="102" on="0"/>
        <pt x="323" y="102" on="1"/>
        <pt x="348" y="102" on="0"/>
        <pt x="403" y="107" on="0"/>
        <pt x="429" y="112" on="1"/>
        <pt x="429" y="10" on="1"/>
        <pt x="409" y="2" on="0"/>
        <pt x="343" y="-7" on="0"/>
      </contour>
      <contour>
        <pt x="210" y="623" on="1"/>
        <pt x="270" y="762" on="1"/>
        <pt x="403" y="762" on="1"/>
        <pt x="303" y="617" on="1"/>
      </contour>
    </TTGlyph>
    <TTGlyph name="Ccaron" xMin="34" yMin="-9" xMax="472" yMax="958">
      <contour>
        <pt x="338" y="-9" on="1"/>
        <pt x="184" y="-9" on="0"/>
        <pt x="34" y="174" on="0"/>
        <pt x="34" y="370" on="1"/>
        <pt x="34" y="567" on="0"/>
        <pt x="185" y="749" on="0"/>
        <pt x="337" y="749" on="1"/>
        <pt x="400" y="749" on="0"/>
        <pt x="472" y="734" on="1"/>
        <pt x="472" y="622" on="1"/>
        <pt x="445" y="627" on="0"/>
        <pt x="384" y="632" on="0"/>
        <pt x="358" y="632" on="1"/>
        <pt x="308" y="632" on="0"/>
        <pt x="240" y="608" on="0"/>
        <pt x="197" y="548" on="0"/>
        <pt x="178" y="447" on="0"/>
        <pt x="178" y="369" on="1"/>
        <pt x="178" y="293" on="0"/>
        <pt x="198" y="192" on="0"/>
        <pt x="240" y="132" on="0"/>
        <pt x="308" y="107" on="0"/>
        <pt x="356" y="107" on="1"/>
        <pt x="383" y="107" on="0"/>
        <pt x="444" y="113" on="0"/>
        <pt x="472" y="119" on="1"/>
        <pt x="472" y="10" on="1"/>
        <pt x="450" y="2" on="0"/>
        <pt x="379" y="-9" on="0"/>
      </contour>
      <contour>
        <pt x="144" y="958" on="1"/>
        <pt x="298" y="886" on="1"/>
        <pt x="452" y="958" on="1"/>
        <pt x="452" y="862" on="1"/>
        <pt x="298" y="790" on="1"/>
        <pt x="144" y="862" on="1"/>
      </contour>
    </TTGlyph>
    <TTGlyph name="Ccaron.sc" xMin="33" yMin="-7" xMax="429" yMax="758">
      <contour>
        <pt x="306" y="-7" on="1"/>
        <pt x="168" y="-7" on="0"/>
        <pt x="33" y="136" on="0"/>
        <pt x="33" y="289" on="1"/>
        <pt x="33" y="441" on="0"/>
        <pt x="167" y="585" on="0"/>
        <pt x="304" y="585" on="1"/>
        <pt x="333" y="585" on="0"/>
        <pt x="394" y="577" on="0"/>
        <pt x="429" y="572" on="1"/>
        <pt x="429" y="467" on="1"/>
        <pt x="373" y="476" on="0"/>
        <pt x="324" y="476" on="1"/>
        <pt x="281" y="476" on="0"/>
        <pt x="222" y="460" on="0"/>
        <pt x="185" y="418" on="0"/>
        <pt x="169" y="345" on="0"/>
        <pt x="169" y="288" on="1"/>
        <pt x="169" y="232" on="0"/>
        <pt x="186" y="160" on="0"/>
        <pt x="222" y="118" on="0"/>
        <pt x="281" y="102" on="0"/>
        <pt x="323" y="102" on="1"/>
        <pt x="348" y="102" on="0"/>
        <pt x="403" y="107" on="0"/>
        <pt x="429" y="112" on="1"/>
        <pt x="429" y="10" on="1"/>
        <pt x="409" y="2" on="0"/>
        <pt x="343" y="-7" on="0"/>
      </contour>
      <contour>
        <pt x="128" y="758" on="1"/>
        <pt x="270" y="702" on="1"/>
        <pt x="411" y="758" on="1"/>
        <pt x="411" y="671" on="1"/>
        <pt x="270" y="615" on="1"/>
        <pt x="128" y="671" on="1"/>
      </contour>
    </TTGlyph>
    <TTGlyph name="Ccedilla" xMin="34" yMin="-220" xMax="472" yMax="749">
      <contour>
        <pt x="267" y="-220" on="1"/>
        <pt x="250" y="-220" on="0"/>
        <pt x="210" y="-215" on="0"/>
        <pt x="187" y="-208" on="1"/>
        <pt x="187" y="-125" on="1"/>
        <pt x="204" y="-130" on="0"/>
        <pt x="238" y="-133" on="0"/>
        <pt x="246" y="-133" on="1"/>
        <pt x="269" y="-133" on="0"/>
        <pt x="290" y="-111" on="0"/>
        <pt x="290" y="-92" on="1"/>
        <pt x="290" y="-75" on="0"/>
        <pt x="273" y="-28" on="0"/>
        <pt x="258" y="-2" on="1"/>
        <pt x="144" y="19" on="0"/>
        <pt x="34" y="200" on="0"/>
        <pt x="34" y="370" on="1"/>
        <pt x="34" y="567" on="0"/>
        <pt x="185" y="749" on="0"/>
        <pt x="337" y="749" on="1"/>
        <pt x="400" y="749" on="0"/>
        <pt x="472" y="734" on="1"/>
        <pt x="472" y="622" on="1"/>
        <pt x="445" y="627" on="0"/>
        <pt x="384" y="632" on="0"/>
        <pt x="358" y="632" on="1"/>
        <pt x="308" y="632" on="0"/>
        <pt x="240" y="608" on="0"/>
        <pt x="197" y="548" on="0"/>
        <pt x="178" y="447" on="0"/>
        <pt x="178" y="369" on="1"/>
        <pt x="178" y="293" on="0"/>
        <pt x="198" y="192" on="0"/>
        <pt x="240" y="132" on="0"/>
        <pt x="308" y="107" on="0"/>
        <pt x="356" y="107" on="1"/>
        <pt x="383" y="107" on="0"/>
        <pt x="444" y="113" on="0"/>
        <pt x="472" y="119" on="1"/>
        <pt x="472" y="10" on="1"/>
        <pt x="452" y="2" on="0"/>
        <pt x="388" y="-8" on="0"/>
        <pt x="351" y="-9" on="1"/>
        <pt x="368" y="-37" on="0"/>
        <pt x="382" y="-87" on="0"/>
        <pt x="382" y="-114" on="1"/>
        <pt x="382" y="-163" on="0"/>
        <pt x="323" y="-220" on="0"/>
      </contour>
    </TTGlyph>
    <TTGlyph name="Ccedilla.sc" xMin="33" yMin="-172" xMax="429" yMax="585">
      <contour>
        <pt x="244" y="-172" on="1"/>
        <pt x="230" y="-172" on="0"/>
        <pt x="192" y="-167" on="0"/>
        <pt x="171" y="-162" on="1"/>
        <pt x="171" y="-87" on="1"/>
        <pt x="188" y="-90" on="0"/>
        <pt x="219" y="-93" on="0"/>
        <pt x="225" y="-93" on="1"/>
        <pt x="245" y="-93" on="0"/>
        <pt x="262" y="-78" on="0"/>
        <pt x="262" y="-67" on="1"/>
        <pt x="262" y="-54" on="0"/>
        <pt x="248" y="-20" on="0"/>
        <pt x="237" y="-1" on="1"/>
        <pt x="134" y="16" on="0"/>
        <pt x="33" y="156" on="0"/>
        <pt x="33" y="289" on="1"/>
        <pt x="33" y="441" on="0"/>
        <pt x="167" y="585" on="0"/>
        <pt x="304" y="585" on="1"/>
        <pt x="333" y="585" on="0"/>
        <pt x="394" y="577" on="0"/>
        <pt x="429" y="572" on="1"/>
        <pt x="429" y="467" on="1"/>
        <pt x="373" y="476" on="0"/>
        <pt x="324" y="476" on="1"/>
        <pt x="281" y="476" on="0"/>
        <pt x="222" y="460" on="0"/>
        <pt x="185" y="418" on="0"/>
        <pt x="169" y="345" on="0"/>
        <pt x="169" y="288" on="1"/>
        <pt x="169" y="232" on="0"/>
        <pt x="186" y="160" on="0"/>
        <pt x="222" y="118" on="0"/>
        <pt x="281" y="102" on="0"/>
        <pt x="323" y="102" on="1"/>
        <pt x="348" y="102" on="0"/>
        <pt x="403" y="107" on="0"/>
        <pt x="429" y="112" on="1"/>
        <pt x="429" y="10" on="1"/>
        <pt x="409" y="3" on="0"/>
        <pt x="352" y="-6" on="0"/>
        <pt x="322" y="-6" on="1"/>
        <pt x="335" y="-28" on="0"/>
        <pt x="347" y="-67" on="0"/>
        <pt x="347" y="-88" on="1"/>
        <pt x="347" y="-126" on="0"/>
        <pt x="295" y="-172" on="0"/>
      </contour>
    </TTGlyph>
    <TTGlyph name="Ccircumflex" xMin="34" yMin="-9" xMax="472" yMax="964">
      <contour>
        <pt x="338" y="-9" on="1"/>
        <pt x="184" y="-9" on="0"/>
        <pt x="34" y="174" on="0"/>
        <pt x="34" y="370" on="1"/>
        <pt x="34" y="567" on="0"/>
        <pt x="185" y="749" on="0"/>
        <pt x="337" y="749" on="1"/>
        <pt x="400" y="749" on="0"/>
        <pt x="472" y="734" on="1"/>
        <pt x="472" y="622" on="1"/>
        <pt x="445" y="627" on="0"/>
        <pt x="384" y="632" on="0"/>
        <pt x="358" y="632" on="1"/>
        <pt x="308" y="632" on="0"/>
        <pt x="240" y="608" on="0"/>
        <pt x="197" y="548" on="0"/>
        <pt x="178" y="447" on="0"/>
        <pt x="178" y="369" on="1"/>
        <pt x="178" y="293" on="0"/>
        <pt x="198" y="192" on="0"/>
        <pt x="240" y="132" on="0"/>
        <pt x="308" y="107" on="0"/>
        <pt x="356" y="107" on="1"/>
        <pt x="383" y="107" on="0"/>
        <pt x="444" y="113" on="0"/>
        <pt x="472" y="119" on="1"/>
        <pt x="472" y="10" on="1"/>
        <pt x="450" y="2" on="0"/>
        <pt x="379" y="-9" on="0"/>
      </contour>
      <contour>
        <pt x="136" y="893" on="1"/>
        <pt x="291" y="964" on="1"/>
        <pt x="444" y="893" on="1"/>
        <pt x="444" y="797" on="1"/>
        <pt x="290" y="869" on="1"/>
        <pt x="136" y="797" on="1"/>
      </contour>
    </TTGlyph>
    <TTGlyph name="Ccircumflex.sc" xMin="33" yMin="-7" xMax="429" yMax="760">
      <contour>
        <pt x="306" y="-7" on="1"/>
        <pt x="168" y="-7" on="0"/>
        <pt x="33" y="136" on="0"/>
        <pt x="33" y="289" on="1"/>
        <pt x="33" y="441" on="0"/>
        <pt x="167" y="585" on="0"/>
        <pt x="304" y="585" on="1"/>
        <pt x="333" y="585" on="0"/>
        <pt x="394" y="577" on="0"/>
        <pt x="429" y="572" on="1"/>
        <pt x="429" y="467" on="1"/>
        <pt x="373" y="476" on="0"/>
        <pt x="324" y="476" on="1"/>
        <pt x="281" y="476" on="0"/>
        <pt x="222" y="460" on="0"/>
        <pt x="185" y="418" on="0"/>
        <pt x="169" y="345" on="0"/>
        <pt x="169" y="288" on="1"/>
        <pt x="169" y="232" on="0"/>
        <pt x="186" y="160" on="0"/>
        <pt x="222" y="118" on="0"/>
        <pt x="281" y="102" on="0"/>
        <pt x="323" y="102" on="1"/>
        <pt x="348" y="102" on="0"/>
        <pt x="403" y="107" on="0"/>
        <pt x="429" y="112" on="1"/>
        <pt x="429" y="10" on="1"/>
        <pt x="409" y="2" on="0"/>
        <pt x="343" y="-7" on="0"/>
      </contour>
      <contour>
        <pt x="121" y="704" on="1"/>
        <pt x="263" y="760" on="1"/>
        <pt x="403" y="704" on="1"/>
        <pt x="403" y="618" on="1"/>
        <pt x="262" y="674" on="1"/>
        <pt x="121" y="618" on="1"/>
      </contour>
    </TTGlyph>
    <TTGlyph name="Cdotaccent" xMin="34" yMin="-9" xMax="472" yMax="950">
      <contour>
        <pt x="289" y="798" on="1"/>
        <pt x="249" y="798" on="0"/>
        <pt x="212" y="834" on="0"/>
        <pt x="212" y="874" on="1"/>
        <pt x="212" y="915" on="0"/>
        <pt x="249" y="950" on="0"/>
        <pt x="289" y="950" on="1"/>
        <pt x="329" y="950" on="0"/>
        <pt x="368" y="914" on="0"/>
        <pt x="368" y="874" on="1"/>
        <pt x="368" y="834" on="0"/>
        <pt x="329" y="798" on="0"/>
      </contour>
      <contour>
        <pt x="338" y="-9" on="1"/>
        <pt x="184" y="-9" on="0"/>
        <pt x="34" y="174" on="0"/>
        <pt x="34" y="370" on="1"/>
        <pt x="34" y="567" on="0"/>
        <pt x="185" y="749" on="0"/>
        <pt x="337" y="749" on="1"/>
        <pt x="400" y="749" on="0"/>
        <pt x="472" y="734" on="1"/>
        <pt x="472" y="622" on="1"/>
        <pt x="445" y="627" on="0"/>
        <pt x="384" y="632" on="0"/>
        <pt x="358" y="632" on="1"/>
        <pt x="308" y="632" on="0"/>
        <pt x="240" y="608" on="0"/>
        <pt x="197" y="548" on="0"/>
        <pt x="178" y="447" on="0"/>
        <pt x="178" y="369" on="1"/>
        <pt x="178" y="293" on="0"/>
        <pt x="198" y="192" on="0"/>
        <pt x="240" y="132" on="0"/>
        <pt x="308" y="107" on="0"/>
        <pt x="356" y="107" on="1"/>
        <pt x="383" y="107" on="0"/>
        <pt x="444" y="113" on="0"/>
        <pt x="472" y="119" on="1"/>
        <pt x="472" y="10" on="1"/>
        <pt x="450" y="2" on="0"/>
        <pt x="379" y="-9" on="0"/>
      </contour>
    </TTGlyph>
    <TTGlyph name="Cdotaccent.sc" xMin="33" yMin="-7" xMax="429" yMax="761">
      <contour>
        <pt x="306" y="-7" on="1"/>
        <pt x="168" y="-7" on="0"/>
        <pt x="33" y="136" on="0"/>
        <pt x="33" y="289" on="1"/>
        <pt x="33" y="441" on="0"/>
        <pt x="167" y="585" on="0"/>
        <pt x="304" y="585" on="1"/>
        <pt x="333" y="585" on="0"/>
        <pt x="394" y="577" on="0"/>
        <pt x="429" y="572" on="1"/>
        <pt x="429" y="467" on="1"/>
        <pt x="373" y="476" on="0"/>
        <pt x="324" y="476" on="1"/>
        <pt x="281" y="476" on="0"/>
        <pt x="222" y="460" on="0"/>
        <pt x="185" y="418" on="0"/>
        <pt x="169" y="345" on="0"/>
        <pt x="169" y="288" on="1"/>
        <pt x="169" y="232" on="0"/>
        <pt x="186" y="160" on="0"/>
        <pt x="222" y="118" on="0"/>
        <pt x="281" y="102" on="0"/>
        <pt x="323" y="102" on="1"/>
        <pt x="348" y="102" on="0"/>
        <pt x="403" y="107" on="0"/>
        <pt x="429" y="112" on="1"/>
        <pt x="429" y="10" on="1"/>
        <pt x="409" y="2" on="0"/>
        <pt x="343" y="-7" on="0"/>
      </contour>
      <contour>
        <pt x="263" y="622" on="1"/>
        <pt x="225" y="622" on="0"/>
        <pt x="191" y="655" on="0"/>
        <pt x="191" y="693" on="1"/>
        <pt x="191" y="729" on="0"/>
        <pt x="225" y="761" on="0"/>
        <pt x="263" y="761" on="1"/>
        <pt x="300" y="761" on="0"/>
        <pt x="337" y="729" on="0"/>
        <pt x="337" y="693" on="1"/>
        <pt x="337" y="655" on="0"/>
        <pt x="300" y="622" on="0"/>
      </contour>
    </TTGlyph>
    <TTGlyph name="D" xMin="61" yMin="-14" xMax="589" yMax="749">
      <contour>
        <pt x="224" y="-14" on="1"/>
        <pt x="190" y="-14" on="0"/>
        <pt x="113" y="-9" on="0"/>
        <pt x="61" y="-4" on="1"/>
        <pt x="61" y="737" on="1"/>
        <pt x="121" y="744" on="0"/>
        <pt x="204" y="749" on="0"/>
        <pt x="240" y="749" on="1"/>
        <pt x="334" y="749" on="0"/>
        <pt x="467" y="707" on="0"/>
        <pt x="551" y="615" on="0"/>
        <pt x="589" y="471" on="0"/>
        <pt x="589" y="369" on="1"/>
        <pt x="589" y="266" on="0"/>
        <pt x="549" y="120" on="0"/>
        <pt x="461" y="28" on="0"/>
        <pt x="323" y="-14" on="0"/>
      </contour>
      <contour>
        <pt x="270" y="101" on="1"/>
        <pt x="318" y="101" on="0"/>
        <pt x="385" y="128" on="0"/>
        <pt x="426" y="190" on="0"/>
        <pt x="445" y="293" on="0"/>
        <pt x="445" y="370" on="1"/>
        <pt x="445" y="445" on="0"/>
        <pt x="427" y="547" on="0"/>
        <pt x="384" y="609" on="0"/>
        <pt x="314" y="636" on="0"/>
        <pt x="263" y="636" on="1"/>
        <pt x="243" y="636" on="0"/>
        <pt x="212" y="633" on="0"/>
        <pt x="198" y="630" on="1"/>
        <pt x="198" y="106" on="1"/>
        <pt x="223" y="103" on="0"/>
        <pt x="256" y="101" on="0"/>
      </contour>
    </TTGlyph>
    <TTGlyph name="D.sc" xMin="58" yMin="-10" xMax="539" yMax="584">
      <contour>
        <pt x="209" y="-10" on="1"/>
        <pt x="177" y="-10" on="0"/>
        <pt x="105" y="-6" on="0"/>
        <pt x="58" y="-1" on="1"/>
        <pt x="58" y="577" on="1"/>
        <pt x="113" y="581" on="0"/>
        <pt x="190" y="584" on="0"/>
        <pt x="222" y="584" on="1"/>
        <pt x="307" y="584" on="0"/>
        <pt x="428" y="552" on="0"/>
        <pt x="504" y="481" on="0"/>
        <pt x="539" y="368" on="0"/>
        <pt x="539" y="288" on="1"/>
        <pt x="539" y="207" on="0"/>
        <pt x="503" y="94" on="0"/>
        <pt x="424" y="22" on="0"/>
        <pt x="298" y="-10" on="0"/>
      </contour>
      <contour>
        <pt x="254" y="97" on="1"/>
        <pt x="296" y="97" on="0"/>
        <pt x="353" y="115" on="0"/>
        <pt x="388" y="158" on="0"/>
        <pt x="403" y="232" on="0"/>
        <pt x="403" y="289" on="1"/>
        <pt x="403" y="345" on="0"/>
        <pt x="387" y="418" on="0"/>
        <pt x="351" y="462" on="0"/>
        <pt x="290" y="479" on="0"/>
        <pt x="245" y="479" on="1"/>
        <pt x="228" y="479" on="0"/>
        <pt x="200" y="477" on="0"/>
        <pt x="188" y="475" on="1"/>
        <pt x="188" y="101" on="1"/>
        <pt x="211" y="99" on="0"/>
        <pt x="240" y="97" on="0"/>
      </contour>
    </TTGlyph>
    <TTGlyph name="Dcaron" xMin="61" yMin="-14" xMax="589" yMax="958">
      <contour>
        <pt x="144" y="958" on="1"/>
        <pt x="298" y="886" on="1"/>
        <pt x="452" y="958" on="1"/>
        <pt x="452" y="862" on="1"/>
        <pt x="298" y="790" on="1"/>
        <pt x="144" y="862" on="1"/>
      </contour>
      <contour>
        <pt x="224" y="-14" on="1"/>
        <pt x="190" y="-14" on="0"/>
        <pt x="113" y="-9" on="0"/>
        <pt x="61" y="-4" on="1"/>
        <pt x="61" y="737" on="1"/>
        <pt x="121" y="744" on="0"/>
        <pt x="204" y="749" on="0"/>
        <pt x="240" y="749" on="1"/>
        <pt x="334" y="749" on="0"/>
        <pt x="467" y="707" on="0"/>
        <pt x="551" y="615" on="0"/>
        <pt x="589" y="471" on="0"/>
        <pt x="589" y="369" on="1"/>
        <pt x="589" y="266" on="0"/>
        <pt x="549" y="120" on="0"/>
        <pt x="461" y="28" on="0"/>
        <pt x="323" y="-14" on="0"/>
      </contour>
      <contour>
        <pt x="270" y="101" on="1"/>
        <pt x="318" y="101" on="0"/>
        <pt x="385" y="128" on="0"/>
        <pt x="426" y="190" on="0"/>
        <pt x="445" y="293" on="0"/>
        <pt x="445" y="370" on="1"/>
        <pt x="445" y="445" on="0"/>
        <pt x="427" y="547" on="0"/>
        <pt x="384" y="609" on="0"/>
        <pt x="314" y="636" on="0"/>
        <pt x="263" y="636" on="1"/>
        <pt x="243" y="636" on="0"/>
        <pt x="212" y="633" on="0"/>
        <pt x="198" y="630" on="1"/>
        <pt x="198" y="106" on="1"/>
        <pt x="223" y="103" on="0"/>
        <pt x="256" y="101" on="0"/>
      </contour>
    </TTGlyph>
    <TTGlyph name="Dcaron.sc" xMin="58" yMin="-10" xMax="539" yMax="758">
      <contour>
        <pt x="209" y="-10" on="1"/>
        <pt x="177" y="-10" on="0"/>
        <pt x="105" y="-6" on="0"/>
        <pt x="58" y="-1" on="1"/>
        <pt x="58" y="577" on="1"/>
        <pt x="113" y="581" on="0"/>
        <pt x="190" y="584" on="0"/>
        <pt x="222" y="584" on="1"/>
        <pt x="307" y="584" on="0"/>
        <pt x="428" y="552" on="0"/>
        <pt x="504" y="481" on="0"/>
        <pt x="539" y="368" on="0"/>
        <pt x="539" y="288" on="1"/>
        <pt x="539" y="207" on="0"/>
        <pt x="503" y="94" on="0"/>
        <pt x="424" y="22" on="0"/>
        <pt x="298" y="-10" on="0"/>
      </contour>
      <contour>
        <pt x="254" y="97" on="1"/>
        <pt x="296" y="97" on="0"/>
        <pt x="353" y="115" on="0"/>
        <pt x="388" y="158" on="0"/>
        <pt x="403" y="232" on="0"/>
        <pt x="403" y="289" on="1"/>
        <pt x="403" y="345" on="0"/>
        <pt x="387" y="418" on="0"/>
        <pt x="351" y="462" on="0"/>
        <pt x="290" y="479" on="0"/>
        <pt x="245" y="479" on="1"/>
        <pt x="228" y="479" on="0"/>
        <pt x="200" y="477" on="0"/>
        <pt x="188" y="475" on="1"/>
        <pt x="188" y="101" on="1"/>
        <pt x="211" y="99" on="0"/>
        <pt x="240" y="97" on="0"/>
      </contour>
      <contour>
        <pt x="134" y="671" on="1"/>
        <pt x="134" y="758" on="1"/>
        <pt x="276" y="702" on="1"/>
        <pt x="416" y="758" on="1"/>
        <pt x="416" y="671" on="1"/>
        <pt x="276" y="615" on="1"/>
      </contour>
    </TTGlyph>
    <TTGlyph name="Dcroat" xMin="-2" yMin="-14" xMax="610" yMax="749">
      <contour>
        <pt x="-2" y="425" on="1"/>
        <pt x="82" y="425" on="1"/>
        <pt x="82" y="737" on="1"/>
        <pt x="142" y="744" on="0"/>
        <pt x="225" y="749" on="0"/>
        <pt x="261" y="749" on="1"/>
        <pt x="355" y="749" on="0"/>
        <pt x="488" y="707" on="0"/>
        <pt x="572" y="615" on="0"/>
        <pt x="610" y="471" on="0"/>
        <pt x="610" y="369" on="1"/>
        <pt x="610" y="266" on="0"/>
        <pt x="570" y="120" on="0"/>
        <pt x="482" y="28" on="0"/>
        <pt x="344" y="-14" on="0"/>
        <pt x="245" y="-14" on="1"/>
        <pt x="211" y="-14" on="0"/>
        <pt x="134" y="-9" on="0"/>
        <pt x="82" y="-4" on="1"/>
        <pt x="82" y="318" on="1"/>
        <pt x="-2" y="318" on="1"/>
      </contour>
      <contour>
        <pt x="291" y="101" on="1"/>
        <pt x="339" y="101" on="0"/>
        <pt x="406" y="128" on="0"/>
        <pt x="447" y="190" on="0"/>
        <pt x="466" y="293" on="0"/>
        <pt x="466" y="370" on="1"/>
        <pt x="466" y="445" on="0"/>
        <pt x="448" y="547" on="0"/>
        <pt x="405" y="609" on="0"/>
        <pt x="335" y="636" on="0"/>
        <pt x="284" y="636" on="1"/>
        <pt x="264" y="636" on="0"/>
        <pt x="233" y="633" on="0"/>
        <pt x="219" y="630" on="1"/>
        <pt x="219" y="425" on="1"/>
        <pt x="321" y="425" on="1"/>
        <pt x="321" y="318" on="1"/>
        <pt x="219" y="318" on="1"/>
        <pt x="219" y="106" on="1"/>
        <pt x="244" y="103" on="0"/>
        <pt x="277" y="101" on="0"/>
      </contour>
    </TTGlyph>
    <TTGlyph name="Dcroat.sc" xMin="3" yMin="-10" xMax="558" yMax="584">
      <contour>
        <pt x="3" y="341" on="1"/>
        <pt x="76" y="341" on="1"/>
        <pt x="76" y="577" on="1"/>
        <pt x="132" y="581" on="0"/>
        <pt x="209" y="584" on="0"/>
        <pt x="242" y="584" on="1"/>
        <pt x="327" y="584" on="0"/>
        <pt x="447" y="552" on="0"/>
        <pt x="523" y="481" on="0"/>
        <pt x="558" y="368" on="0"/>
        <pt x="558" y="288" on="1"/>
        <pt x="558" y="207" on="0"/>
        <pt x="522" y="94" on="0"/>
        <pt x="443" y="22" on="0"/>
        <pt x="317" y="-10" on="0"/>
        <pt x="228" y="-10" on="1"/>
        <pt x="196" y="-10" on="0"/>
        <pt x="124" y="-6" on="0"/>
        <pt x="76" y="-1" on="1"/>
        <pt x="76" y="241" on="1"/>
        <pt x="3" y="241" on="1"/>
      </contour>
      <contour>
        <pt x="273" y="97" on="1"/>
        <pt x="314" y="97" on="0"/>
        <pt x="371" y="115" on="0"/>
        <pt x="406" y="158" on="0"/>
        <pt x="422" y="232" on="0"/>
        <pt x="422" y="289" on="1"/>
        <pt x="422" y="345" on="0"/>
        <pt x="406" y="418" on="0"/>
        <pt x="370" y="462" on="0"/>
        <pt x="309" y="479" on="0"/>
        <pt x="264" y="479" on="1"/>
        <pt x="247" y="479" on="0"/>
        <pt x="220" y="477" on="0"/>
        <pt x="207" y="475" on="1"/>
        <pt x="207" y="341" on="1"/>
        <pt x="295" y="341" on="1"/>
        <pt x="295" y="241" on="1"/>
        <pt x="207" y="241" on="1"/>
        <pt x="207" y="101" on="1"/>
        <pt x="229" y="99" on="0"/>
        <pt x="259" y="97" on="0"/>
      </contour>
    </TTGlyph>
    <TTGlyph name="Ddotbelow" xMin="61" yMin="-200" xMax="589" yMax="749">
      <contour>
        <pt x="298" y="-200" on="1"/>
        <pt x="264" y="-200" on="0"/>
        <pt x="234" y="-170" on="0"/>
        <pt x="234" y="-137" on="1"/>
        <pt x="234" y="-103" on="0"/>
        <pt x="264" y="-75" on="0"/>
        <pt x="298" y="-75" on="1"/>
        <pt x="330" y="-75" on="0"/>
        <pt x="362" y="-103" on="0"/>
        <pt x="362" y="-137" on="1"/>
        <pt x="362" y="-170" on="0"/>
        <pt x="330" y="-200" on="0"/>
      </contour>
      <contour>
        <pt x="224" y="-14" on="1"/>
        <pt x="190" y="-14" on="0"/>
        <pt x="113" y="-9" on="0"/>
        <pt x="61" y="-4" on="1"/>
        <pt x="61" y="737" on="1"/>
        <pt x="121" y="744" on="0"/>
        <pt x="204" y="749" on="0"/>
        <pt x="240" y="749" on="1"/>
        <pt x="334" y="749" on="0"/>
        <pt x="467" y="707" on="0"/>
        <pt x="551" y="615" on="0"/>
        <pt x="589" y="471" on="0"/>
        <pt x="589" y="369" on="1"/>
        <pt x="589" y="266" on="0"/>
        <pt x="549" y="120" on="0"/>
        <pt x="461" y="28" on="0"/>
        <pt x="323" y="-14" on="0"/>
      </contour>
      <contour>
        <pt x="270" y="101" on="1"/>
        <pt x="318" y="101" on="0"/>
        <pt x="385" y="128" on="0"/>
        <pt x="426" y="190" on="0"/>
        <pt x="445" y="293" on="0"/>
        <pt x="445" y="370" on="1"/>
        <pt x="445" y="445" on="0"/>
        <pt x="427" y="547" on="0"/>
        <pt x="384" y="609" on="0"/>
        <pt x="314" y="636" on="0"/>
        <pt x="263" y="636" on="1"/>
        <pt x="243" y="636" on="0"/>
        <pt x="212" y="633" on="0"/>
        <pt x="198" y="630" on="1"/>
        <pt x="198" y="106" on="1"/>
        <pt x="223" y="103" on="0"/>
        <pt x="256" y="101" on="0"/>
      </contour>
    </TTGlyph>
    <TTGlyph name="Ddotbelow.sc" xMin="58" yMin="-164" xMax="539" yMax="584">
      <contour>
        <pt x="209" y="-10" on="1"/>
        <pt x="177" y="-10" on="0"/>
        <pt x="105" y="-6" on="0"/>
        <pt x="58" y="-1" on="1"/>
        <pt x="58" y="577" on="1"/>
        <pt x="113" y="581" on="0"/>
        <pt x="190" y="584" on="0"/>
        <pt x="222" y="584" on="1"/>
        <pt x="307" y="584" on="0"/>
        <pt x="428" y="552" on="0"/>
        <pt x="504" y="481" on="0"/>
        <pt x="539" y="368" on="0"/>
        <pt x="539" y="288" on="1"/>
        <pt x="539" y="207" on="0"/>
        <pt x="503" y="94" on="0"/>
        <pt x="424" y="22" on="0"/>
        <pt x="298" y="-10" on="0"/>
      </contour>
      <contour>
        <pt x="254" y="97" on="1"/>
        <pt x="296" y="97" on="0"/>
        <pt x="353" y="115" on="0"/>
        <pt x="388" y="158" on="0"/>
        <pt x="403" y="232" on="0"/>
        <pt x="403" y="289" on="1"/>
        <pt x="403" y="345" on="0"/>
        <pt x="387" y="418" on="0"/>
        <pt x="351" y="462" on="0"/>
        <pt x="290" y="479" on="0"/>
        <pt x="245" y="479" on="1"/>
        <pt x="228" y="479" on="0"/>
        <pt x="200" y="477" on="0"/>
        <pt x="188" y="475" on="1"/>
        <pt x="188" y="101" on="1"/>
        <pt x="211" y="99" on="0"/>
        <pt x="240" y="97" on="0"/>
      </contour>
      <contour>
        <pt x="275" y="-164" on="1"/>
        <pt x="244" y="-164" on="0"/>
        <pt x="216" y="-138" on="0"/>
        <pt x="216" y="-109" on="1"/>
        <pt x="216" y="-80" on="0"/>
        <pt x="244" y="-54" on="0"/>
        <pt x="275" y="-54" on="1"/>
        <pt x="306" y="-54" on="0"/>
        <pt x="335" y="-80" on="0"/>
        <pt x="335" y="-109" on="1"/>
        <pt x="335" y="-138" on="0"/>
        <pt x="306" y="-164" on="0"/>
      </contour>
    </TTGlyph>
    <TTGlyph name="Delta" xMin="18" yMin="0" xMax="656" yMax="740">
      <contour>
        <pt x="247" y="740" on="1"/>
        <pt x="427" y="740" on="1"/>
        <pt x="656" y="0" on="1"/>
        <pt x="18" y="0" on="1"/>
      </contour>
      <contour>
        <pt x="492" y="118" on="1"/>
        <pt x="336" y="618" on="1"/>
        <pt x="182" y="118" on="1"/>
      </contour>
    </TTGlyph>
    <TTGlyph name="E" xMin="61" yMin="0" xMax="502" yMax="740">
      <contour>
        <pt x="61" y="740" on="1"/>
        <pt x="493" y="740" on="1"/>
        <pt x="493" y="622" on="1"/>
        <pt x="201" y="622" on="1"/>
        <pt x="201" y="431" on="1"/>
        <pt x="461" y="431" on="1"/>
        <pt x="461" y="313" on="1"/>
        <pt x="201" y="313" on="1"/>
        <pt x="201" y="118" on="1"/>
        <pt x="502" y="118" on="1"/>
        <pt x="502" y="0" on="1"/>
        <pt x="61" y="0" on="1"/>
      </contour>
    </TTGlyph>
    <TTGlyph name="E.sc" xMin="58" yMin="0" xMax="459" yMax="577">
      <contour>
        <pt x="58" y="577" on="1"/>
        <pt x="452" y="577" on="1"/>
        <pt x="452" y="470" on="1"/>
        <pt x="190" y="470" on="1"/>
        <pt x="190" y="341" on="1"/>
        <pt x="424" y="341" on="1"/>
        <pt x="424" y="238" on="1"/>
        <pt x="190" y="238" on="1"/>
        <pt x="190" y="107" on="1"/>
        <pt x="459" y="107" on="1"/>
        <pt x="459" y="0" on="1"/>
        <pt x="58" y="0" on="1"/>
      </contour>
    </TTGlyph>
    <TTGlyph name="Eacute" xMin="61" yMin="0" xMax="502" yMax="961">
      <contour>
        <pt x="224" y="796" on="1"/>
        <pt x="293" y="961" on="1"/>
        <pt x="434" y="961" on="1"/>
        <pt x="324" y="788" on="1"/>
      </contour>
      <contour>
        <pt x="61" y="740" on="1"/>
        <pt x="493" y="740" on="1"/>
        <pt x="493" y="622" on="1"/>
        <pt x="201" y="622" on="1"/>
        <pt x="201" y="431" on="1"/>
        <pt x="461" y="431" on="1"/>
        <pt x="461" y="313" on="1"/>
        <pt x="201" y="313" on="1"/>
        <pt x="201" y="118" on="1"/>
        <pt x="502" y="118" on="1"/>
        <pt x="502" y="0" on="1"/>
        <pt x="61" y="0" on="1"/>
      </contour>
    </TTGlyph>
    <TTGlyph name="Eacute.sc" xMin="58" yMin="0" xMax="459" yMax="762">
      <contour>
        <pt x="58" y="577" on="1"/>
        <pt x="452" y="577" on="1"/>
        <pt x="452" y="470" on="1"/>
        <pt x="190" y="470" on="1"/>
        <pt x="190" y="341" on="1"/>
        <pt x="424" y="341" on="1"/>
        <pt x="424" y="238" on="1"/>
        <pt x="190" y="238" on="1"/>
        <pt x="190" y="107" on="1"/>
        <pt x="459" y="107" on="1"/>
        <pt x="459" y="0" on="1"/>
        <pt x="58" y="0" on="1"/>
      </contour>
      <contour>
        <pt x="205" y="623" on="1"/>
        <pt x="265" y="762" on="1"/>
        <pt x="398" y="762" on="1"/>
        <pt x="299" y="617" on="1"/>
      </contour>
    </TTGlyph>
    <TTGlyph name="Ebreve" xMin="61" yMin="0" xMax="502" yMax="966">
      <contour>
        <pt x="281" y="799" on="1"/>
        <pt x="197" y="799" on="0"/>
        <pt x="110" y="888" on="0"/>
        <pt x="110" y="966" on="1"/>
        <pt x="205" y="966" on="1"/>
        <pt x="205" y="913" on="0"/>
        <pt x="239" y="867" on="0"/>
        <pt x="281" y="867" on="1"/>
        <pt x="321" y="867" on="0"/>
        <pt x="355" y="913" on="0"/>
        <pt x="355" y="966" on="1"/>
        <pt x="451" y="966" on="1"/>
        <pt x="451" y="888" on="0"/>
        <pt x="363" y="799" on="0"/>
      </contour>
      <contour>
        <pt x="61" y="740" on="1"/>
        <pt x="493" y="740" on="1"/>
        <pt x="493" y="622" on="1"/>
        <pt x="201" y="622" on="1"/>
        <pt x="201" y="431" on="1"/>
        <pt x="461" y="431" on="1"/>
        <pt x="461" y="313" on="1"/>
        <pt x="201" y="313" on="1"/>
        <pt x="201" y="118" on="1"/>
        <pt x="502" y="118" on="1"/>
        <pt x="502" y="0" on="1"/>
        <pt x="61" y="0" on="1"/>
      </contour>
    </TTGlyph>
    <TTGlyph name="Ebreve.sc" xMin="58" yMin="0" xMax="459" yMax="759">
      <contour>
        <pt x="258" y="620" on="1"/>
        <pt x="181" y="620" on="0"/>
        <pt x="102" y="694" on="0"/>
        <pt x="102" y="759" on="1"/>
        <pt x="191" y="759" on="1"/>
        <pt x="191" y="716" on="0"/>
        <pt x="221" y="681" on="0"/>
        <pt x="258" y="681" on="1"/>
        <pt x="294" y="681" on="0"/>
        <pt x="325" y="716" on="0"/>
        <pt x="325" y="759" on="1"/>
        <pt x="414" y="759" on="1"/>
        <pt x="414" y="694" on="0"/>
        <pt x="334" y="620" on="0"/>
      </contour>
      <contour>
        <pt x="58" y="577" on="1"/>
        <pt x="452" y="577" on="1"/>
        <pt x="452" y="470" on="1"/>
        <pt x="190" y="470" on="1"/>
        <pt x="190" y="341" on="1"/>
        <pt x="424" y="341" on="1"/>
        <pt x="424" y="238" on="1"/>
        <pt x="190" y="238" on="1"/>
        <pt x="190" y="107" on="1"/>
        <pt x="459" y="107" on="1"/>
        <pt x="459" y="0" on="1"/>
        <pt x="58" y="0" on="1"/>
      </contour>
    </TTGlyph>
    <TTGlyph name="Ecaron" xMin="61" yMin="0" xMax="502" yMax="958">
      <contour>
        <pt x="134" y="958" on="1"/>
        <pt x="288" y="886" on="1"/>
        <pt x="442" y="958" on="1"/>
        <pt x="442" y="862" on="1"/>
        <pt x="288" y="790" on="1"/>
        <pt x="134" y="862" on="1"/>
      </contour>
      <contour>
        <pt x="61" y="740" on="1"/>
        <pt x="493" y="740" on="1"/>
        <pt x="493" y="622" on="1"/>
        <pt x="201" y="622" on="1"/>
        <pt x="201" y="431" on="1"/>
        <pt x="461" y="431" on="1"/>
        <pt x="461" y="313" on="1"/>
        <pt x="201" y="313" on="1"/>
        <pt x="201" y="118" on="1"/>
        <pt x="502" y="118" on="1"/>
        <pt x="502" y="0" on="1"/>
        <pt x="61" y="0" on="1"/>
      </contour>
    </TTGlyph>
    <TTGlyph name="Ecaron.sc" xMin="58" yMin="0" xMax="459" yMax="758">
      <contour>
        <pt x="58" y="577" on="1"/>
        <pt x="452" y="577" on="1"/>
        <pt x="452" y="470" on="1"/>
        <pt x="190" y="470" on="1"/>
        <pt x="190" y="341" on="1"/>
        <pt x="424" y="341" on="1"/>
        <pt x="424" y="238" on="1"/>
        <pt x="190" y="238" on="1"/>
        <pt x="190" y="107" on="1"/>
        <pt x="459" y="107" on="1"/>
        <pt x="459" y="0" on="1"/>
        <pt x="58" y="0" on="1"/>
      </contour>
      <contour>
        <pt x="124" y="671" on="1"/>
        <pt x="124" y="758" on="1"/>
        <pt x="264" y="702" on="1"/>
        <pt x="406" y="758" on="1"/>
        <pt x="406" y="671" on="1"/>
        <pt x="265" y="615" on="1"/>
      </contour>
    </TTGlyph>
    <TTGlyph name="Ecircumflex" xMin="61" yMin="0" xMax="502" yMax="964">
      <contour>
        <pt x="61" y="740" on="1"/>
        <pt x="493" y="740" on="1"/>
        <pt x="493" y="622" on="1"/>
        <pt x="201" y="622" on="1"/>
        <pt x="201" y="431" on="1"/>
        <pt x="461" y="431" on="1"/>
        <pt x="461" y="313" on="1"/>
        <pt x="201" y="313" on="1"/>
        <pt x="201" y="118" on="1"/>
        <pt x="502" y="118" on="1"/>
        <pt x="502" y="0" on="1"/>
        <pt x="61" y="0" on="1"/>
      </contour>
      <contour>
        <pt x="126" y="893" on="1"/>
        <pt x="281" y="964" on="1"/>
        <pt x="434" y="893" on="1"/>
        <pt x="434" y="797" on="1"/>
        <pt x="280" y="869" on="1"/>
        <pt x="126" y="797" on="1"/>
      </contour>
    </TTGlyph>
    <TTGlyph name="Ecircumflex.sc" xMin="58" yMin="0" xMax="459" yMax="760">
      <contour>
        <pt x="58" y="577" on="1"/>
        <pt x="452" y="577" on="1"/>
        <pt x="452" y="470" on="1"/>
        <pt x="190" y="470" on="1"/>
        <pt x="190" y="341" on="1"/>
        <pt x="424" y="341" on="1"/>
        <pt x="424" y="238" on="1"/>
        <pt x="190" y="238" on="1"/>
        <pt x="190" y="107" on="1"/>
        <pt x="459" y="107" on="1"/>
        <pt x="459" y="0" on="1"/>
        <pt x="58" y="0" on="1"/>
      </contour>
      <contour>
        <pt x="118" y="704" on="1"/>
        <pt x="259" y="760" on="1"/>
        <pt x="400" y="704" on="1"/>
        <pt x="400" y="618" on="1"/>
        <pt x="259" y="674" on="1"/>
        <pt x="118" y="618" on="1"/>
      </contour>
    </TTGlyph>
    <TTGlyph name="Edblgrave" xMin="54" yMin="0" xMax="502" yMax="961">
      <contour>
        <pt x="61" y="740" on="1"/>
        <pt x="493" y="740" on="1"/>
        <pt x="493" y="622" on="1"/>
        <pt x="201" y="622" on="1"/>
        <pt x="201" y="431" on="1"/>
        <pt x="461" y="431" on="1"/>
        <pt x="461" y="313" on="1"/>
        <pt x="201" y="313" on="1"/>
        <pt x="201" y="118" on="1"/>
        <pt x="502" y="118" on="1"/>
        <pt x="502" y="0" on="1"/>
        <pt x="61" y="0" on="1"/>
      </contour>
      <contour>
        <pt x="164" y="788" on="1"/>
        <pt x="54" y="961" on="1"/>
        <pt x="170" y="961" on="1"/>
        <pt x="239" y="800" on="1"/>
      </contour>
      <contour>
        <pt x="338" y="788" on="1"/>
        <pt x="227" y="961" on="1"/>
        <pt x="344" y="961" on="1"/>
        <pt x="413" y="800" on="1"/>
      </contour>
    </TTGlyph>
    <TTGlyph name="Edblgrave.sc" xMin="50" yMin="0" xMax="459" yMax="762">
      <contour>
        <pt x="58" y="577" on="1"/>
        <pt x="452" y="577" on="1"/>
        <pt x="452" y="470" on="1"/>
        <pt x="190" y="470" on="1"/>
        <pt x="190" y="341" on="1"/>
        <pt x="424" y="341" on="1"/>
        <pt x="424" y="238" on="1"/>
        <pt x="190" y="238" on="1"/>
        <pt x="190" y="107" on="1"/>
        <pt x="459" y="107" on="1"/>
        <pt x="459" y="0" on="1"/>
        <pt x="58" y="0" on="1"/>
      </contour>
      <contour>
        <pt x="50" y="762" on="1"/>
        <pt x="162" y="762" on="1"/>
        <pt x="221" y="625" on="1"/>
        <pt x="150" y="616" on="1"/>
      </contour>
      <contour>
        <pt x="209" y="762" on="1"/>
        <pt x="320" y="762" on="1"/>
        <pt x="380" y="625" on="1"/>
        <pt x="309" y="616" on="1"/>
      </contour>
    </TTGlyph>
    <TTGlyph name="Edieresis" xMin="61" yMin="0" xMax="502" yMax="955">
      <contour>
        <pt x="163" y="803" on="1"/>
        <pt x="86" y="803" on="0"/>
        <pt x="86" y="880" on="1"/>
        <pt x="86" y="920" on="0"/>
        <pt x="123" y="955" on="0"/>
        <pt x="163" y="955" on="1"/>
        <pt x="203" y="955" on="0"/>
        <pt x="242" y="920" on="0"/>
        <pt x="242" y="880" on="1"/>
        <pt x="242" y="839" on="0"/>
        <pt x="203" y="803" on="0"/>
      </contour>
      <contour>
        <pt x="394" y="803" on="1"/>
        <pt x="317" y="803" on="0"/>
        <pt x="317" y="880" on="1"/>
        <pt x="317" y="920" on="0"/>
        <pt x="354" y="955" on="0"/>
        <pt x="394" y="955" on="1"/>
        <pt x="433" y="955" on="0"/>
        <pt x="473" y="920" on="0"/>
        <pt x="473" y="880" on="1"/>
        <pt x="473" y="839" on="0"/>
        <pt x="433" y="803" on="0"/>
      </contour>
      <contour>
        <pt x="61" y="740" on="1"/>
        <pt x="493" y="740" on="1"/>
        <pt x="493" y="622" on="1"/>
        <pt x="201" y="622" on="1"/>
        <pt x="201" y="431" on="1"/>
        <pt x="461" y="431" on="1"/>
        <pt x="461" y="313" on="1"/>
        <pt x="201" y="313" on="1"/>
        <pt x="201" y="118" on="1"/>
        <pt x="502" y="118" on="1"/>
        <pt x="502" y="0" on="1"/>
        <pt x="61" y="0" on="1"/>
      </contour>
    </TTGlyph>
    <TTGlyph name="Edieresis.sc" xMin="58" yMin="0" xMax="459" yMax="763">
      <contour>
        <pt x="152" y="624" on="1"/>
        <pt x="114" y="624" on="0"/>
        <pt x="80" y="658" on="0"/>
        <pt x="80" y="694" on="1"/>
        <pt x="80" y="731" on="0"/>
        <pt x="114" y="763" on="0"/>
        <pt x="152" y="763" on="1"/>
        <pt x="189" y="763" on="0"/>
        <pt x="225" y="730" on="0"/>
        <pt x="225" y="694" on="1"/>
        <pt x="225" y="657" on="0"/>
        <pt x="189" y="624" on="0"/>
      </contour>
      <contour>
        <pt x="364" y="624" on="1"/>
        <pt x="326" y="624" on="0"/>
        <pt x="292" y="658" on="0"/>
        <pt x="292" y="694" on="1"/>
        <pt x="292" y="731" on="0"/>
        <pt x="326" y="763" on="0"/>
        <pt x="364" y="763" on="1"/>
        <pt x="401" y="763" on="0"/>
        <pt x="437" y="730" on="0"/>
        <pt x="437" y="694" on="1"/>
        <pt x="437" y="657" on="0"/>
        <pt x="401" y="624" on="0"/>
      </contour>
      <contour>
        <pt x="58" y="577" on="1"/>
        <pt x="452" y="577" on="1"/>
        <pt x="452" y="470" on="1"/>
        <pt x="190" y="470" on="1"/>
        <pt x="190" y="341" on="1"/>
        <pt x="424" y="341" on="1"/>
        <pt x="424" y="238" on="1"/>
        <pt x="190" y="238" on="1"/>
        <pt x="190" y="107" on="1"/>
        <pt x="459" y="107" on="1"/>
        <pt x="459" y="0" on="1"/>
        <pt x="58" y="0" on="1"/>
      </contour>
    </TTGlyph>
    <TTGlyph name="Edotaccent" xMin="61" yMin="0" xMax="502" yMax="950">
      <contour>
        <pt x="279" y="798" on="1"/>
        <pt x="239" y="798" on="0"/>
        <pt x="202" y="834" on="0"/>
        <pt x="202" y="874" on="1"/>
        <pt x="202" y="915" on="0"/>
        <pt x="239" y="950" on="0"/>
        <pt x="279" y="950" on="1"/>
        <pt x="319" y="950" on="0"/>
        <pt x="358" y="914" on="0"/>
        <pt x="358" y="874" on="1"/>
        <pt x="358" y="834" on="0"/>
        <pt x="319" y="798" on="0"/>
      </contour>
      <contour>
        <pt x="61" y="740" on="1"/>
        <pt x="493" y="740" on="1"/>
        <pt x="493" y="622" on="1"/>
        <pt x="201" y="622" on="1"/>
        <pt x="201" y="431" on="1"/>
        <pt x="461" y="431" on="1"/>
        <pt x="461" y="313" on="1"/>
        <pt x="201" y="313" on="1"/>
        <pt x="201" y="118" on="1"/>
        <pt x="502" y="118" on="1"/>
        <pt x="502" y="0" on="1"/>
        <pt x="61" y="0" on="1"/>
      </contour>
    </TTGlyph>
    <TTGlyph name="Edotaccent.sc" xMin="58" yMin="0" xMax="459" yMax="761">
      <contour>
        <pt x="257" y="622" on="1"/>
        <pt x="219" y="622" on="0"/>
        <pt x="186" y="655" on="0"/>
        <pt x="186" y="693" on="1"/>
        <pt x="186" y="729" on="0"/>
        <pt x="219" y="761" on="0"/>
        <pt x="257" y="761" on="1"/>
        <pt x="295" y="761" on="0"/>
        <pt x="330" y="729" on="0"/>
        <pt x="330" y="693" on="1"/>
        <pt x="330" y="655" on="0"/>
        <pt x="295" y="622" on="0"/>
      </contour>
      <contour>
        <pt x="58" y="577" on="1"/>
        <pt x="452" y="577" on="1"/>
        <pt x="452" y="470" on="1"/>
        <pt x="190" y="470" on="1"/>
        <pt x="190" y="341" on="1"/>
        <pt x="424" y="341" on="1"/>
        <pt x="424" y="238" on="1"/>
        <pt x="190" y="238" on="1"/>
        <pt x="190" y="107" on="1"/>
        <pt x="459" y="107" on="1"/>
        <pt x="459" y="0" on="1"/>
        <pt x="58" y="0" on="1"/>
      </contour>
    </TTGlyph>
    <TTGlyph name="Edotbelow" xMin="61" yMin="-200" xMax="502" yMax="740">
      <contour>
        <pt x="61" y="740" on="1"/>
        <pt x="493" y="740" on="1"/>
        <pt x="493" y="622" on="1"/>
        <pt x="201" y="622" on="1"/>
        <pt x="201" y="431" on="1"/>
        <pt x="461" y="431" on="1"/>
        <pt x="461" y="313" on="1"/>
        <pt x="201" y="313" on="1"/>
        <pt x="201" y="118" on="1"/>
        <pt x="502" y="118" on="1"/>
        <pt x="502" y="0" on="1"/>
        <pt x="61" y="0" on="1"/>
      </contour>
      <contour>
        <pt x="289" y="-200" on="1"/>
        <pt x="255" y="-200" on="0"/>
        <pt x="225" y="-170" on="0"/>
        <pt x="225" y="-137" on="1"/>
        <pt x="225" y="-103" on="0"/>
        <pt x="255" y="-75" on="0"/>
        <pt x="289" y="-75" on="1"/>
        <pt x="321" y="-75" on="0"/>
        <pt x="353" y="-103" on="0"/>
        <pt x="353" y="-137" on="1"/>
        <pt x="353" y="-170" on="0"/>
        <pt x="321" y="-200" on="0"/>
      </contour>
    </TTGlyph>
    <TTGlyph name="Edotbelow.sc" xMin="58" yMin="-164" xMax="459" yMax="577">
      <contour>
        <pt x="265" y="-164" on="1"/>
        <pt x="234" y="-164" on="0"/>
        <pt x="206" y="-138" on="0"/>
        <pt x="206" y="-109" on="1"/>
        <pt x="206" y="-80" on="0"/>
        <pt x="234" y="-54" on="0"/>
        <pt x="265" y="-54" on="1"/>
        <pt x="296" y="-54" on="0"/>
        <pt x="325" y="-80" on="0"/>
        <pt x="325" y="-109" on="1"/>
        <pt x="325" y="-138" on="0"/>
        <pt x="296" y="-164" on="0"/>
      </contour>
      <contour>
        <pt x="58" y="577" on="1"/>
        <pt x="452" y="577" on="1"/>
        <pt x="452" y="470" on="1"/>
        <pt x="190" y="470" on="1"/>
        <pt x="190" y="341" on="1"/>
        <pt x="424" y="341" on="1"/>
        <pt x="424" y="238" on="1"/>
        <pt x="190" y="238" on="1"/>
        <pt x="190" y="107" on="1"/>
        <pt x="459" y="107" on="1"/>
        <pt x="459" y="0" on="1"/>
        <pt x="58" y="0" on="1"/>
      </contour>
    </TTGlyph>
    <TTGlyph name="Egrave" xMin="61" yMin="0" xMax="502" yMax="961">
      <contour>
        <pt x="226" y="788" on="1"/>
        <pt x="116" y="961" on="1"/>
        <pt x="257" y="961" on="1"/>
        <pt x="326" y="800" on="1"/>
      </contour>
      <contour>
        <pt x="61" y="740" on="1"/>
        <pt x="493" y="740" on="1"/>
        <pt x="493" y="622" on="1"/>
        <pt x="201" y="622" on="1"/>
        <pt x="201" y="431" on="1"/>
        <pt x="461" y="431" on="1"/>
        <pt x="461" y="313" on="1"/>
        <pt x="201" y="313" on="1"/>
        <pt x="201" y="118" on="1"/>
        <pt x="502" y="118" on="1"/>
        <pt x="502" y="0" on="1"/>
        <pt x="61" y="0" on="1"/>
      </contour>
    </TTGlyph>
    <TTGlyph name="Egrave.sc" xMin="58" yMin="0" xMax="459" yMax="762">
      <contour>
        <pt x="58" y="577" on="1"/>
        <pt x="452" y="577" on="1"/>
        <pt x="452" y="470" on="1"/>
        <pt x="190" y="470" on="1"/>
        <pt x="190" y="341" on="1"/>
        <pt x="424" y="341" on="1"/>
        <pt x="424" y="238" on="1"/>
        <pt x="190" y="238" on="1"/>
        <pt x="190" y="107" on="1"/>
        <pt x="459" y="107" on="1"/>
        <pt x="459" y="0" on="1"/>
        <pt x="58" y="0" on="1"/>
      </contour>
      <contour>
        <pt x="110" y="762" on="1"/>
        <pt x="242" y="762" on="1"/>
        <pt x="303" y="625" on="1"/>
        <pt x="209" y="617" on="1"/>
      </contour>
    </TTGlyph>
    <TTGlyph name="Einvertedbreve" xMin="61" yMin="0" xMax="502" yMax="976">
      <contour>
        <pt x="61" y="740" on="1"/>
        <pt x="493" y="740" on="1"/>
        <pt x="493" y="622" on="1"/>
        <pt x="201" y="622" on="1"/>
        <pt x="201" y="431" on="1"/>
        <pt x="461" y="431" on="1"/>
        <pt x="461" y="313" on="1"/>
        <pt x="201" y="313" on="1"/>
        <pt x="201" y="118" on="1"/>
        <pt x="502" y="118" on="1"/>
        <pt x="502" y="0" on="1"/>
        <pt x="61" y="0" on="1"/>
      </contour>
      <contour>
        <pt x="355" y="809" on="1"/>
        <pt x="355" y="863" on="0"/>
        <pt x="321" y="908" on="0"/>
        <pt x="281" y="908" on="1"/>
        <pt x="239" y="908" on="0"/>
        <pt x="205" y="863" on="0"/>
        <pt x="205" y="809" on="1"/>
        <pt x="110" y="809" on="1"/>
        <pt x="110" y="887" on="0"/>
        <pt x="197" y="976" on="0"/>
        <pt x="281" y="976" on="1"/>
        <pt x="363" y="976" on="0"/>
        <pt x="451" y="887" on="0"/>
        <pt x="451" y="809" on="1"/>
      </contour>
    </TTGlyph>
    <TTGlyph name="Einvertedbreve.sc" xMin="58" yMin="0" xMax="459" yMax="766">
      <contour>
        <pt x="102" y="628" on="1"/>
        <pt x="102" y="693" on="0"/>
        <pt x="181" y="766" on="0"/>
        <pt x="259" y="766" on="1"/>
        <pt x="334" y="766" on="0"/>
        <pt x="415" y="693" on="0"/>
        <pt x="415" y="628" on="1"/>
        <pt x="325" y="628" on="1"/>
        <pt x="325" y="670" on="0"/>
        <pt x="295" y="705" on="0"/>
        <pt x="259" y="705" on="1"/>
        <pt x="221" y="705" on="0"/>
        <pt x="191" y="670" on="0"/>
        <pt x="191" y="628" on="1"/>
      </contour>
      <contour>
        <pt x="58" y="577" on="1"/>
        <pt x="452" y="577" on="1"/>
        <pt x="452" y="470" on="1"/>
        <pt x="190" y="470" on="1"/>
        <pt x="190" y="341" on="1"/>
        <pt x="424" y="341" on="1"/>
        <pt x="424" y="238" on="1"/>
        <pt x="190" y="238" on="1"/>
        <pt x="190" y="107" on="1"/>
        <pt x="459" y="107" on="1"/>
        <pt x="459" y="0" on="1"/>
        <pt x="58" y="0" on="1"/>
      </contour>
    </TTGlyph>
    <TTGlyph name="Emacron" xMin="61" yMin="0" xMax="502" yMax="931">
      <contour>
        <pt x="128" y="931" on="1"/>
        <pt x="425" y="931" on="1"/>
        <pt x="425" y="838" on="1"/>
        <pt x="128" y="838" on="1"/>
      </contour>
      <contour>
        <pt x="61" y="740" on="1"/>
        <pt x="493" y="740" on="1"/>
        <pt x="493" y="622" on="1"/>
        <pt x="201" y="622" on="1"/>
        <pt x="201" y="431" on="1"/>
        <pt x="461" y="431" on="1"/>
        <pt x="461" y="313" on="1"/>
        <pt x="201" y="313" on="1"/>
        <pt x="201" y="118" on="1"/>
        <pt x="502" y="118" on="1"/>
        <pt x="502" y="0" on="1"/>
        <pt x="61" y="0" on="1"/>
      </contour>
    </TTGlyph>
    <TTGlyph name="Emacron.sc" xMin="58" yMin="0" xMax="459" yMax="739">
      <contour>
        <pt x="58" y="577" on="1"/>
        <pt x="452" y="577" on="1"/>
        <pt x="452" y="470" on="1"/>
        <pt x="190" y="470" on="1"/>
        <pt x="190" y="341" on="1"/>
        <pt x="424" y="341" on="1"/>
        <pt x="424" y="238" on="1"/>
        <pt x="190" y="238" on="1"/>
        <pt x="190" y="107" on="1"/>
        <pt x="459" y="107" on="1"/>
        <pt x="459" y="0" on="1"/>
        <pt x="58" y="0" on="1"/>
      </contour>
      <contour>
        <pt x="118" y="739" on="1"/>
        <pt x="393" y="739" on="1"/>
        <pt x="393" y="653" on="1"/>
        <pt x="118" y="653" on="1"/>
      </contour>
    </TTGlyph>
    <TTGlyph name="Eng" xMin="61" yMin="-200" xMax="612" yMax="740">
      <contour>
        <pt x="404" y="-170" on="1"/>
        <pt x="425" y="-113" on="0"/>
        <pt x="455" y="-4" on="0"/>
        <pt x="463" y="48" on="1"/>
        <pt x="233" y="416" on="1"/>
        <pt x="195" y="499" on="1"/>
        <pt x="186" y="498" on="1"/>
        <pt x="186" y="0" on="1"/>
        <pt x="61" y="0" on="1"/>
        <pt x="61" y="740" on="1"/>
        <pt x="178" y="740" on="1"/>
        <pt x="438" y="325" on="1"/>
        <pt x="477" y="243" on="1"/>
        <pt x="486" y="243" on="1"/>
        <pt x="486" y="740" on="1"/>
        <pt x="612" y="740" on="1"/>
        <pt x="612" y="103" on="1"/>
        <pt x="612" y="77" on="0"/>
        <pt x="594" y="4" on="0"/>
        <pt x="563" y="-77" on="0"/>
        <pt x="520" y="-162" on="0"/>
        <pt x="496" y="-200" on="1"/>
      </contour>
    </TTGlyph>
    <TTGlyph name="Eng.sc" xMin="59" yMin="-161" xMax="557" yMax="577">
      <contour>
        <pt x="367" y="-133" on="1"/>
        <pt x="407" y="-38" on="0"/>
        <pt x="420" y="46" on="1"/>
        <pt x="220" y="289" on="1"/>
        <pt x="185" y="352" on="1"/>
        <pt x="176" y="353" on="1"/>
        <pt x="176" y="0" on="1"/>
        <pt x="59" y="0" on="1"/>
        <pt x="59" y="577" on="1"/>
        <pt x="168" y="577" on="1"/>
        <pt x="396" y="290" on="1"/>
        <pt x="432" y="226" on="1"/>
        <pt x="440" y="227" on="1"/>
        <pt x="440" y="577" on="1"/>
        <pt x="557" y="577" on="1"/>
        <pt x="557" y="92" on="1"/>
        <pt x="557" y="71" on="0"/>
        <pt x="541" y="10" on="0"/>
        <pt x="513" y="-58" on="0"/>
        <pt x="475" y="-129" on="0"/>
        <pt x="453" y="-161" on="1"/>
      </contour>
    </TTGlyph>
    <TTGlyph name="Eogonek" xMin="61" yMin="-220" xMax="502" yMax="740">
      <contour>
        <pt x="61" y="740" on="1"/>
        <pt x="493" y="740" on="1"/>
        <pt x="493" y="622" on="1"/>
        <pt x="201" y="622" on="1"/>
        <pt x="201" y="431" on="1"/>
        <pt x="461" y="431" on="1"/>
        <pt x="461" y="313" on="1"/>
        <pt x="201" y="313" on="1"/>
        <pt x="201" y="118" on="1"/>
        <pt x="502" y="118" on="1"/>
        <pt x="502" y="-10" on="1"/>
        <pt x="446" y="-31" on="0"/>
        <pt x="400" y="-88" on="0"/>
        <pt x="400" y="-110" on="1"/>
        <pt x="400" y="-138" on="0"/>
        <pt x="439" y="-138" on="1"/>
        <pt x="456" y="-138" on="0"/>
        <pt x="489" y="-131" on="0"/>
        <pt x="502" y="-126" on="1"/>
        <pt x="502" y="-208" on="1"/>
        <pt x="481" y="-213" on="0"/>
        <pt x="445" y="-220" on="0"/>
        <pt x="424" y="-220" on="1"/>
        <pt x="309" y="-220" on="0"/>
        <pt x="309" y="-123" on="1"/>
        <pt x="309" y="-88" on="0"/>
        <pt x="346" y="-31" on="0"/>
        <pt x="389" y="0" on="1"/>
        <pt x="61" y="0" on="1"/>
      </contour>
    </TTGlyph>
    <TTGlyph name="Eogonek.sc" xMin="59" yMin="-172" xMax="460" yMax="577">
      <contour>
        <pt x="389" y="-172" on="1"/>
        <pt x="283" y="-172" on="0"/>
        <pt x="283" y="-94" on="1"/>
        <pt x="283" y="-67" on="0"/>
        <pt x="315" y="-25" on="0"/>
        <pt x="351" y="0" on="1"/>
        <pt x="59" y="0" on="1"/>
        <pt x="59" y="577" on="1"/>
        <pt x="452" y="577" on="1"/>
        <pt x="452" y="470" on="1"/>
        <pt x="191" y="470" on="1"/>
        <pt x="191" y="341" on="1"/>
        <pt x="424" y="341" on="1"/>
        <pt x="424" y="238" on="1"/>
        <pt x="191" y="238" on="1"/>
        <pt x="191" y="107" on="1"/>
        <pt x="460" y="107" on="1"/>
        <pt x="460" y="-5" on="1"/>
        <pt x="409" y="-24" on="0"/>
        <pt x="369" y="-66" on="0"/>
        <pt x="369" y="-80" on="1"/>
        <pt x="369" y="-97" on="0"/>
        <pt x="402" y="-97" on="1"/>
        <pt x="417" y="-97" on="0"/>
        <pt x="449" y="-91" on="0"/>
        <pt x="460" y="-88" on="1"/>
        <pt x="460" y="-162" on="1"/>
        <pt x="441" y="-167" on="0"/>
        <pt x="409" y="-172" on="0"/>
      </contour>
    </TTGlyph>
    <TTGlyph name="Eth" xMin="-2" yMin="-14" xMax="610" yMax="749">
      <contour>
        <pt x="-2" y="425" on="1"/>
        <pt x="82" y="425" on="1"/>
        <pt x="82" y="737" on="1"/>
        <pt x="142" y="744" on="0"/>
        <pt x="225" y="749" on="0"/>
        <pt x="261" y="749" on="1"/>
        <pt x="355" y="749" on="0"/>
        <pt x="488" y="707" on="0"/>
        <pt x="572" y="615" on="0"/>
        <pt x="610" y="471" on="0"/>
        <pt x="610" y="369" on="1"/>
        <pt x="610" y="266" on="0"/>
        <pt x="570" y="120" on="0"/>
        <pt x="482" y="28" on="0"/>
        <pt x="344" y="-14" on="0"/>
        <pt x="245" y="-14" on="1"/>
        <pt x="211" y="-14" on="0"/>
        <pt x="134" y="-9" on="0"/>
        <pt x="82" y="-4" on="1"/>
        <pt x="82" y="318" on="1"/>
        <pt x="-2" y="318" on="1"/>
      </contour>
      <contour>
        <pt x="291" y="101" on="1"/>
        <pt x="339" y="101" on="0"/>
        <pt x="406" y="128" on="0"/>
        <pt x="447" y="190" on="0"/>
        <pt x="466" y="293" on="0"/>
        <pt x="466" y="370" on="1"/>
        <pt x="466" y="445" on="0"/>
        <pt x="448" y="547" on="0"/>
        <pt x="405" y="609" on="0"/>
        <pt x="335" y="636" on="0"/>
        <pt x="284" y="636" on="1"/>
        <pt x="264" y="636" on="0"/>
        <pt x="233" y="633" on="0"/>
        <pt x="219" y="630" on="1"/>
        <pt x="219" y="425" on="1"/>
        <pt x="321" y="425" on="1"/>
        <pt x="321" y="318" on="1"/>
        <pt x="219" y="318" on="1"/>
        <pt x="219" y="106" on="1"/>
        <pt x="244" y="103" on="0"/>
        <pt x="277" y="101" on="0"/>
      </contour>
    </TTGlyph>
    <TTGlyph name="Eth.sc" xMin="3" yMin="-10" xMax="558" yMax="584">
      <contour>
        <pt x="3" y="341" on="1"/>
        <pt x="76" y="341" on="1"/>
        <pt x="76" y="577" on="1"/>
        <pt x="132" y="581" on="0"/>
        <pt x="209" y="584" on="0"/>
        <pt x="242" y="584" on="1"/>
        <pt x="327" y="584" on="0"/>
        <pt x="447" y="552" on="0"/>
        <pt x="523" y="481" on="0"/>
        <pt x="558" y="368" on="0"/>
        <pt x="558" y="288" on="1"/>
        <pt x="558" y="207" on="0"/>
        <pt x="522" y="94" on="0"/>
        <pt x="443" y="22" on="0"/>
        <pt x="317" y="-10" on="0"/>
        <pt x="228" y="-10" on="1"/>
        <pt x="196" y="-10" on="0"/>
        <pt x="124" y="-6" on="0"/>
        <pt x="76" y="-1" on="1"/>
        <pt x="76" y="241" on="1"/>
        <pt x="3" y="241" on="1"/>
      </contour>
      <contour>
        <pt x="273" y="97" on="1"/>
        <pt x="314" y="97" on="0"/>
        <pt x="371" y="115" on="0"/>
        <pt x="406" y="158" on="0"/>
        <pt x="422" y="232" on="0"/>
        <pt x="422" y="289" on="1"/>
        <pt x="422" y="345" on="0"/>
        <pt x="406" y="418" on="0"/>
        <pt x="370" y="462" on="0"/>
        <pt x="309" y="479" on="0"/>
        <pt x="264" y="479" on="1"/>
        <pt x="247" y="479" on="0"/>
        <pt x="220" y="477" on="0"/>
        <pt x="207" y="475" on="1"/>
        <pt x="207" y="341" on="1"/>
        <pt x="295" y="341" on="1"/>
        <pt x="295" y="241" on="1"/>
        <pt x="207" y="241" on="1"/>
        <pt x="207" y="101" on="1"/>
        <pt x="229" y="99" on="0"/>
        <pt x="259" y="97" on="0"/>
      </contour>
    </TTGlyph>
    <TTGlyph name="Etilde" xMin="61" yMin="0" xMax="502" yMax="943">
      <contour>
        <pt x="108" y="839" on="1"/>
        <pt x="134" y="889" on="0"/>
        <pt x="201" y="943" on="0"/>
        <pt x="234" y="943" on="1"/>
        <pt x="253" y="943" on="0"/>
        <pt x="290" y="930" on="0"/>
        <pt x="325" y="915" on="0"/>
        <pt x="360" y="903" on="0"/>
        <pt x="378" y="903" on="1"/>
        <pt x="396" y="903" on="0"/>
        <pt x="430" y="921" on="0"/>
        <pt x="448" y="942" on="1"/>
        <pt x="472" y="921" on="1"/>
        <pt x="448" y="868" on="0"/>
        <pt x="381" y="815" on="0"/>
        <pt x="347" y="815" on="1"/>
        <pt x="328" y="815" on="0"/>
        <pt x="292" y="827" on="0"/>
        <pt x="257" y="842" on="0"/>
        <pt x="222" y="854" on="0"/>
        <pt x="204" y="854" on="1"/>
        <pt x="166" y="854" on="0"/>
        <pt x="130" y="817" on="1"/>
      </contour>
      <contour>
        <pt x="61" y="740" on="1"/>
        <pt x="493" y="740" on="1"/>
        <pt x="493" y="622" on="1"/>
        <pt x="201" y="622" on="1"/>
        <pt x="201" y="431" on="1"/>
        <pt x="461" y="431" on="1"/>
        <pt x="461" y="313" on="1"/>
        <pt x="201" y="313" on="1"/>
        <pt x="201" y="118" on="1"/>
        <pt x="502" y="118" on="1"/>
        <pt x="502" y="0" on="1"/>
        <pt x="61" y="0" on="1"/>
      </contour>
    </TTGlyph>
    <TTGlyph name="Etilde.sc" xMin="58" yMin="0" xMax="459" yMax="746">
      <contour>
        <pt x="99" y="653" on="1"/>
        <pt x="123" y="699" on="0"/>
        <pt x="186" y="746" on="0"/>
        <pt x="216" y="746" on="1"/>
        <pt x="234" y="746" on="0"/>
        <pt x="266" y="737" on="0"/>
        <pt x="298" y="725" on="0"/>
        <pt x="331" y="716" on="0"/>
        <pt x="348" y="716" on="1"/>
        <pt x="365" y="716" on="0"/>
        <pt x="395" y="729" on="0"/>
        <pt x="412" y="746" on="1"/>
        <pt x="434" y="729" on="1"/>
        <pt x="411" y="681" on="0"/>
        <pt x="349" y="635" on="0"/>
        <pt x="318" y="635" on="1"/>
        <pt x="301" y="635" on="0"/>
        <pt x="268" y="644" on="0"/>
        <pt x="235" y="656" on="0"/>
        <pt x="203" y="665" on="0"/>
        <pt x="186" y="665" on="1"/>
        <pt x="169" y="665" on="0"/>
        <pt x="137" y="653" on="0"/>
        <pt x="119" y="636" on="1"/>
      </contour>
      <contour>
        <pt x="58" y="577" on="1"/>
        <pt x="452" y="577" on="1"/>
        <pt x="452" y="470" on="1"/>
        <pt x="190" y="470" on="1"/>
        <pt x="190" y="341" on="1"/>
        <pt x="424" y="341" on="1"/>
        <pt x="424" y="238" on="1"/>
        <pt x="190" y="238" on="1"/>
        <pt x="190" y="107" on="1"/>
        <pt x="459" y="107" on="1"/>
        <pt x="459" y="0" on="1"/>
        <pt x="58" y="0" on="1"/>
      </contour>
    </TTGlyph>
    <TTGlyph name="Euro" xMin="30" yMin="-10" xMax="531" yMax="750">
      <contour>
        <pt x="30" y="494" on="1"/>
        <pt x="110" y="494" on="1"/>
        <pt x="158" y="750" on="0"/>
        <pt x="424" y="750" on="1"/>
        <pt x="456" y="750" on="0"/>
        <pt x="509" y="742" on="0"/>
        <pt x="531" y="734" on="1"/>
        <pt x="506" y="626" on="1"/>
        <pt x="486" y="628" on="0"/>
        <pt x="456" y="630" on="0"/>
        <pt x="441" y="630" on="1"/>
        <pt x="399" y="630" on="0"/>
        <pt x="335" y="616" on="0"/>
        <pt x="289" y="584" on="0"/>
        <pt x="260" y="532" on="0"/>
        <pt x="252" y="494" on="1"/>
        <pt x="463" y="494" on="1"/>
        <pt x="443" y="414" on="1"/>
        <pt x="243" y="414" on="1"/>
        <pt x="242" y="403" on="0"/>
        <pt x="242" y="381" on="0"/>
        <pt x="242" y="369" on="1"/>
        <pt x="242" y="357" on="0"/>
        <pt x="242" y="336" on="0"/>
        <pt x="243" y="325" on="1"/>
        <pt x="431" y="325" on="1"/>
        <pt x="411" y="245" on="1"/>
        <pt x="252" y="245" on="1"/>
        <pt x="268" y="170" on="0"/>
        <pt x="356" y="108" on="0"/>
        <pt x="440" y="108" on="1"/>
        <pt x="462" y="108" on="0"/>
        <pt x="506" y="115" on="0"/>
        <pt x="526" y="120" on="1"/>
        <pt x="526" y="4" on="1"/>
        <pt x="484" y="-10" on="0"/>
        <pt x="423" y="-10" on="1"/>
        <pt x="159" y="-8" on="0"/>
        <pt x="111" y="245" on="1"/>
        <pt x="30" y="245" on="1"/>
        <pt x="30" y="325" on="1"/>
        <pt x="101" y="325" on="1"/>
        <pt x="100" y="336" on="0"/>
        <pt x="100" y="358" on="0"/>
        <pt x="100" y="370" on="1"/>
        <pt x="100" y="381" on="0"/>
        <pt x="100" y="403" on="0"/>
        <pt x="101" y="414" on="1"/>
        <pt x="30" y="414" on="1"/>
      </contour>
    </TTGlyph>
    <TTGlyph name="Euro.tab" xMin="27" yMin="-10" xMax="531" yMax="750">
      <contour>
        <pt x="27" y="494" on="1"/>
        <pt x="109" y="494" on="1"/>
        <pt x="157" y="750" on="0"/>
        <pt x="423" y="750" on="1"/>
        <pt x="456" y="750" on="0"/>
        <pt x="508" y="742" on="0"/>
        <pt x="531" y="734" on="1"/>
        <pt x="506" y="626" on="1"/>
        <pt x="486" y="628" on="0"/>
        <pt x="456" y="630" on="0"/>
        <pt x="440" y="630" on="1"/>
        <pt x="357" y="630" on="0"/>
        <pt x="268" y="569" on="0"/>
        <pt x="252" y="494" on="1"/>
        <pt x="462" y="494" on="1"/>
        <pt x="442" y="414" on="1"/>
        <pt x="240" y="414" on="1"/>
        <pt x="239" y="408" on="0"/>
        <pt x="239" y="375" on="0"/>
        <pt x="239" y="369" on="1"/>
        <pt x="239" y="363" on="0"/>
        <pt x="239" y="331" on="0"/>
        <pt x="240" y="325" on="1"/>
        <pt x="430" y="325" on="1"/>
        <pt x="410" y="245" on="1"/>
        <pt x="251" y="245" on="1"/>
        <pt x="268" y="171" on="0"/>
        <pt x="357" y="108" on="0"/>
        <pt x="440" y="108" on="1"/>
        <pt x="462" y="108" on="0"/>
        <pt x="506" y="115" on="0"/>
        <pt x="526" y="120" on="1"/>
        <pt x="526" y="4" on="1"/>
        <pt x="484" y="-10" on="0"/>
        <pt x="422" y="-10" on="1"/>
        <pt x="289" y="-9" on="0"/>
        <pt x="134" y="116" on="0"/>
        <pt x="109" y="245" on="1"/>
        <pt x="27" y="245" on="1"/>
        <pt x="27" y="325" on="1"/>
        <pt x="99" y="325" on="1"/>
        <pt x="97" y="336" on="0"/>
        <pt x="97" y="358" on="0"/>
        <pt x="97" y="370" on="1"/>
        <pt x="97" y="381" on="0"/>
        <pt x="98" y="403" on="0"/>
        <pt x="99" y="414" on="1"/>
        <pt x="27" y="414" on="1"/>
      </contour>
    </TTGlyph>
    <TTGlyph name="F" xMin="61" yMin="0" xMax="480" yMax="740">
      <contour>
        <pt x="61" y="740" on="1"/>
        <pt x="480" y="740" on="1"/>
        <pt x="480" y="622" on="1"/>
        <pt x="201" y="622" on="1"/>
        <pt x="201" y="418" on="1"/>
        <pt x="454" y="418" on="1"/>
        <pt x="454" y="300" on="1"/>
        <pt x="201" y="300" on="1"/>
        <pt x="201" y="0" on="1"/>
        <pt x="61" y="0" on="1"/>
      </contour>
    </TTGlyph>
    <TTGlyph name="F.sc" xMin="58" yMin="0" xMax="441" yMax="577">
      <contour>
        <pt x="58" y="577" on="1"/>
        <pt x="441" y="577" on="1"/>
        <pt x="441" y="467" on="1"/>
        <pt x="190" y="467" on="1"/>
        <pt x="190" y="331" on="1"/>
        <pt x="417" y="331" on="1"/>
        <pt x="417" y="221" on="1"/>
        <pt x="190" y="221" on="1"/>
        <pt x="190" y="0" on="1"/>
        <pt x="58" y="0" on="1"/>
      </contour>
    </TTGlyph>
    <TTGlyph name="F_B.sc" xMin="59" yMin="-8" xMax="965" yMax="585">
      <contour>
        <pt x="59" y="577" on="1"/>
        <pt x="442" y="577" on="1"/>
        <pt x="442" y="467" on="1"/>
        <pt x="191" y="467" on="1"/>
        <pt x="191" y="331" on="1"/>
        <pt x="418" y="331" on="1"/>
        <pt x="418" y="221" on="1"/>
        <pt x="191" y="221" on="1"/>
        <pt x="191" y="0" on="1"/>
        <pt x="59" y="0" on="1"/>
      </contour>
      <contour>
        <pt x="695" y="-8" on="1"/>
        <pt x="652" y="-8" on="0"/>
        <pt x="557" y="-2" on="0"/>
        <pt x="518" y="4" on="1"/>
        <pt x="518" y="573" on="1"/>
        <pt x="576" y="579" on="0"/>
        <pt x="660" y="585" on="0"/>
        <pt x="698" y="585" on="1"/>
        <pt x="828" y="585" on="0"/>
        <pt x="947" y="506" on="0"/>
        <pt x="947" y="421" on="1"/>
        <pt x="947" y="321" on="0"/>
        <pt x="849" y="298" on="1"/>
        <pt x="849" y="295" on="1"/>
        <pt x="906" y="284" on="0"/>
        <pt x="965" y="215" on="0"/>
        <pt x="965" y="158" on="1"/>
        <pt x="965" y="-8" on="0"/>
      </contour>
      <contour>
        <pt x="717" y="91" on="1"/>
        <pt x="776" y="91" on="0"/>
        <pt x="837" y="129" on="0"/>
        <pt x="837" y="167" on="1"/>
        <pt x="837" y="210" on="0"/>
        <pt x="780" y="245" on="0"/>
        <pt x="711" y="245" on="1"/>
        <pt x="640" y="245" on="1"/>
        <pt x="640" y="94" on="1"/>
        <pt x="650" y="92" on="0"/>
        <pt x="691" y="91" on="0"/>
      </contour>
      <contour>
        <pt x="709" y="335" on="1"/>
        <pt x="769" y="335" on="0"/>
        <pt x="816" y="369" on="0"/>
        <pt x="816" y="413" on="1"/>
        <pt x="816" y="451" on="0"/>
        <pt x="767" y="486" on="0"/>
        <pt x="714" y="486" on="1"/>
        <pt x="697" y="486" on="0"/>
        <pt x="660" y="484" on="0"/>
        <pt x="640" y="482" on="1"/>
        <pt x="640" y="335" on="1"/>
      </contour>
    </TTGlyph>
    <TTGlyph name="F_F.sc" xMin="58" yMin="0" xMax="900" yMax="577">
      <contour>
        <pt x="58" y="577" on="1"/>
        <pt x="441" y="577" on="1"/>
        <pt x="441" y="467" on="1"/>
        <pt x="190" y="467" on="1"/>
        <pt x="190" y="331" on="1"/>
        <pt x="417" y="331" on="1"/>
        <pt x="417" y="221" on="1"/>
        <pt x="190" y="221" on="1"/>
        <pt x="190" y="0" on="1"/>
        <pt x="58" y="0" on="1"/>
      </contour>
      <contour>
        <pt x="517" y="577" on="1"/>
        <pt x="900" y="577" on="1"/>
        <pt x="900" y="467" on="1"/>
        <pt x="649" y="467" on="1"/>
        <pt x="649" y="331" on="1"/>
        <pt x="876" y="331" on="1"/>
        <pt x="876" y="221" on="1"/>
        <pt x="649" y="221" on="1"/>
        <pt x="649" y="0" on="1"/>
        <pt x="517" y="0" on="1"/>
      </contour>
    </TTGlyph>
    <TTGlyph name="F_F_B.sc" xMin="59" yMin="-8" xMax="1424" yMax="585">
      <contour>
        <pt x="59" y="577" on="1"/>
        <pt x="442" y="577" on="1"/>
        <pt x="442" y="467" on="1"/>
        <pt x="191" y="467" on="1"/>
        <pt x="191" y="331" on="1"/>
        <pt x="418" y="331" on="1"/>
        <pt x="418" y="221" on="1"/>
        <pt x="191" y="221" on="1"/>
        <pt x="191" y="0" on="1"/>
        <pt x="59" y="0" on="1"/>
      </contour>
      <contour>
        <pt x="517" y="577" on="1"/>
        <pt x="900" y="577" on="1"/>
        <pt x="900" y="467" on="1"/>
        <pt x="649" y="467" on="1"/>
        <pt x="649" y="331" on="1"/>
        <pt x="876" y="331" on="1"/>
        <pt x="876" y="221" on="1"/>
        <pt x="649" y="221" on="1"/>
        <pt x="649" y="0" on="1"/>
        <pt x="517" y="0" on="1"/>
      </contour>
      <contour>
        <pt x="1154" y="-8" on="1"/>
        <pt x="1111" y="-8" on="0"/>
        <pt x="1016" y="-2" on="0"/>
        <pt x="977" y="4" on="1"/>
        <pt x="977" y="573" on="1"/>
        <pt x="1035" y="579" on="0"/>
        <pt x="1119" y="585" on="0"/>
        <pt x="1157" y="585" on="1"/>
        <pt x="1287" y="585" on="0"/>
        <pt x="1406" y="506" on="0"/>
        <pt x="1406" y="421" on="1"/>
        <pt x="1406" y="321" on="0"/>
        <pt x="1308" y="298" on="1"/>
        <pt x="1308" y="295" on="1"/>
        <pt x="1365" y="284" on="0"/>
        <pt x="1424" y="215" on="0"/>
        <pt x="1424" y="158" on="1"/>
        <pt x="1424" y="-8" on="0"/>
      </contour>
      <contour>
        <pt x="1176" y="91" on="1"/>
        <pt x="1235" y="91" on="0"/>
        <pt x="1296" y="129" on="0"/>
        <pt x="1296" y="167" on="1"/>
        <pt x="1296" y="210" on="0"/>
        <pt x="1239" y="245" on="0"/>
        <pt x="1170" y="245" on="1"/>
        <pt x="1099" y="245" on="1"/>
        <pt x="1099" y="94" on="1"/>
        <pt x="1109" y="92" on="0"/>
        <pt x="1150" y="91" on="0"/>
      </contour>
      <contour>
        <pt x="1168" y="335" on="1"/>
        <pt x="1228" y="335" on="0"/>
        <pt x="1275" y="369" on="0"/>
        <pt x="1275" y="413" on="1"/>
        <pt x="1275" y="451" on="0"/>
        <pt x="1226" y="486" on="0"/>
        <pt x="1173" y="486" on="1"/>
        <pt x="1156" y="486" on="0"/>
        <pt x="1119" y="484" on="0"/>
        <pt x="1099" y="482" on="1"/>
        <pt x="1099" y="335" on="1"/>
      </contour>
    </TTGlyph>
    <TTGlyph name="F_F_H.sc" xMin="58" yMin="0" xMax="1467" yMax="577">
      <contour>
        <pt x="58" y="577" on="1"/>
        <pt x="441" y="577" on="1"/>
        <pt x="441" y="467" on="1"/>
        <pt x="190" y="467" on="1"/>
        <pt x="190" y="331" on="1"/>
        <pt x="417" y="331" on="1"/>
        <pt x="417" y="221" on="1"/>
        <pt x="190" y="221" on="1"/>
        <pt x="190" y="0" on="1"/>
        <pt x="58" y="0" on="1"/>
      </contour>
      <contour>
        <pt x="517" y="577" on="1"/>
        <pt x="900" y="577" on="1"/>
        <pt x="900" y="467" on="1"/>
        <pt x="649" y="467" on="1"/>
        <pt x="649" y="331" on="1"/>
        <pt x="876" y="331" on="1"/>
        <pt x="876" y="221" on="1"/>
        <pt x="649" y="221" on="1"/>
        <pt x="649" y="0" on="1"/>
        <pt x="517" y="0" on="1"/>
      </contour>
      <contour>
        <pt x="976" y="577" on="1"/>
        <pt x="1108" y="577" on="1"/>
        <pt x="1108" y="350" on="1"/>
        <pt x="1334" y="350" on="1"/>
        <pt x="1334" y="577" on="1"/>
        <pt x="1467" y="577" on="1"/>
        <pt x="1467" y="0" on="1"/>
        <pt x="1334" y="0" on="1"/>
        <pt x="1334" y="240" on="1"/>
        <pt x="1108" y="240" on="1"/>
        <pt x="1108" y="0" on="1"/>
        <pt x="976" y="0" on="1"/>
      </contour>
    </TTGlyph>
    <TTGlyph name="F_F_I.sc" xMin="58" yMin="0" xMax="1108" yMax="577">
      <contour>
        <pt x="58" y="577" on="1"/>
        <pt x="441" y="577" on="1"/>
        <pt x="441" y="467" on="1"/>
        <pt x="190" y="467" on="1"/>
        <pt x="190" y="331" on="1"/>
        <pt x="417" y="331" on="1"/>
        <pt x="417" y="221" on="1"/>
        <pt x="190" y="221" on="1"/>
        <pt x="190" y="0" on="1"/>
        <pt x="58" y="0" on="1"/>
      </contour>
      <contour>
        <pt x="517" y="577" on="1"/>
        <pt x="900" y="577" on="1"/>
        <pt x="900" y="467" on="1"/>
        <pt x="649" y="467" on="1"/>
        <pt x="649" y="331" on="1"/>
        <pt x="876" y="331" on="1"/>
        <pt x="876" y="221" on="1"/>
        <pt x="649" y="221" on="1"/>
        <pt x="649" y="0" on="1"/>
        <pt x="517" y="0" on="1"/>
      </contour>
      <contour>
        <pt x="976" y="577" on="1"/>
        <pt x="1108" y="577" on="1"/>
        <pt x="1108" y="0" on="1"/>
        <pt x="976" y="0" on="1"/>
      </contour>
    </TTGlyph>
    <TTGlyph name="F_F_J.sc" xMin="59" yMin="-162" xMax="1120" yMax="577">
      <contour>
        <pt x="59" y="577" on="1"/>
        <pt x="442" y="577" on="1"/>
        <pt x="442" y="467" on="1"/>
        <pt x="191" y="467" on="1"/>
        <pt x="191" y="331" on="1"/>
        <pt x="418" y="331" on="1"/>
        <pt x="418" y="221" on="1"/>
        <pt x="191" y="221" on="1"/>
        <pt x="191" y="0" on="1"/>
        <pt x="59" y="0" on="1"/>
      </contour>
      <contour>
        <pt x="517" y="577" on="1"/>
        <pt x="900" y="577" on="1"/>
        <pt x="900" y="467" on="1"/>
        <pt x="649" y="467" on="1"/>
        <pt x="649" y="331" on="1"/>
        <pt x="876" y="331" on="1"/>
        <pt x="876" y="221" on="1"/>
        <pt x="649" y="221" on="1"/>
        <pt x="649" y="0" on="1"/>
        <pt x="517" y="0" on="1"/>
      </contour>
      <contour>
        <pt x="919" y="-125" on="1"/>
        <pt x="939" y="-86" on="0"/>
        <pt x="965" y="-20" on="0"/>
        <pt x="981" y="44" on="0"/>
        <pt x="987" y="111" on="0"/>
        <pt x="987" y="152" on="1"/>
        <pt x="987" y="577" on="1"/>
        <pt x="1120" y="577" on="1"/>
        <pt x="1120" y="141" on="1"/>
        <pt x="1120" y="100" on="0"/>
        <pt x="1108" y="28" on="0"/>
        <pt x="1080" y="-44" on="0"/>
        <pt x="1035" y="-119" on="0"/>
        <pt x="1003" y="-162" on="1"/>
      </contour>
    </TTGlyph>
    <TTGlyph name="F_F_K.sc" xMin="58" yMin="0" xMax="1475" yMax="577">
      <contour>
        <pt x="58" y="577" on="1"/>
        <pt x="441" y="577" on="1"/>
        <pt x="441" y="467" on="1"/>
        <pt x="190" y="467" on="1"/>
        <pt x="190" y="331" on="1"/>
        <pt x="417" y="331" on="1"/>
        <pt x="417" y="221" on="1"/>
        <pt x="190" y="221" on="1"/>
        <pt x="190" y="0" on="1"/>
        <pt x="58" y="0" on="1"/>
      </contour>
      <contour>
        <pt x="517" y="577" on="1"/>
        <pt x="900" y="577" on="1"/>
        <pt x="900" y="467" on="1"/>
        <pt x="649" y="467" on="1"/>
        <pt x="649" y="331" on="1"/>
        <pt x="876" y="331" on="1"/>
        <pt x="876" y="221" on="1"/>
        <pt x="649" y="221" on="1"/>
        <pt x="649" y="0" on="1"/>
        <pt x="517" y="0" on="1"/>
      </contour>
      <contour>
        <pt x="976" y="577" on="1"/>
        <pt x="1108" y="577" on="1"/>
        <pt x="1108" y="350" on="1"/>
        <pt x="1177" y="350" on="1"/>
        <pt x="1310" y="577" on="1"/>
        <pt x="1457" y="577" on="1"/>
        <pt x="1304" y="319" on="1"/>
        <pt x="1252" y="297" on="1"/>
        <pt x="1252" y="291" on="1"/>
        <pt x="1305" y="270" on="1"/>
        <pt x="1475" y="0" on="1"/>
        <pt x="1328" y="0" on="1"/>
        <pt x="1174" y="239" on="1"/>
        <pt x="1108" y="239" on="1"/>
        <pt x="1108" y="0" on="1"/>
        <pt x="976" y="0" on="1"/>
      </contour>
    </TTGlyph>
    <TTGlyph name="F_F_L.sc" xMin="58" yMin="0" xMax="1320" yMax="577">
      <contour>
        <pt x="976" y="577" on="1"/>
        <pt x="1108" y="577" on="1"/>
        <pt x="1108" y="110" on="1"/>
        <pt x="1320" y="110" on="1"/>
        <pt x="1320" y="0" on="1"/>
        <pt x="976" y="0" on="1"/>
      </contour>
      <contour>
        <pt x="58" y="577" on="1"/>
        <pt x="441" y="577" on="1"/>
        <pt x="441" y="467" on="1"/>
        <pt x="190" y="467" on="1"/>
        <pt x="190" y="331" on="1"/>
        <pt x="417" y="331" on="1"/>
        <pt x="417" y="221" on="1"/>
        <pt x="190" y="221" on="1"/>
        <pt x="190" y="0" on="1"/>
        <pt x="58" y="0" on="1"/>
      </contour>
      <contour>
        <pt x="517" y="577" on="1"/>
        <pt x="900" y="577" on="1"/>
        <pt x="900" y="467" on="1"/>
        <pt x="649" y="467" on="1"/>
        <pt x="649" y="331" on="1"/>
        <pt x="876" y="331" on="1"/>
        <pt x="876" y="221" on="1"/>
        <pt x="649" y="221" on="1"/>
        <pt x="649" y="0" on="1"/>
        <pt x="517" y="0" on="1"/>
      </contour>
    </TTGlyph>
    <TTGlyph name="F_F_T.sc" xMin="58" yMin="0" xMax="1355" yMax="577">
      <contour>
        <pt x="1067" y="465" on="1"/>
        <pt x="912" y="465" on="1"/>
        <pt x="912" y="577" on="1"/>
        <pt x="1355" y="577" on="1"/>
        <pt x="1355" y="465" on="1"/>
        <pt x="1199" y="465" on="1"/>
        <pt x="1199" y="0" on="1"/>
        <pt x="1067" y="0" on="1"/>
      </contour>
      <contour>
        <pt x="58" y="577" on="1"/>
        <pt x="441" y="577" on="1"/>
        <pt x="441" y="467" on="1"/>
        <pt x="190" y="467" on="1"/>
        <pt x="190" y="331" on="1"/>
        <pt x="417" y="331" on="1"/>
        <pt x="417" y="221" on="1"/>
        <pt x="190" y="221" on="1"/>
        <pt x="190" y="0" on="1"/>
        <pt x="58" y="0" on="1"/>
      </contour>
      <contour>
        <pt x="517" y="577" on="1"/>
        <pt x="900" y="577" on="1"/>
        <pt x="900" y="467" on="1"/>
        <pt x="649" y="467" on="1"/>
        <pt x="649" y="331" on="1"/>
        <pt x="876" y="331" on="1"/>
        <pt x="876" y="221" on="1"/>
        <pt x="649" y="221" on="1"/>
        <pt x="649" y="0" on="1"/>
        <pt x="517" y="0" on="1"/>
      </contour>
    </TTGlyph>
    <TTGlyph name="F_H.sc" xMin="58" yMin="0" xMax="1008" yMax="577">
      <contour>
        <pt x="58" y="577" on="1"/>
        <pt x="441" y="577" on="1"/>
        <pt x="441" y="467" on="1"/>
        <pt x="190" y="467" on="1"/>
        <pt x="190" y="331" on="1"/>
        <pt x="417" y="331" on="1"/>
        <pt x="417" y="221" on="1"/>
        <pt x="190" y="221" on="1"/>
        <pt x="190" y="0" on="1"/>
        <pt x="58" y="0" on="1"/>
      </contour>
      <contour>
        <pt x="517" y="577" on="1"/>
        <pt x="649" y="577" on="1"/>
        <pt x="649" y="350" on="1"/>
        <pt x="875" y="350" on="1"/>
        <pt x="875" y="577" on="1"/>
        <pt x="1008" y="577" on="1"/>
        <pt x="1008" y="0" on="1"/>
        <pt x="875" y="0" on="1"/>
        <pt x="875" y="240" on="1"/>
        <pt x="649" y="240" on="1"/>
        <pt x="649" y="0" on="1"/>
        <pt x="517" y="0" on="1"/>
      </contour>
    </TTGlyph>
    <TTGlyph name="F_I.sc" xMin="58" yMin="0" xMax="649" yMax="577">
      <contour>
        <pt x="58" y="577" on="1"/>
        <pt x="441" y="577" on="1"/>
        <pt x="441" y="467" on="1"/>
        <pt x="190" y="467" on="1"/>
        <pt x="190" y="331" on="1"/>
        <pt x="417" y="331" on="1"/>
        <pt x="417" y="221" on="1"/>
        <pt x="190" y="221" on="1"/>
        <pt x="190" y="0" on="1"/>
        <pt x="58" y="0" on="1"/>
      </contour>
      <contour>
        <pt x="517" y="577" on="1"/>
        <pt x="649" y="577" on="1"/>
        <pt x="649" y="0" on="1"/>
        <pt x="517" y="0" on="1"/>
      </contour>
    </TTGlyph>
    <TTGlyph name="F_J.sc" xMin="59" yMin="-162" xMax="661" yMax="577">
      <contour>
        <pt x="59" y="577" on="1"/>
        <pt x="442" y="577" on="1"/>
        <pt x="442" y="467" on="1"/>
        <pt x="191" y="467" on="1"/>
        <pt x="191" y="331" on="1"/>
        <pt x="418" y="331" on="1"/>
        <pt x="418" y="221" on="1"/>
        <pt x="191" y="221" on="1"/>
        <pt x="191" y="0" on="1"/>
        <pt x="59" y="0" on="1"/>
      </contour>
      <contour>
        <pt x="460" y="-125" on="1"/>
        <pt x="480" y="-86" on="0"/>
        <pt x="506" y="-20" on="0"/>
        <pt x="522" y="44" on="0"/>
        <pt x="528" y="111" on="0"/>
        <pt x="528" y="152" on="1"/>
        <pt x="528" y="577" on="1"/>
        <pt x="661" y="577" on="1"/>
        <pt x="661" y="141" on="1"/>
        <pt x="661" y="100" on="0"/>
        <pt x="649" y="28" on="0"/>
        <pt x="621" y="-44" on="0"/>
        <pt x="576" y="-119" on="0"/>
        <pt x="544" y="-162" on="1"/>
      </contour>
    </TTGlyph>
    <TTGlyph name="F_K.sc" xMin="58" yMin="0" xMax="1016" yMax="577">
      <contour>
        <pt x="58" y="577" on="1"/>
        <pt x="441" y="577" on="1"/>
        <pt x="441" y="467" on="1"/>
        <pt x="190" y="467" on="1"/>
        <pt x="190" y="331" on="1"/>
        <pt x="417" y="331" on="1"/>
        <pt x="417" y="221" on="1"/>
        <pt x="190" y="221" on="1"/>
        <pt x="190" y="0" on="1"/>
        <pt x="58" y="0" on="1"/>
      </contour>
      <contour>
        <pt x="517" y="577" on="1"/>
        <pt x="649" y="577" on="1"/>
        <pt x="649" y="350" on="1"/>
        <pt x="718" y="350" on="1"/>
        <pt x="851" y="577" on="1"/>
        <pt x="998" y="577" on="1"/>
        <pt x="845" y="319" on="1"/>
        <pt x="793" y="297" on="1"/>
        <pt x="793" y="291" on="1"/>
        <pt x="846" y="270" on="1"/>
        <pt x="1016" y="0" on="1"/>
        <pt x="869" y="0" on="1"/>
        <pt x="715" y="239" on="1"/>
        <pt x="649" y="239" on="1"/>
        <pt x="649" y="0" on="1"/>
        <pt x="517" y="0" on="1"/>
      </contour>
    </TTGlyph>
    <TTGlyph name="F_L.sc" xMin="58" yMin="0" xMax="861" yMax="577">
      <contour>
        <pt x="517" y="577" on="1"/>
        <pt x="649" y="577" on="1"/>
        <pt x="649" y="110" on="1"/>
        <pt x="861" y="110" on="1"/>
        <pt x="861" y="0" on="1"/>
        <pt x="517" y="0" on="1"/>
      </contour>
      <contour>
        <pt x="58" y="577" on="1"/>
        <pt x="441" y="577" on="1"/>
        <pt x="441" y="467" on="1"/>
        <pt x="190" y="467" on="1"/>
        <pt x="190" y="331" on="1"/>
        <pt x="417" y="331" on="1"/>
        <pt x="417" y="221" on="1"/>
        <pt x="190" y="221" on="1"/>
        <pt x="190" y="0" on="1"/>
        <pt x="58" y="0" on="1"/>
      </contour>
    </TTGlyph>
    <TTGlyph name="F_T.sc" xMin="58" yMin="0" xMax="896" yMax="577">
      <contour>
        <pt x="608" y="465" on="1"/>
        <pt x="453" y="465" on="1"/>
        <pt x="453" y="577" on="1"/>
        <pt x="896" y="577" on="1"/>
        <pt x="896" y="465" on="1"/>
        <pt x="740" y="465" on="1"/>
        <pt x="740" y="0" on="1"/>
        <pt x="608" y="0" on="1"/>
      </contour>
      <contour>
        <pt x="58" y="577" on="1"/>
        <pt x="441" y="577" on="1"/>
        <pt x="441" y="467" on="1"/>
        <pt x="190" y="467" on="1"/>
        <pt x="190" y="331" on="1"/>
        <pt x="417" y="331" on="1"/>
        <pt x="417" y="221" on="1"/>
        <pt x="190" y="221" on="1"/>
        <pt x="190" y="0" on="1"/>
        <pt x="58" y="0" on="1"/>
      </contour>
    </TTGlyph>
    <TTGlyph name="G" xMin="33" yMin="-9" xMax="534" yMax="749">
      <contour>
        <pt x="338" y="-9" on="1"/>
        <pt x="181" y="-9" on="0"/>
        <pt x="33" y="176" on="0"/>
        <pt x="33" y="370" on="1"/>
        <pt x="33" y="563" on="0"/>
        <pt x="198" y="749" on="0"/>
        <pt x="369" y="749" on="1"/>
        <pt x="403" y="749" on="0"/>
        <pt x="484" y="739" on="0"/>
        <pt x="526" y="729" on="1"/>
        <pt x="526" y="616" on="1"/>
        <pt x="481" y="624" on="0"/>
        <pt x="412" y="633" on="0"/>
        <pt x="383" y="633" on="1"/>
        <pt x="326" y="633" on="0"/>
        <pt x="247" y="606" on="0"/>
        <pt x="198" y="544" on="0"/>
        <pt x="177" y="443" on="0"/>
        <pt x="177" y="369" on="1"/>
        <pt x="177" y="295" on="0"/>
        <pt x="196" y="195" on="0"/>
        <pt x="238" y="134" on="0"/>
        <pt x="306" y="107" on="0"/>
        <pt x="356" y="107" on="1"/>
        <pt x="368" y="107" on="0"/>
        <pt x="393" y="108" on="0"/>
        <pt x="407" y="109" on="1"/>
        <pt x="407" y="376" on="1"/>
        <pt x="534" y="376" on="1"/>
        <pt x="534" y="7" on="1"/>
        <pt x="468" y="-2" on="0"/>
        <pt x="379" y="-9" on="0"/>
      </contour>
    </TTGlyph>
    <TTGlyph name="G.sc" xMin="33" yMin="-7" xMax="486" yMax="585">
      <contour>
        <pt x="306" y="-7" on="1"/>
        <pt x="166" y="-7" on="0"/>
        <pt x="33" y="139" on="0"/>
        <pt x="33" y="289" on="1"/>
        <pt x="33" y="438" on="0"/>
        <pt x="181" y="585" on="0"/>
        <pt x="335" y="585" on="1"/>
        <pt x="367" y="585" on="0"/>
        <pt x="441" y="576" on="0"/>
        <pt x="479" y="567" on="1"/>
        <pt x="479" y="462" on="1"/>
        <pt x="437" y="470" on="0"/>
        <pt x="375" y="476" on="0"/>
        <pt x="349" y="476" on="1"/>
        <pt x="298" y="476" on="0"/>
        <pt x="229" y="457" on="0"/>
        <pt x="187" y="413" on="0"/>
        <pt x="169" y="341" on="0"/>
        <pt x="169" y="288" on="1"/>
        <pt x="169" y="234" on="0"/>
        <pt x="184" y="163" on="0"/>
        <pt x="220" y="120" on="0"/>
        <pt x="279" y="102" on="0"/>
        <pt x="323" y="102" on="1"/>
        <pt x="325" y="102" on="0"/>
        <pt x="336" y="102" on="0"/>
        <pt x="350" y="102" on="0"/>
        <pt x="363" y="103" on="0"/>
        <pt x="367" y="104" on="1"/>
        <pt x="367" y="293" on="1"/>
        <pt x="486" y="293" on="1"/>
        <pt x="486" y="8" on="1"/>
        <pt x="427" y="0" on="0"/>
        <pt x="344" y="-7" on="0"/>
      </contour>
    </TTGlyph>
    <TTGlyph name="Gacute" xMin="33" yMin="-9" xMax="534" yMax="961">
      <contour>
        <pt x="274" y="796" on="1"/>
        <pt x="343" y="961" on="1"/>
        <pt x="484" y="961" on="1"/>
        <pt x="374" y="788" on="1"/>
      </contour>
      <contour>
        <pt x="338" y="-9" on="1"/>
        <pt x="181" y="-9" on="0"/>
        <pt x="33" y="176" on="0"/>
        <pt x="33" y="370" on="1"/>
        <pt x="33" y="563" on="0"/>
        <pt x="198" y="749" on="0"/>
        <pt x="369" y="749" on="1"/>
        <pt x="403" y="749" on="0"/>
        <pt x="484" y="739" on="0"/>
        <pt x="526" y="729" on="1"/>
        <pt x="526" y="616" on="1"/>
        <pt x="481" y="624" on="0"/>
        <pt x="412" y="633" on="0"/>
        <pt x="383" y="633" on="1"/>
        <pt x="326" y="633" on="0"/>
        <pt x="247" y="606" on="0"/>
        <pt x="198" y="544" on="0"/>
        <pt x="177" y="443" on="0"/>
        <pt x="177" y="369" on="1"/>
        <pt x="177" y="295" on="0"/>
        <pt x="196" y="195" on="0"/>
        <pt x="238" y="134" on="0"/>
        <pt x="306" y="107" on="0"/>
        <pt x="356" y="107" on="1"/>
        <pt x="368" y="107" on="0"/>
        <pt x="393" y="108" on="0"/>
        <pt x="407" y="109" on="1"/>
        <pt x="407" y="376" on="1"/>
        <pt x="534" y="376" on="1"/>
        <pt x="534" y="7" on="1"/>
        <pt x="468" y="-2" on="0"/>
        <pt x="379" y="-9" on="0"/>
      </contour>
    </TTGlyph>
    <TTGlyph name="Gacute.sc" xMin="33" yMin="-7" xMax="486" yMax="762">
      <contour>
        <pt x="306" y="-7" on="1"/>
        <pt x="166" y="-7" on="0"/>
        <pt x="33" y="139" on="0"/>
        <pt x="33" y="289" on="1"/>
        <pt x="33" y="438" on="0"/>
        <pt x="181" y="585" on="0"/>
        <pt x="335" y="585" on="1"/>
        <pt x="367" y="585" on="0"/>
        <pt x="441" y="576" on="0"/>
        <pt x="479" y="567" on="1"/>
        <pt x="479" y="462" on="1"/>
        <pt x="437" y="470" on="0"/>
        <pt x="375" y="476" on="0"/>
        <pt x="349" y="476" on="1"/>
        <pt x="298" y="476" on="0"/>
        <pt x="229" y="457" on="0"/>
        <pt x="187" y="413" on="0"/>
        <pt x="169" y="341" on="0"/>
        <pt x="169" y="288" on="1"/>
        <pt x="169" y="234" on="0"/>
        <pt x="184" y="163" on="0"/>
        <pt x="220" y="120" on="0"/>
        <pt x="279" y="102" on="0"/>
        <pt x="323" y="102" on="1"/>
        <pt x="325" y="102" on="0"/>
        <pt x="336" y="102" on="0"/>
        <pt x="350" y="102" on="0"/>
        <pt x="363" y="103" on="0"/>
        <pt x="367" y="104" on="1"/>
        <pt x="367" y="293" on="1"/>
        <pt x="486" y="293" on="1"/>
        <pt x="486" y="8" on="1"/>
        <pt x="427" y="0" on="0"/>
        <pt x="344" y="-7" on="0"/>
      </contour>
      <contour>
        <pt x="247" y="623" on="1"/>
        <pt x="307" y="762" on="1"/>
        <pt x="439" y="762" on="1"/>
        <pt x="340" y="617" on="1"/>
      </contour>
    </TTGlyph>
    <TTGlyph name="Gbreve" xMin="33" yMin="-9" xMax="534" yMax="966">
      <contour>
        <pt x="332" y="799" on="1"/>
        <pt x="248" y="799" on="0"/>
        <pt x="161" y="888" on="0"/>
        <pt x="161" y="966" on="1"/>
        <pt x="256" y="966" on="1"/>
        <pt x="256" y="913" on="0"/>
        <pt x="290" y="867" on="0"/>
        <pt x="332" y="867" on="1"/>
        <pt x="372" y="867" on="0"/>
        <pt x="406" y="913" on="0"/>
        <pt x="406" y="966" on="1"/>
        <pt x="502" y="966" on="1"/>
        <pt x="502" y="888" on="0"/>
        <pt x="414" y="799" on="0"/>
      </contour>
      <contour>
        <pt x="338" y="-9" on="1"/>
        <pt x="181" y="-9" on="0"/>
        <pt x="33" y="176" on="0"/>
        <pt x="33" y="370" on="1"/>
        <pt x="33" y="563" on="0"/>
        <pt x="198" y="749" on="0"/>
        <pt x="369" y="749" on="1"/>
        <pt x="403" y="749" on="0"/>
        <pt x="484" y="739" on="0"/>
        <pt x="526" y="729" on="1"/>
        <pt x="526" y="616" on="1"/>
        <pt x="481" y="624" on="0"/>
        <pt x="412" y="633" on="0"/>
        <pt x="383" y="633" on="1"/>
        <pt x="326" y="633" on="0"/>
        <pt x="247" y="606" on="0"/>
        <pt x="198" y="544" on="0"/>
        <pt x="177" y="443" on="0"/>
        <pt x="177" y="369" on="1"/>
        <pt x="177" y="295" on="0"/>
        <pt x="196" y="195" on="0"/>
        <pt x="238" y="134" on="0"/>
        <pt x="306" y="107" on="0"/>
        <pt x="356" y="107" on="1"/>
        <pt x="368" y="107" on="0"/>
        <pt x="393" y="108" on="0"/>
        <pt x="407" y="109" on="1"/>
        <pt x="407" y="376" on="1"/>
        <pt x="534" y="376" on="1"/>
        <pt x="534" y="7" on="1"/>
        <pt x="468" y="-2" on="0"/>
        <pt x="379" y="-9" on="0"/>
      </contour>
    </TTGlyph>
    <TTGlyph name="Gbreve.sc" xMin="33" yMin="-7" xMax="486" yMax="759">
      <contour>
        <pt x="306" y="-7" on="1"/>
        <pt x="166" y="-7" on="0"/>
        <pt x="33" y="139" on="0"/>
        <pt x="33" y="289" on="1"/>
        <pt x="33" y="438" on="0"/>
        <pt x="181" y="585" on="0"/>
        <pt x="335" y="585" on="1"/>
        <pt x="367" y="585" on="0"/>
        <pt x="441" y="576" on="0"/>
        <pt x="479" y="567" on="1"/>
        <pt x="479" y="462" on="1"/>
        <pt x="437" y="470" on="0"/>
        <pt x="375" y="476" on="0"/>
        <pt x="349" y="476" on="1"/>
        <pt x="298" y="476" on="0"/>
        <pt x="229" y="457" on="0"/>
        <pt x="187" y="413" on="0"/>
        <pt x="169" y="341" on="0"/>
        <pt x="169" y="288" on="1"/>
        <pt x="169" y="234" on="0"/>
        <pt x="184" y="163" on="0"/>
        <pt x="220" y="120" on="0"/>
        <pt x="279" y="102" on="0"/>
        <pt x="323" y="102" on="1"/>
        <pt x="325" y="102" on="0"/>
        <pt x="336" y="102" on="0"/>
        <pt x="350" y="102" on="0"/>
        <pt x="363" y="103" on="0"/>
        <pt x="367" y="104" on="1"/>
        <pt x="367" y="293" on="1"/>
        <pt x="486" y="293" on="1"/>
        <pt x="486" y="8" on="1"/>
        <pt x="427" y="0" on="0"/>
        <pt x="344" y="-7" on="0"/>
      </contour>
      <contour>
        <pt x="300" y="620" on="1"/>
        <pt x="223" y="620" on="0"/>
        <pt x="144" y="694" on="0"/>
        <pt x="144" y="759" on="1"/>
        <pt x="233" y="759" on="1"/>
        <pt x="233" y="716" on="0"/>
        <pt x="263" y="681" on="0"/>
        <pt x="300" y="681" on="1"/>
        <pt x="336" y="681" on="0"/>
        <pt x="366" y="716" on="0"/>
        <pt x="366" y="759" on="1"/>
        <pt x="457" y="759" on="1"/>
        <pt x="457" y="694" on="0"/>
        <pt x="377" y="620" on="0"/>
      </contour>
    </TTGlyph>
    <TTGlyph name="Gcircumflex" xMin="33" yMin="-9" xMax="534" yMax="964">
      <contour>
        <pt x="338" y="-9" on="1"/>
        <pt x="181" y="-9" on="0"/>
        <pt x="33" y="176" on="0"/>
        <pt x="33" y="370" on="1"/>
        <pt x="33" y="563" on="0"/>
        <pt x="198" y="749" on="0"/>
        <pt x="369" y="749" on="1"/>
        <pt x="403" y="749" on="0"/>
        <pt x="484" y="739" on="0"/>
        <pt x="526" y="729" on="1"/>
        <pt x="526" y="616" on="1"/>
        <pt x="481" y="624" on="0"/>
        <pt x="412" y="633" on="0"/>
        <pt x="383" y="633" on="1"/>
        <pt x="326" y="633" on="0"/>
        <pt x="247" y="606" on="0"/>
        <pt x="198" y="544" on="0"/>
        <pt x="177" y="443" on="0"/>
        <pt x="177" y="369" on="1"/>
        <pt x="177" y="295" on="0"/>
        <pt x="196" y="195" on="0"/>
        <pt x="238" y="134" on="0"/>
        <pt x="306" y="107" on="0"/>
        <pt x="356" y="107" on="1"/>
        <pt x="368" y="107" on="0"/>
        <pt x="393" y="108" on="0"/>
        <pt x="407" y="109" on="1"/>
        <pt x="407" y="376" on="1"/>
        <pt x="534" y="376" on="1"/>
        <pt x="534" y="7" on="1"/>
        <pt x="468" y="-2" on="0"/>
        <pt x="379" y="-9" on="0"/>
      </contour>
      <contour>
        <pt x="176" y="893" on="1"/>
        <pt x="331" y="964" on="1"/>
        <pt x="484" y="893" on="1"/>
        <pt x="484" y="797" on="1"/>
        <pt x="330" y="869" on="1"/>
        <pt x="176" y="797" on="1"/>
      </contour>
    </TTGlyph>
    <TTGlyph name="Gcircumflex.sc" xMin="33" yMin="-7" xMax="486" yMax="760">
      <contour>
        <pt x="306" y="-7" on="1"/>
        <pt x="166" y="-7" on="0"/>
        <pt x="33" y="139" on="0"/>
        <pt x="33" y="289" on="1"/>
        <pt x="33" y="438" on="0"/>
        <pt x="181" y="585" on="0"/>
        <pt x="335" y="585" on="1"/>
        <pt x="367" y="585" on="0"/>
        <pt x="441" y="576" on="0"/>
        <pt x="479" y="567" on="1"/>
        <pt x="479" y="462" on="1"/>
        <pt x="437" y="470" on="0"/>
        <pt x="375" y="476" on="0"/>
        <pt x="349" y="476" on="1"/>
        <pt x="298" y="476" on="0"/>
        <pt x="229" y="457" on="0"/>
        <pt x="187" y="413" on="0"/>
        <pt x="169" y="341" on="0"/>
        <pt x="169" y="288" on="1"/>
        <pt x="169" y="234" on="0"/>
        <pt x="184" y="163" on="0"/>
        <pt x="220" y="120" on="0"/>
        <pt x="279" y="102" on="0"/>
        <pt x="323" y="102" on="1"/>
        <pt x="325" y="102" on="0"/>
        <pt x="336" y="102" on="0"/>
        <pt x="350" y="102" on="0"/>
        <pt x="363" y="103" on="0"/>
        <pt x="367" y="104" on="1"/>
        <pt x="367" y="293" on="1"/>
        <pt x="486" y="293" on="1"/>
        <pt x="486" y="8" on="1"/>
        <pt x="427" y="0" on="0"/>
        <pt x="344" y="-7" on="0"/>
      </contour>
      <contour>
        <pt x="158" y="704" on="1"/>
        <pt x="300" y="760" on="1"/>
        <pt x="440" y="704" on="1"/>
        <pt x="440" y="618" on="1"/>
        <pt x="299" y="674" on="1"/>
        <pt x="158" y="618" on="1"/>
      </contour>
    </TTGlyph>
    <TTGlyph name="Gcommaaccent" xMin="33" yMin="-220" xMax="534" yMax="749">
      <contour>
        <pt x="272" y="-69" on="1"/>
        <pt x="412" y="-69" on="1"/>
        <pt x="332" y="-220" on="1"/>
        <pt x="228" y="-220" on="1"/>
      </contour>
      <contour>
        <pt x="338" y="-9" on="1"/>
        <pt x="181" y="-9" on="0"/>
        <pt x="33" y="176" on="0"/>
        <pt x="33" y="370" on="1"/>
        <pt x="33" y="563" on="0"/>
        <pt x="198" y="749" on="0"/>
        <pt x="369" y="749" on="1"/>
        <pt x="403" y="749" on="0"/>
        <pt x="484" y="739" on="0"/>
        <pt x="526" y="729" on="1"/>
        <pt x="526" y="616" on="1"/>
        <pt x="481" y="624" on="0"/>
        <pt x="412" y="633" on="0"/>
        <pt x="383" y="633" on="1"/>
        <pt x="326" y="633" on="0"/>
        <pt x="247" y="606" on="0"/>
        <pt x="198" y="544" on="0"/>
        <pt x="177" y="443" on="0"/>
        <pt x="177" y="369" on="1"/>
        <pt x="177" y="295" on="0"/>
        <pt x="196" y="195" on="0"/>
        <pt x="238" y="134" on="0"/>
        <pt x="306" y="107" on="0"/>
        <pt x="356" y="107" on="1"/>
        <pt x="368" y="107" on="0"/>
        <pt x="393" y="108" on="0"/>
        <pt x="407" y="109" on="1"/>
        <pt x="407" y="376" on="1"/>
        <pt x="534" y="376" on="1"/>
        <pt x="534" y="7" on="1"/>
        <pt x="468" y="-2" on="0"/>
        <pt x="379" y="-9" on="0"/>
      </contour>
    </TTGlyph>
    <TTGlyph name="Gcommaaccent.sc" xMin="33" yMin="-172" xMax="486" yMax="585">
      <contour>
        <pt x="306" y="-7" on="1"/>
        <pt x="166" y="-7" on="0"/>
        <pt x="33" y="139" on="0"/>
        <pt x="33" y="289" on="1"/>
        <pt x="33" y="438" on="0"/>
        <pt x="181" y="585" on="0"/>
        <pt x="335" y="585" on="1"/>
        <pt x="367" y="585" on="0"/>
        <pt x="441" y="576" on="0"/>
        <pt x="479" y="567" on="1"/>
        <pt x="479" y="462" on="1"/>
        <pt x="437" y="470" on="0"/>
        <pt x="375" y="476" on="0"/>
        <pt x="349" y="476" on="1"/>
        <pt x="298" y="476" on="0"/>
        <pt x="229" y="457" on="0"/>
        <pt x="187" y="413" on="0"/>
        <pt x="169" y="341" on="0"/>
        <pt x="169" y="288" on="1"/>
        <pt x="169" y="234" on="0"/>
        <pt x="184" y="163" on="0"/>
        <pt x="220" y="120" on="0"/>
        <pt x="279" y="102" on="0"/>
        <pt x="323" y="102" on="1"/>
        <pt x="325" y="102" on="0"/>
        <pt x="336" y="102" on="0"/>
        <pt x="350" y="102" on="0"/>
        <pt x="363" y="103" on="0"/>
        <pt x="367" y="104" on="1"/>
        <pt x="367" y="293" on="1"/>
        <pt x="486" y="293" on="1"/>
        <pt x="486" y="8" on="1"/>
        <pt x="427" y="0" on="0"/>
        <pt x="344" y="-7" on="0"/>
      </contour>
      <contour>
        <pt x="243" y="-54" on="1"/>
        <pt x="375" y="-54" on="1"/>
        <pt x="302" y="-172" on="1"/>
        <pt x="205" y="-172" on="1"/>
      </contour>
    </TTGlyph>
    <TTGlyph name="Gdotaccent" xMin="33" yMin="-9" xMax="534" yMax="950">
      <contour>
        <pt x="330" y="798" on="1"/>
        <pt x="290" y="798" on="0"/>
        <pt x="253" y="834" on="0"/>
        <pt x="253" y="874" on="1"/>
        <pt x="253" y="915" on="0"/>
        <pt x="290" y="950" on="0"/>
        <pt x="330" y="950" on="1"/>
        <pt x="370" y="950" on="0"/>
        <pt x="409" y="914" on="0"/>
        <pt x="409" y="874" on="1"/>
        <pt x="409" y="834" on="0"/>
        <pt x="370" y="798" on="0"/>
      </contour>
      <contour>
        <pt x="338" y="-9" on="1"/>
        <pt x="181" y="-9" on="0"/>
        <pt x="33" y="176" on="0"/>
        <pt x="33" y="370" on="1"/>
        <pt x="33" y="563" on="0"/>
        <pt x="198" y="749" on="0"/>
        <pt x="369" y="749" on="1"/>
        <pt x="403" y="749" on="0"/>
        <pt x="484" y="739" on="0"/>
        <pt x="526" y="729" on="1"/>
        <pt x="526" y="616" on="1"/>
        <pt x="481" y="624" on="0"/>
        <pt x="412" y="633" on="0"/>
        <pt x="383" y="633" on="1"/>
        <pt x="326" y="633" on="0"/>
        <pt x="247" y="606" on="0"/>
        <pt x="198" y="544" on="0"/>
        <pt x="177" y="443" on="0"/>
        <pt x="177" y="369" on="1"/>
        <pt x="177" y="295" on="0"/>
        <pt x="196" y="195" on="0"/>
        <pt x="238" y="134" on="0"/>
        <pt x="306" y="107" on="0"/>
        <pt x="356" y="107" on="1"/>
        <pt x="368" y="107" on="0"/>
        <pt x="393" y="108" on="0"/>
        <pt x="407" y="109" on="1"/>
        <pt x="407" y="376" on="1"/>
        <pt x="534" y="376" on="1"/>
        <pt x="534" y="7" on="1"/>
        <pt x="468" y="-2" on="0"/>
        <pt x="379" y="-9" on="0"/>
      </contour>
    </TTGlyph>
    <TTGlyph name="Gdotaccent.sc" xMin="33" yMin="-7" xMax="486" yMax="761">
      <contour>
        <pt x="306" y="-7" on="1"/>
        <pt x="166" y="-7" on="0"/>
        <pt x="33" y="139" on="0"/>
        <pt x="33" y="289" on="1"/>
        <pt x="33" y="438" on="0"/>
        <pt x="181" y="585" on="0"/>
        <pt x="335" y="585" on="1"/>
        <pt x="367" y="585" on="0"/>
        <pt x="441" y="576" on="0"/>
        <pt x="479" y="567" on="1"/>
        <pt x="479" y="462" on="1"/>
        <pt x="437" y="470" on="0"/>
        <pt x="375" y="476" on="0"/>
        <pt x="349" y="476" on="1"/>
        <pt x="298" y="476" on="0"/>
        <pt x="229" y="457" on="0"/>
        <pt x="187" y="413" on="0"/>
        <pt x="169" y="341" on="0"/>
        <pt x="169" y="288" on="1"/>
        <pt x="169" y="234" on="0"/>
        <pt x="184" y="163" on="0"/>
        <pt x="220" y="120" on="0"/>
        <pt x="279" y="102" on="0"/>
        <pt x="323" y="102" on="1"/>
        <pt x="325" y="102" on="0"/>
        <pt x="336" y="102" on="0"/>
        <pt x="350" y="102" on="0"/>
        <pt x="363" y="103" on="0"/>
        <pt x="367" y="104" on="1"/>
        <pt x="367" y="293" on="1"/>
        <pt x="486" y="293" on="1"/>
        <pt x="486" y="8" on="1"/>
        <pt x="427" y="0" on="0"/>
        <pt x="344" y="-7" on="0"/>
      </contour>
      <contour>
        <pt x="300" y="622" on="1"/>
        <pt x="262" y="622" on="0"/>
        <pt x="228" y="655" on="0"/>
        <pt x="228" y="693" on="1"/>
        <pt x="228" y="729" on="0"/>
        <pt x="262" y="761" on="0"/>
        <pt x="300" y="761" on="1"/>
        <pt x="337" y="761" on="0"/>
        <pt x="373" y="729" on="0"/>
        <pt x="373" y="693" on="1"/>
        <pt x="373" y="655" on="0"/>
        <pt x="337" y="622" on="0"/>
      </contour>
    </TTGlyph>
    <TTGlyph name="H" xMin="61" yMin="0" xMax="599" yMax="740">
      <contour>
        <pt x="61" y="740" on="1"/>
        <pt x="201" y="740" on="1"/>
        <pt x="201" y="437" on="1"/>
        <pt x="459" y="437" on="1"/>
        <pt x="459" y="740" on="1"/>
        <pt x="599" y="740" on="1"/>
        <pt x="599" y="0" on="1"/>
        <pt x="459" y="0" on="1"/>
        <pt x="459" y="318" on="1"/>
        <pt x="201" y="318" on="1"/>
        <pt x="201" y="0" on="1"/>
        <pt x="61" y="0" on="1"/>
      </contour>
    </TTGlyph>
    <TTGlyph name="H.sc" xMin="58" yMin="0" xMax="549" yMax="577">
      <contour>
        <pt x="58" y="577" on="1"/>
        <pt x="190" y="577" on="1"/>
        <pt x="190" y="350" on="1"/>
        <pt x="416" y="350" on="1"/>
        <pt x="416" y="577" on="1"/>
        <pt x="549" y="577" on="1"/>
        <pt x="549" y="0" on="1"/>
        <pt x="416" y="0" on="1"/>
        <pt x="416" y="240" on="1"/>
        <pt x="190" y="240" on="1"/>
        <pt x="190" y="0" on="1"/>
        <pt x="58" y="0" on="1"/>
      </contour>
    </TTGlyph>
    <TTGlyph name="Hbar" xMin="-2" yMin="0" xMax="696" yMax="740">
      <contour>
        <pt x="-2" y="607" on="1"/>
        <pt x="73" y="607" on="1"/>
        <pt x="73" y="740" on="1"/>
        <pt x="213" y="740" on="1"/>
        <pt x="213" y="607" on="1"/>
        <pt x="471" y="607" on="1"/>
        <pt x="471" y="740" on="1"/>
        <pt x="611" y="740" on="1"/>
        <pt x="611" y="607" on="1"/>
        <pt x="696" y="607" on="1"/>
        <pt x="696" y="541" on="1"/>
        <pt x="611" y="541" on="1"/>
        <pt x="611" y="0" on="1"/>
        <pt x="471" y="0" on="1"/>
        <pt x="471" y="318" on="1"/>
        <pt x="213" y="318" on="1"/>
        <pt x="213" y="0" on="1"/>
        <pt x="73" y="0" on="1"/>
        <pt x="73" y="541" on="1"/>
        <pt x="-2" y="541" on="1"/>
      </contour>
      <contour>
        <pt x="471" y="437" on="1"/>
        <pt x="471" y="541" on="1"/>
        <pt x="213" y="541" on="1"/>
        <pt x="213" y="437" on="1"/>
      </contour>
    </TTGlyph>
    <TTGlyph name="Hbar.sc" xMin="4" yMin="0" xMax="633" yMax="577">
      <contour>
        <pt x="4" y="481" on="1"/>
        <pt x="69" y="481" on="1"/>
        <pt x="69" y="577" on="1"/>
        <pt x="202" y="577" on="1"/>
        <pt x="202" y="481" on="1"/>
        <pt x="427" y="481" on="1"/>
        <pt x="427" y="577" on="1"/>
        <pt x="560" y="577" on="1"/>
        <pt x="560" y="481" on="1"/>
        <pt x="633" y="481" on="1"/>
        <pt x="633" y="420" on="1"/>
        <pt x="560" y="420" on="1"/>
        <pt x="560" y="0" on="1"/>
        <pt x="427" y="0" on="1"/>
        <pt x="427" y="240" on="1"/>
        <pt x="202" y="240" on="1"/>
        <pt x="202" y="0" on="1"/>
        <pt x="69" y="0" on="1"/>
        <pt x="69" y="420" on="1"/>
        <pt x="4" y="420" on="1"/>
      </contour>
      <contour>
        <pt x="427" y="350" on="1"/>
        <pt x="427" y="420" on="1"/>
        <pt x="202" y="420" on="1"/>
        <pt x="202" y="350" on="1"/>
      </contour>
    </TTGlyph>
    <TTGlyph name="Hcircumflex" xMin="61" yMin="0" xMax="599" yMax="964">
      <contour>
        <pt x="61" y="740" on="1"/>
        <pt x="201" y="740" on="1"/>
        <pt x="201" y="437" on="1"/>
        <pt x="459" y="437" on="1"/>
        <pt x="459" y="740" on="1"/>
        <pt x="599" y="740" on="1"/>
        <pt x="599" y="0" on="1"/>
        <pt x="459" y="0" on="1"/>
        <pt x="459" y="318" on="1"/>
        <pt x="201" y="318" on="1"/>
        <pt x="201" y="0" on="1"/>
        <pt x="61" y="0" on="1"/>
      </contour>
      <contour>
        <pt x="172" y="893" on="1"/>
        <pt x="327" y="964" on="1"/>
        <pt x="480" y="893" on="1"/>
        <pt x="480" y="797" on="1"/>
        <pt x="326" y="869" on="1"/>
        <pt x="172" y="797" on="1"/>
      </contour>
    </TTGlyph>
    <TTGlyph name="Hcircumflex.sc" xMin="58" yMin="0" xMax="549" yMax="760">
      <contour>
        <pt x="58" y="577" on="1"/>
        <pt x="190" y="577" on="1"/>
        <pt x="190" y="350" on="1"/>
        <pt x="416" y="350" on="1"/>
        <pt x="416" y="577" on="1"/>
        <pt x="549" y="577" on="1"/>
        <pt x="549" y="0" on="1"/>
        <pt x="416" y="0" on="1"/>
        <pt x="416" y="240" on="1"/>
        <pt x="190" y="240" on="1"/>
        <pt x="190" y="0" on="1"/>
        <pt x="58" y="0" on="1"/>
      </contour>
      <contour>
        <pt x="159" y="704" on="1"/>
        <pt x="301" y="760" on="1"/>
        <pt x="441" y="704" on="1"/>
        <pt x="441" y="618" on="1"/>
        <pt x="301" y="674" on="1"/>
        <pt x="159" y="618" on="1"/>
      </contour>
    </TTGlyph>
    <TTGlyph name="Hdotbelow" xMin="61" yMin="-200" xMax="599" yMax="740">
      <contour>
        <pt x="61" y="740" on="1"/>
        <pt x="201" y="740" on="1"/>
        <pt x="201" y="437" on="1"/>
        <pt x="459" y="437" on="1"/>
        <pt x="459" y="740" on="1"/>
        <pt x="599" y="740" on="1"/>
        <pt x="599" y="0" on="1"/>
        <pt x="459" y="0" on="1"/>
        <pt x="459" y="318" on="1"/>
        <pt x="201" y="318" on="1"/>
        <pt x="201" y="0" on="1"/>
        <pt x="61" y="0" on="1"/>
      </contour>
      <contour>
        <pt x="333" y="-200" on="1"/>
        <pt x="299" y="-200" on="0"/>
        <pt x="269" y="-170" on="0"/>
        <pt x="269" y="-137" on="1"/>
        <pt x="269" y="-103" on="0"/>
        <pt x="299" y="-75" on="0"/>
        <pt x="333" y="-75" on="1"/>
        <pt x="365" y="-75" on="0"/>
        <pt x="397" y="-103" on="0"/>
        <pt x="397" y="-137" on="1"/>
        <pt x="397" y="-170" on="0"/>
        <pt x="365" y="-200" on="0"/>
      </contour>
    </TTGlyph>
    <TTGlyph name="Hdotbelow.sc" xMin="58" yMin="-164" xMax="549" yMax="577">
      <contour>
        <pt x="58" y="577" on="1"/>
        <pt x="190" y="577" on="1"/>
        <pt x="190" y="350" on="1"/>
        <pt x="416" y="350" on="1"/>
        <pt x="416" y="577" on="1"/>
        <pt x="549" y="577" on="1"/>
        <pt x="549" y="0" on="1"/>
        <pt x="416" y="0" on="1"/>
        <pt x="416" y="240" on="1"/>
        <pt x="190" y="240" on="1"/>
        <pt x="190" y="0" on="1"/>
        <pt x="58" y="0" on="1"/>
      </contour>
      <contour>
        <pt x="305" y="-164" on="1"/>
        <pt x="274" y="-164" on="0"/>
        <pt x="247" y="-138" on="0"/>
        <pt x="247" y="-109" on="1"/>
        <pt x="247" y="-80" on="0"/>
        <pt x="274" y="-54" on="0"/>
        <pt x="305" y="-54" on="1"/>
        <pt x="336" y="-54" on="0"/>
        <pt x="365" y="-80" on="0"/>
        <pt x="365" y="-109" on="1"/>
        <pt x="365" y="-138" on="0"/>
        <pt x="336" y="-164" on="0"/>
      </contour>
    </TTGlyph>
    <TTGlyph name="I" xMin="61" yMin="0" xMax="201" yMax="740">
      <contour>
        <pt x="61" y="740" on="1"/>
        <pt x="201" y="740" on="1"/>
        <pt x="201" y="0" on="1"/>
        <pt x="61" y="0" on="1"/>
      </contour>
    </TTGlyph>
    <TTGlyph name="I.sc" xMin="58" yMin="0" xMax="190" yMax="577">
      <contour>
        <pt x="58" y="577" on="1"/>
        <pt x="190" y="577" on="1"/>
        <pt x="190" y="0" on="1"/>
        <pt x="58" y="0" on="1"/>
      </contour>
    </TTGlyph>
    <TTGlyph name="IJ" xMin="61" yMin="-201" xMax="464" yMax="740">
      <contour>
        <pt x="61" y="740" on="1"/>
        <pt x="201" y="740" on="1"/>
        <pt x="201" y="0" on="1"/>
        <pt x="61" y="0" on="1"/>
      </contour>
      <contour>
        <pt x="246" y="-160" on="1"/>
        <pt x="269" y="-109" on="0"/>
        <pt x="299" y="-25" on="0"/>
        <pt x="317" y="56" on="0"/>
        <pt x="324" y="140" on="0"/>
        <pt x="324" y="192" on="1"/>
        <pt x="324" y="740" on="1"/>
        <pt x="464" y="740" on="1"/>
        <pt x="464" y="180" on="1"/>
        <pt x="464" y="130" on="0"/>
        <pt x="450" y="38" on="0"/>
        <pt x="419" y="-53" on="0"/>
        <pt x="370" y="-148" on="0"/>
        <pt x="334" y="-201" on="1"/>
      </contour>
    </TTGlyph>
    <TTGlyph name="Iacute" xMin="61" yMin="0" xMax="286" yMax="961">
      <contour>
        <pt x="61" y="740" on="1"/>
        <pt x="201" y="740" on="1"/>
        <pt x="201" y="0" on="1"/>
        <pt x="61" y="0" on="1"/>
      </contour>
      <contour>
        <pt x="76" y="796" on="1"/>
        <pt x="145" y="961" on="1"/>
        <pt x="286" y="961" on="1"/>
        <pt x="176" y="788" on="1"/>
      </contour>
    </TTGlyph>
    <TTGlyph name="Iacute.sc" xMin="58" yMin="0" xMax="266" yMax="762">
      <contour>
        <pt x="58" y="577" on="1"/>
        <pt x="190" y="577" on="1"/>
        <pt x="190" y="0" on="1"/>
        <pt x="58" y="0" on="1"/>
      </contour>
      <contour>
        <pt x="73" y="623" on="1"/>
        <pt x="133" y="762" on="1"/>
        <pt x="266" y="762" on="1"/>
        <pt x="166" y="617" on="1"/>
      </contour>
    </TTGlyph>
    <TTGlyph name="Ibreve" xMin="-38" yMin="0" xMax="303" yMax="966">
      <contour>
        <pt x="61" y="740" on="1"/>
        <pt x="201" y="740" on="1"/>
        <pt x="201" y="0" on="1"/>
        <pt x="61" y="0" on="1"/>
      </contour>
      <contour>
        <pt x="133" y="799" on="1"/>
        <pt x="49" y="799" on="0"/>
        <pt x="-38" y="888" on="0"/>
        <pt x="-38" y="966" on="1"/>
        <pt x="57" y="966" on="1"/>
        <pt x="57" y="913" on="0"/>
        <pt x="91" y="867" on="0"/>
        <pt x="133" y="867" on="1"/>
        <pt x="173" y="867" on="0"/>
        <pt x="207" y="913" on="0"/>
        <pt x="207" y="966" on="1"/>
        <pt x="303" y="966" on="1"/>
        <pt x="303" y="888" on="0"/>
        <pt x="215" y="799" on="0"/>
      </contour>
    </TTGlyph>
    <TTGlyph name="Ibreve.sc" xMin="-31" yMin="0" xMax="281" yMax="759">
      <contour>
        <pt x="58" y="577" on="1"/>
        <pt x="190" y="577" on="1"/>
        <pt x="190" y="0" on="1"/>
        <pt x="58" y="0" on="1"/>
      </contour>
      <contour>
        <pt x="126" y="620" on="1"/>
        <pt x="48" y="620" on="0"/>
        <pt x="-31" y="694" on="0"/>
        <pt x="-31" y="759" on="1"/>
        <pt x="59" y="759" on="1"/>
        <pt x="59" y="716" on="0"/>
        <pt x="88" y="681" on="0"/>
        <pt x="126" y="681" on="1"/>
        <pt x="161" y="681" on="0"/>
        <pt x="192" y="716" on="0"/>
        <pt x="192" y="759" on="1"/>
        <pt x="281" y="759" on="1"/>
        <pt x="281" y="694" on="0"/>
        <pt x="201" y="620" on="0"/>
      </contour>
    </TTGlyph>
    <TTGlyph name="Icircumflex" xMin="-22" yMin="0" xMax="286" yMax="964">
      <contour>
        <pt x="61" y="740" on="1"/>
        <pt x="201" y="740" on="1"/>
        <pt x="201" y="0" on="1"/>
        <pt x="61" y="0" on="1"/>
      </contour>
      <contour>
        <pt x="-22" y="893" on="1"/>
        <pt x="133" y="964" on="1"/>
        <pt x="286" y="893" on="1"/>
        <pt x="286" y="797" on="1"/>
        <pt x="132" y="869" on="1"/>
        <pt x="-22" y="797" on="1"/>
      </contour>
    </TTGlyph>
    <TTGlyph name="Icircumflex.sc" xMin="-16" yMin="0" xMax="266" yMax="760">
      <contour>
        <pt x="58" y="577" on="1"/>
        <pt x="190" y="577" on="1"/>
        <pt x="190" y="0" on="1"/>
        <pt x="58" y="0" on="1"/>
      </contour>
      <contour>
        <pt x="-16" y="704" on="1"/>
        <pt x="126" y="760" on="1"/>
        <pt x="266" y="704" on="1"/>
        <pt x="266" y="618" on="1"/>
        <pt x="125" y="674" on="1"/>
        <pt x="-16" y="618" on="1"/>
      </contour>
    </TTGlyph>
    <TTGlyph name="Idblgrave" xMin="-94" yMin="0" xMax="265" yMax="961">
      <contour>
        <pt x="61" y="740" on="1"/>
        <pt x="201" y="740" on="1"/>
        <pt x="201" y="0" on="1"/>
        <pt x="61" y="0" on="1"/>
      </contour>
      <contour>
        <pt x="16" y="788" on="1"/>
        <pt x="-94" y="961" on="1"/>
        <pt x="22" y="961" on="1"/>
        <pt x="91" y="800" on="1"/>
      </contour>
      <contour>
        <pt x="190" y="788" on="1"/>
        <pt x="79" y="961" on="1"/>
        <pt x="196" y="961" on="1"/>
        <pt x="265" y="800" on="1"/>
      </contour>
    </TTGlyph>
    <TTGlyph name="Idblgrave.sc" xMin="-82" yMin="0" xMax="248" yMax="762">
      <contour>
        <pt x="58" y="577" on="1"/>
        <pt x="190" y="577" on="1"/>
        <pt x="190" y="0" on="1"/>
        <pt x="58" y="0" on="1"/>
      </contour>
      <contour>
        <pt x="18" y="616" on="1"/>
        <pt x="-82" y="762" on="1"/>
        <pt x="29" y="762" on="1"/>
        <pt x="89" y="625" on="1"/>
      </contour>
      <contour>
        <pt x="177" y="616" on="1"/>
        <pt x="77" y="762" on="1"/>
        <pt x="187" y="762" on="1"/>
        <pt x="248" y="625" on="1"/>
      </contour>
    </TTGlyph>
    <TTGlyph name="Idieresis" xMin="-62" yMin="0" xMax="325" yMax="955">
      <contour>
        <pt x="61" y="740" on="1"/>
        <pt x="201" y="740" on="1"/>
        <pt x="201" y="0" on="1"/>
        <pt x="61" y="0" on="1"/>
      </contour>
      <contour>
        <pt x="15" y="803" on="1"/>
        <pt x="-62" y="803" on="0"/>
        <pt x="-62" y="880" on="1"/>
        <pt x="-62" y="920" on="0"/>
        <pt x="-25" y="955" on="0"/>
        <pt x="15" y="955" on="1"/>
        <pt x="55" y="955" on="0"/>
        <pt x="94" y="920" on="0"/>
        <pt x="94" y="880" on="1"/>
        <pt x="94" y="839" on="0"/>
        <pt x="55" y="803" on="0"/>
      </contour>
      <contour>
        <pt x="246" y="803" on="1"/>
        <pt x="169" y="803" on="0"/>
        <pt x="169" y="880" on="1"/>
        <pt x="169" y="920" on="0"/>
        <pt x="206" y="955" on="0"/>
        <pt x="246" y="955" on="1"/>
        <pt x="285" y="955" on="0"/>
        <pt x="325" y="920" on="0"/>
        <pt x="325" y="880" on="1"/>
        <pt x="325" y="839" on="0"/>
        <pt x="285" y="803" on="0"/>
      </contour>
    </TTGlyph>
    <TTGlyph name="Idieresis.sc" xMin="-53" yMin="0" xMax="304" yMax="763">
      <contour>
        <pt x="58" y="577" on="1"/>
        <pt x="190" y="577" on="1"/>
        <pt x="190" y="0" on="1"/>
        <pt x="58" y="0" on="1"/>
      </contour>
      <contour>
        <pt x="19" y="624" on="1"/>
        <pt x="-19" y="624" on="0"/>
        <pt x="-53" y="658" on="0"/>
        <pt x="-53" y="694" on="1"/>
        <pt x="-53" y="731" on="0"/>
        <pt x="-19" y="763" on="0"/>
        <pt x="19" y="763" on="1"/>
        <pt x="56" y="763" on="0"/>
        <pt x="92" y="730" on="0"/>
        <pt x="92" y="694" on="1"/>
        <pt x="92" y="657" on="0"/>
        <pt x="56" y="624" on="0"/>
      </contour>
      <contour>
        <pt x="230" y="624" on="1"/>
        <pt x="192" y="624" on="0"/>
        <pt x="158" y="658" on="0"/>
        <pt x="158" y="694" on="1"/>
        <pt x="158" y="731" on="0"/>
        <pt x="192" y="763" on="0"/>
        <pt x="230" y="763" on="1"/>
        <pt x="268" y="763" on="0"/>
        <pt x="304" y="730" on="0"/>
        <pt x="304" y="694" on="1"/>
        <pt x="304" y="657" on="0"/>
        <pt x="268" y="624" on="0"/>
      </contour>
    </TTGlyph>
    <TTGlyph name="Idotaccent" xMin="54" yMin="0" xMax="210" yMax="950">
      <contour>
        <pt x="61" y="740" on="1"/>
        <pt x="201" y="740" on="1"/>
        <pt x="201" y="0" on="1"/>
        <pt x="61" y="0" on="1"/>
      </contour>
      <contour>
        <pt x="131" y="798" on="1"/>
        <pt x="91" y="798" on="0"/>
        <pt x="54" y="834" on="0"/>
        <pt x="54" y="874" on="1"/>
        <pt x="54" y="915" on="0"/>
        <pt x="91" y="950" on="0"/>
        <pt x="131" y="950" on="1"/>
        <pt x="171" y="950" on="0"/>
        <pt x="210" y="914" on="0"/>
        <pt x="210" y="874" on="1"/>
        <pt x="210" y="834" on="0"/>
        <pt x="171" y="798" on="0"/>
      </contour>
    </TTGlyph>
    <TTGlyph name="Idotaccent.sc" xMin="53" yMin="0" xMax="198" yMax="761">
      <contour>
        <pt x="58" y="577" on="1"/>
        <pt x="190" y="577" on="1"/>
        <pt x="190" y="0" on="1"/>
        <pt x="58" y="0" on="1"/>
      </contour>
      <contour>
        <pt x="125" y="622" on="1"/>
        <pt x="87" y="622" on="0"/>
        <pt x="53" y="655" on="0"/>
        <pt x="53" y="693" on="1"/>
        <pt x="53" y="729" on="0"/>
        <pt x="87" y="761" on="0"/>
        <pt x="125" y="761" on="1"/>
        <pt x="163" y="761" on="0"/>
        <pt x="198" y="729" on="0"/>
        <pt x="198" y="693" on="1"/>
        <pt x="198" y="655" on="0"/>
        <pt x="163" y="622" on="0"/>
      </contour>
    </TTGlyph>
    <TTGlyph name="Idotbelow" xMin="61" yMin="-200" xMax="201" yMax="740">
      <contour>
        <pt x="61" y="740" on="1"/>
        <pt x="201" y="740" on="1"/>
        <pt x="201" y="0" on="1"/>
        <pt x="61" y="0" on="1"/>
      </contour>
      <contour>
        <pt x="132" y="-200" on="1"/>
        <pt x="98" y="-200" on="0"/>
        <pt x="68" y="-170" on="0"/>
        <pt x="68" y="-137" on="1"/>
        <pt x="68" y="-103" on="0"/>
        <pt x="98" y="-75" on="0"/>
        <pt x="132" y="-75" on="1"/>
        <pt x="164" y="-75" on="0"/>
        <pt x="196" y="-103" on="0"/>
        <pt x="196" y="-137" on="1"/>
        <pt x="196" y="-170" on="0"/>
        <pt x="164" y="-200" on="0"/>
      </contour>
    </TTGlyph>
    <TTGlyph name="Idotbelow.sc" xMin="58" yMin="-164" xMax="190" yMax="577">
      <contour>
        <pt x="58" y="577" on="1"/>
        <pt x="190" y="577" on="1"/>
        <pt x="190" y="0" on="1"/>
        <pt x="58" y="0" on="1"/>
      </contour>
      <contour>
        <pt x="125" y="-164" on="1"/>
        <pt x="94" y="-164" on="0"/>
        <pt x="67" y="-138" on="0"/>
        <pt x="67" y="-109" on="1"/>
        <pt x="67" y="-80" on="0"/>
        <pt x="94" y="-54" on="0"/>
        <pt x="125" y="-54" on="1"/>
        <pt x="155" y="-54" on="0"/>
        <pt x="185" y="-80" on="0"/>
        <pt x="185" y="-109" on="1"/>
        <pt x="185" y="-138" on="0"/>
        <pt x="155" y="-164" on="0"/>
      </contour>
    </TTGlyph>
    <TTGlyph name="Igrave" xMin="-32" yMin="0" xMax="201" yMax="961">
      <contour>
        <pt x="61" y="740" on="1"/>
        <pt x="201" y="740" on="1"/>
        <pt x="201" y="0" on="1"/>
        <pt x="61" y="0" on="1"/>
      </contour>
      <contour>
        <pt x="78" y="788" on="1"/>
        <pt x="-32" y="961" on="1"/>
        <pt x="109" y="961" on="1"/>
        <pt x="178" y="800" on="1"/>
      </contour>
    </TTGlyph>
    <TTGlyph name="Igrave.sc" xMin="-23" yMin="0" xMax="191" yMax="762">
      <contour>
        <pt x="58" y="577" on="1"/>
        <pt x="191" y="577" on="1"/>
        <pt x="191" y="0" on="1"/>
        <pt x="58" y="0" on="1"/>
      </contour>
      <contour>
        <pt x="76" y="617" on="1"/>
        <pt x="-23" y="762" on="1"/>
        <pt x="109" y="762" on="1"/>
        <pt x="170" y="625" on="1"/>
      </contour>
    </TTGlyph>
    <TTGlyph name="Iinvertedbreve" xMin="-38" yMin="0" xMax="303" yMax="976">
      <contour>
        <pt x="61" y="740" on="1"/>
        <pt x="201" y="740" on="1"/>
        <pt x="201" y="0" on="1"/>
        <pt x="61" y="0" on="1"/>
      </contour>
      <contour>
        <pt x="207" y="809" on="1"/>
        <pt x="207" y="863" on="0"/>
        <pt x="173" y="908" on="0"/>
        <pt x="133" y="908" on="1"/>
        <pt x="91" y="908" on="0"/>
        <pt x="57" y="863" on="0"/>
        <pt x="57" y="809" on="1"/>
        <pt x="-38" y="809" on="1"/>
        <pt x="-38" y="887" on="0"/>
        <pt x="49" y="976" on="0"/>
        <pt x="133" y="976" on="1"/>
        <pt x="215" y="976" on="0"/>
        <pt x="303" y="887" on="0"/>
        <pt x="303" y="809" on="1"/>
      </contour>
    </TTGlyph>
    <TTGlyph name="Iinvertedbreve.sc" xMin="-30" yMin="0" xMax="282" yMax="766">
      <contour>
        <pt x="58" y="577" on="1"/>
        <pt x="190" y="577" on="1"/>
        <pt x="190" y="0" on="1"/>
        <pt x="58" y="0" on="1"/>
      </contour>
      <contour>
        <pt x="192" y="628" on="1"/>
        <pt x="192" y="670" on="0"/>
        <pt x="162" y="705" on="0"/>
        <pt x="126" y="705" on="1"/>
        <pt x="88" y="705" on="0"/>
        <pt x="59" y="670" on="0"/>
        <pt x="59" y="628" on="1"/>
        <pt x="-30" y="628" on="1"/>
        <pt x="-30" y="693" on="0"/>
        <pt x="48" y="766" on="0"/>
        <pt x="126" y="766" on="1"/>
        <pt x="202" y="766" on="0"/>
        <pt x="282" y="693" on="0"/>
        <pt x="282" y="628" on="1"/>
      </contour>
    </TTGlyph>
    <TTGlyph name="Imacron" xMin="-20" yMin="0" xMax="277" yMax="931">
      <contour>
        <pt x="61" y="740" on="1"/>
        <pt x="201" y="740" on="1"/>
        <pt x="201" y="0" on="1"/>
        <pt x="61" y="0" on="1"/>
      </contour>
      <contour>
        <pt x="-20" y="931" on="1"/>
        <pt x="277" y="931" on="1"/>
        <pt x="277" y="838" on="1"/>
        <pt x="-20" y="838" on="1"/>
      </contour>
    </TTGlyph>
    <TTGlyph name="Imacron.sc" xMin="-15" yMin="0" xMax="260" yMax="739">
      <contour>
        <pt x="58" y="577" on="1"/>
        <pt x="190" y="577" on="1"/>
        <pt x="190" y="0" on="1"/>
        <pt x="58" y="0" on="1"/>
      </contour>
      <contour>
        <pt x="-15" y="739" on="1"/>
        <pt x="260" y="739" on="1"/>
        <pt x="260" y="653" on="1"/>
        <pt x="-15" y="653" on="1"/>
      </contour>
    </TTGlyph>
    <TTGlyph name="Iogonek" xMin="8" yMin="-220" xMax="201" yMax="740">
      <contour>
        <pt x="61" y="740" on="1"/>
        <pt x="201" y="740" on="1"/>
        <pt x="201" y="-10" on="1"/>
        <pt x="145" y="-31" on="0"/>
        <pt x="99" y="-88" on="0"/>
        <pt x="99" y="-110" on="1"/>
        <pt x="99" y="-138" on="0"/>
        <pt x="138" y="-138" on="1"/>
        <pt x="155" y="-138" on="0"/>
        <pt x="188" y="-131" on="0"/>
        <pt x="201" y="-126" on="1"/>
        <pt x="201" y="-208" on="1"/>
        <pt x="180" y="-213" on="0"/>
        <pt x="144" y="-220" on="0"/>
        <pt x="123" y="-220" on="1"/>
        <pt x="8" y="-220" on="0"/>
        <pt x="8" y="-123" on="1"/>
        <pt x="8" y="-88" on="0"/>
        <pt x="45" y="-31" on="0"/>
        <pt x="88" y="0" on="1"/>
        <pt x="61" y="0" on="1"/>
      </contour>
    </TTGlyph>
    <TTGlyph name="Iogonek.sc" xMin="14" yMin="-172" xMax="191" yMax="577">
      <contour>
        <pt x="59" y="577" on="1"/>
        <pt x="191" y="577" on="1"/>
        <pt x="191" y="-5" on="1"/>
        <pt x="140" y="-24" on="0"/>
        <pt x="98" y="-66" on="0"/>
        <pt x="98" y="-80" on="1"/>
        <pt x="98" y="-97" on="0"/>
        <pt x="133" y="-97" on="1"/>
        <pt x="147" y="-97" on="0"/>
        <pt x="179" y="-91" on="0"/>
        <pt x="191" y="-88" on="1"/>
        <pt x="191" y="-162" on="1"/>
        <pt x="171" y="-167" on="0"/>
        <pt x="139" y="-172" on="0"/>
        <pt x="120" y="-172" on="1"/>
        <pt x="14" y="-172" on="0"/>
        <pt x="14" y="-94" on="1"/>
        <pt x="14" y="-67" on="0"/>
        <pt x="46" y="-25" on="0"/>
        <pt x="81" y="0" on="1"/>
        <pt x="59" y="0" on="1"/>
      </contour>
    </TTGlyph>
    <TTGlyph name="Itilde" xMin="-40" yMin="0" xMax="324" yMax="943">
      <contour>
        <pt x="61" y="740" on="1"/>
        <pt x="201" y="740" on="1"/>
        <pt x="201" y="0" on="1"/>
        <pt x="61" y="0" on="1"/>
      </contour>
      <contour>
        <pt x="-40" y="839" on="1"/>
        <pt x="-14" y="889" on="0"/>
        <pt x="53" y="943" on="0"/>
        <pt x="86" y="943" on="1"/>
        <pt x="105" y="943" on="0"/>
        <pt x="142" y="930" on="0"/>
        <pt x="177" y="915" on="0"/>
        <pt x="212" y="903" on="0"/>
        <pt x="230" y="903" on="1"/>
        <pt x="248" y="903" on="0"/>
        <pt x="282" y="921" on="0"/>
        <pt x="300" y="942" on="1"/>
        <pt x="324" y="921" on="1"/>
        <pt x="300" y="868" on="0"/>
        <pt x="233" y="815" on="0"/>
        <pt x="199" y="815" on="1"/>
        <pt x="180" y="815" on="0"/>
        <pt x="144" y="827" on="0"/>
        <pt x="109" y="842" on="0"/>
        <pt x="74" y="854" on="0"/>
        <pt x="56" y="854" on="1"/>
        <pt x="18" y="854" on="0"/>
        <pt x="-18" y="817" on="1"/>
      </contour>
    </TTGlyph>
    <TTGlyph name="Itilde.sc" xMin="-34" yMin="0" xMax="301" yMax="746">
      <contour>
        <pt x="58" y="577" on="1"/>
        <pt x="190" y="577" on="1"/>
        <pt x="190" y="0" on="1"/>
        <pt x="58" y="0" on="1"/>
      </contour>
      <contour>
        <pt x="-34" y="653" on="1"/>
        <pt x="-10" y="699" on="0"/>
        <pt x="52" y="746" on="0"/>
        <pt x="83" y="746" on="1"/>
        <pt x="101" y="746" on="0"/>
        <pt x="133" y="737" on="0"/>
        <pt x="165" y="725" on="0"/>
        <pt x="198" y="716" on="0"/>
        <pt x="215" y="716" on="1"/>
        <pt x="231" y="716" on="0"/>
        <pt x="262" y="729" on="0"/>
        <pt x="279" y="746" on="1"/>
        <pt x="301" y="729" on="1"/>
        <pt x="278" y="681" on="0"/>
        <pt x="216" y="635" on="0"/>
        <pt x="185" y="635" on="1"/>
        <pt x="167" y="635" on="0"/>
        <pt x="134" y="644" on="0"/>
        <pt x="102" y="656" on="0"/>
        <pt x="70" y="665" on="0"/>
        <pt x="53" y="665" on="1"/>
        <pt x="36" y="665" on="0"/>
        <pt x="4" y="653" on="0"/>
        <pt x="-14" y="636" on="1"/>
      </contour>
    </TTGlyph>
    <TTGlyph name="J" xMin="-15" yMin="-201" xMax="203" yMax="740">
      <contour>
        <pt x="-15" y="-160" on="1"/>
        <pt x="8" y="-109" on="0"/>
        <pt x="38" y="-25" on="0"/>
        <pt x="56" y="56" on="0"/>
        <pt x="63" y="140" on="0"/>
        <pt x="63" y="192" on="1"/>
        <pt x="63" y="740" on="1"/>
        <pt x="203" y="740" on="1"/>
        <pt x="203" y="180" on="1"/>
        <pt x="203" y="130" on="0"/>
        <pt x="189" y="38" on="0"/>
        <pt x="158" y="-53" on="0"/>
        <pt x="109" y="-148" on="0"/>
        <pt x="73" y="-201" on="1"/>
      </contour>
    </TTGlyph>
    <TTGlyph name="J.sc" xMin="-8" yMin="-162" xMax="193" yMax="577">
      <contour>
        <pt x="-8" y="-125" on="1"/>
        <pt x="12" y="-86" on="0"/>
        <pt x="38" y="-20" on="0"/>
        <pt x="54" y="44" on="0"/>
        <pt x="60" y="111" on="0"/>
        <pt x="60" y="152" on="1"/>
        <pt x="60" y="577" on="1"/>
        <pt x="193" y="577" on="1"/>
        <pt x="193" y="141" on="1"/>
        <pt x="193" y="100" on="0"/>
        <pt x="181" y="28" on="0"/>
        <pt x="153" y="-44" on="0"/>
        <pt x="108" y="-119" on="0"/>
        <pt x="76" y="-162" on="1"/>
      </contour>
    </TTGlyph>
    <TTGlyph name="Jcircumflex" xMin="-20" yMin="-201" xMax="288" yMax="964">
      <contour>
        <pt x="-15" y="-160" on="1"/>
        <pt x="8" y="-109" on="0"/>
        <pt x="38" y="-25" on="0"/>
        <pt x="56" y="56" on="0"/>
        <pt x="63" y="140" on="0"/>
        <pt x="63" y="192" on="1"/>
        <pt x="63" y="740" on="1"/>
        <pt x="203" y="740" on="1"/>
        <pt x="203" y="180" on="1"/>
        <pt x="203" y="130" on="0"/>
        <pt x="189" y="38" on="0"/>
        <pt x="158" y="-53" on="0"/>
        <pt x="109" y="-148" on="0"/>
        <pt x="73" y="-201" on="1"/>
      </contour>
      <contour>
        <pt x="-20" y="893" on="1"/>
        <pt x="135" y="964" on="1"/>
        <pt x="288" y="893" on="1"/>
        <pt x="288" y="797" on="1"/>
        <pt x="134" y="869" on="1"/>
        <pt x="-20" y="797" on="1"/>
      </contour>
    </TTGlyph>
    <TTGlyph name="Jcircumflex.sc" xMin="-13" yMin="-162" xMax="269" yMax="760">
      <contour>
        <pt x="-8" y="-125" on="1"/>
        <pt x="12" y="-86" on="0"/>
        <pt x="38" y="-20" on="0"/>
        <pt x="54" y="44" on="0"/>
        <pt x="60" y="111" on="0"/>
        <pt x="60" y="152" on="1"/>
        <pt x="60" y="577" on="1"/>
        <pt x="193" y="577" on="1"/>
        <pt x="193" y="141" on="1"/>
        <pt x="193" y="100" on="0"/>
        <pt x="181" y="28" on="0"/>
        <pt x="153" y="-44" on="0"/>
        <pt x="108" y="-119" on="0"/>
        <pt x="76" y="-162" on="1"/>
      </contour>
      <contour>
        <pt x="-13" y="704" on="1"/>
        <pt x="129" y="760" on="1"/>
        <pt x="269" y="704" on="1"/>
        <pt x="269" y="618" on="1"/>
        <pt x="128" y="674" on="1"/>
        <pt x="-13" y="618" on="1"/>
      </contour>
    </TTGlyph>
    <TTGlyph name="K" xMin="61" yMin="0" xMax="610" yMax="740">
      <contour>
        <pt x="61" y="740" on="1"/>
        <pt x="201" y="740" on="1"/>
        <pt x="201" y="437" on="1"/>
        <pt x="277" y="437" on="1"/>
        <pt x="434" y="740" on="1"/>
        <pt x="590" y="740" on="1"/>
        <pt x="413" y="407" on="1"/>
        <pt x="364" y="380" on="1"/>
        <pt x="364" y="374" on="1"/>
        <pt x="414" y="348" on="1"/>
        <pt x="610" y="0" on="1"/>
        <pt x="454" y="0" on="1"/>
        <pt x="273" y="318" on="1"/>
        <pt x="201" y="318" on="1"/>
        <pt x="201" y="0" on="1"/>
        <pt x="61" y="0" on="1"/>
      </contour>
    </TTGlyph>
    <TTGlyph name="K.sc" xMin="58" yMin="0" xMax="557" yMax="577">
      <contour>
        <pt x="58" y="577" on="1"/>
        <pt x="190" y="577" on="1"/>
        <pt x="190" y="350" on="1"/>
        <pt x="259" y="350" on="1"/>
        <pt x="392" y="577" on="1"/>
        <pt x="539" y="577" on="1"/>
        <pt x="386" y="319" on="1"/>
        <pt x="334" y="297" on="1"/>
        <pt x="334" y="291" on="1"/>
        <pt x="387" y="270" on="1"/>
        <pt x="557" y="0" on="1"/>
        <pt x="410" y="0" on="1"/>
        <pt x="256" y="239" on="1"/>
        <pt x="190" y="239" on="1"/>
        <pt x="190" y="0" on="1"/>
        <pt x="58" y="0" on="1"/>
      </contour>
    </TTGlyph>
    <TTGlyph name="Kcommaaccent" xMin="61" yMin="-220" xMax="610" yMax="740">
      <contour>
        <pt x="246" y="-69" on="1"/>
        <pt x="386" y="-69" on="1"/>
        <pt x="306" y="-220" on="1"/>
        <pt x="202" y="-220" on="1"/>
      </contour>
      <contour>
        <pt x="61" y="740" on="1"/>
        <pt x="201" y="740" on="1"/>
        <pt x="201" y="437" on="1"/>
        <pt x="277" y="437" on="1"/>
        <pt x="434" y="740" on="1"/>
        <pt x="590" y="740" on="1"/>
        <pt x="413" y="407" on="1"/>
        <pt x="364" y="380" on="1"/>
        <pt x="364" y="374" on="1"/>
        <pt x="414" y="348" on="1"/>
        <pt x="610" y="0" on="1"/>
        <pt x="454" y="0" on="1"/>
        <pt x="273" y="318" on="1"/>
        <pt x="201" y="318" on="1"/>
        <pt x="201" y="0" on="1"/>
        <pt x="61" y="0" on="1"/>
      </contour>
    </TTGlyph>
    <TTGlyph name="Kcommaaccent.sc" xMin="58" yMin="-172" xMax="557" yMax="577">
      <contour>
        <pt x="58" y="577" on="1"/>
        <pt x="190" y="577" on="1"/>
        <pt x="190" y="350" on="1"/>
        <pt x="259" y="350" on="1"/>
        <pt x="392" y="577" on="1"/>
        <pt x="539" y="577" on="1"/>
        <pt x="386" y="319" on="1"/>
        <pt x="334" y="297" on="1"/>
        <pt x="334" y="291" on="1"/>
        <pt x="387" y="270" on="1"/>
        <pt x="557" y="0" on="1"/>
        <pt x="410" y="0" on="1"/>
        <pt x="256" y="239" on="1"/>
        <pt x="190" y="239" on="1"/>
        <pt x="190" y="0" on="1"/>
        <pt x="58" y="0" on="1"/>
      </contour>
      <contour>
        <pt x="222" y="-54" on="1"/>
        <pt x="355" y="-54" on="1"/>
        <pt x="282" y="-172" on="1"/>
        <pt x="184" y="-172" on="1"/>
      </contour>
    </TTGlyph>
    <TTGlyph name="L" xMin="61" yMin="0" xMax="436" yMax="740">
      <contour>
        <pt x="61" y="740" on="1"/>
        <pt x="201" y="740" on="1"/>
        <pt x="201" y="118" on="1"/>
        <pt x="436" y="118" on="1"/>
        <pt x="436" y="0" on="1"/>
        <pt x="61" y="0" on="1"/>
      </contour>
    </TTGlyph>
    <TTGlyph name="L.sc" xMin="58" yMin="0" xMax="402" yMax="577">
      <contour>
        <pt x="58" y="577" on="1"/>
        <pt x="190" y="577" on="1"/>
        <pt x="190" y="110" on="1"/>
        <pt x="402" y="110" on="1"/>
        <pt x="402" y="0" on="1"/>
        <pt x="58" y="0" on="1"/>
      </contour>
    </TTGlyph>
    <TTGlyph name="Lacute" xMin="61" yMin="0" xMax="436" yMax="961">
      <contour>
        <pt x="83" y="796" on="1"/>
        <pt x="152" y="961" on="1"/>
        <pt x="293" y="961" on="1"/>
        <pt x="183" y="788" on="1"/>
      </contour>
      <contour>
        <pt x="61" y="740" on="1"/>
        <pt x="201" y="740" on="1"/>
        <pt x="201" y="118" on="1"/>
        <pt x="436" y="118" on="1"/>
        <pt x="436" y="0" on="1"/>
        <pt x="61" y="0" on="1"/>
      </contour>
    </TTGlyph>
    <TTGlyph name="Lacute.sc" xMin="58" yMin="0" xMax="402" yMax="762">
      <contour>
        <pt x="58" y="577" on="1"/>
        <pt x="190" y="577" on="1"/>
        <pt x="190" y="110" on="1"/>
        <pt x="402" y="110" on="1"/>
        <pt x="402" y="0" on="1"/>
        <pt x="58" y="0" on="1"/>
      </contour>
      <contour>
        <pt x="78" y="623" on="1"/>
        <pt x="139" y="762" on="1"/>
        <pt x="272" y="762" on="1"/>
        <pt x="172" y="617" on="1"/>
      </contour>
    </TTGlyph>
    <TTGlyph name="Lcaron" xMin="61" yMin="0" xMax="474" yMax="785">
      <contour>
        <pt x="365" y="785" on="1"/>
        <pt x="474" y="785" on="1"/>
        <pt x="437" y="557" on="1"/>
        <pt x="365" y="557" on="1"/>
      </contour>
      <contour>
        <pt x="61" y="740" on="1"/>
        <pt x="201" y="740" on="1"/>
        <pt x="201" y="118" on="1"/>
        <pt x="436" y="118" on="1"/>
        <pt x="436" y="0" on="1"/>
        <pt x="61" y="0" on="1"/>
      </contour>
    </TTGlyph>
    <TTGlyph name="Lcaron.sc" xMin="59" yMin="0" xMax="437" yMax="621">
      <contour>
        <pt x="59" y="577" on="1"/>
        <pt x="191" y="577" on="1"/>
        <pt x="191" y="110" on="1"/>
        <pt x="403" y="110" on="1"/>
        <pt x="403" y="0" on="1"/>
        <pt x="59" y="0" on="1"/>
      </contour>
      <contour>
        <pt x="334" y="621" on="1"/>
        <pt x="437" y="621" on="1"/>
        <pt x="402" y="444" on="1"/>
        <pt x="334" y="444" on="1"/>
      </contour>
    </TTGlyph>
    <TTGlyph name="Lcommaaccent" xMin="61" yMin="-220" xMax="436" yMax="740">
      <contour>
        <pt x="187" y="-69" on="1"/>
        <pt x="327" y="-69" on="1"/>
        <pt x="247" y="-220" on="1"/>
        <pt x="143" y="-220" on="1"/>
      </contour>
      <contour>
        <pt x="61" y="740" on="1"/>
        <pt x="201" y="740" on="1"/>
        <pt x="201" y="118" on="1"/>
        <pt x="436" y="118" on="1"/>
        <pt x="436" y="0" on="1"/>
        <pt x="61" y="0" on="1"/>
      </contour>
    </TTGlyph>
    <TTGlyph name="Lcommaaccent.sc" xMin="58" yMin="-172" xMax="402" yMax="577">
      <contour>
        <pt x="58" y="577" on="1"/>
        <pt x="190" y="577" on="1"/>
        <pt x="190" y="110" on="1"/>
        <pt x="402" y="110" on="1"/>
        <pt x="402" y="0" on="1"/>
        <pt x="58" y="0" on="1"/>
      </contour>
      <contour>
        <pt x="170" y="-54" on="1"/>
        <pt x="301" y="-54" on="1"/>
        <pt x="230" y="-172" on="1"/>
        <pt x="131" y="-172" on="1"/>
      </contour>
    </TTGlyph>
    <TTGlyph name="Ldot" xMin="61" yMin="0" xMax="438" yMax="740">
      <contour>
        <pt x="61" y="740" on="1"/>
        <pt x="201" y="740" on="1"/>
        <pt x="201" y="118" on="1"/>
        <pt x="436" y="118" on="1"/>
        <pt x="436" y="0" on="1"/>
        <pt x="61" y="0" on="1"/>
      </contour>
      <contour>
        <pt x="360" y="294" on="1"/>
        <pt x="319" y="294" on="0"/>
        <pt x="283" y="330" on="0"/>
        <pt x="283" y="370" on="1"/>
        <pt x="283" y="410" on="0"/>
        <pt x="319" y="446" on="0"/>
        <pt x="360" y="446" on="1"/>
        <pt x="399" y="446" on="0"/>
        <pt x="438" y="410" on="0"/>
        <pt x="438" y="370" on="1"/>
        <pt x="438" y="330" on="0"/>
        <pt x="399" y="294" on="0"/>
      </contour>
    </TTGlyph>
    <TTGlyph name="Ldot.sc" xMin="58" yMin="0" xMax="408" yMax="577">
      <contour>
        <pt x="58" y="577" on="1"/>
        <pt x="190" y="577" on="1"/>
        <pt x="190" y="110" on="1"/>
        <pt x="402" y="110" on="1"/>
        <pt x="402" y="0" on="1"/>
        <pt x="58" y="0" on="1"/>
      </contour>
      <contour>
        <pt x="335" y="220" on="1"/>
        <pt x="297" y="220" on="0"/>
        <pt x="263" y="254" on="0"/>
        <pt x="263" y="291" on="1"/>
        <pt x="263" y="326" on="0"/>
        <pt x="297" y="359" on="0"/>
        <pt x="335" y="359" on="1"/>
        <pt x="373" y="359" on="0"/>
        <pt x="408" y="327" on="0"/>
        <pt x="408" y="291" on="1"/>
        <pt x="408" y="253" on="0"/>
        <pt x="373" y="220" on="0"/>
      </contour>
    </TTGlyph>
    <TTGlyph name="Lslash" xMin="8" yMin="0" xMax="454" yMax="740">
      <contour>
        <pt x="8" y="330" on="1"/>
        <pt x="79" y="376" on="1"/>
        <pt x="79" y="740" on="1"/>
        <pt x="219" y="740" on="1"/>
        <pt x="219" y="467" on="1"/>
        <pt x="320" y="533" on="1"/>
        <pt x="320" y="426" on="1"/>
        <pt x="219" y="360" on="1"/>
        <pt x="219" y="118" on="1"/>
        <pt x="454" y="118" on="1"/>
        <pt x="454" y="0" on="1"/>
        <pt x="79" y="0" on="1"/>
        <pt x="79" y="270" on="1"/>
        <pt x="8" y="224" on="1"/>
      </contour>
    </TTGlyph>
    <TTGlyph name="Lslash.sc" xMin="13" yMin="0" xMax="419" yMax="577">
      <contour>
        <pt x="13" y="272" on="1"/>
        <pt x="75" y="310" on="1"/>
        <pt x="75" y="577" on="1"/>
        <pt x="207" y="577" on="1"/>
        <pt x="207" y="373" on="1"/>
        <pt x="298" y="425" on="1"/>
        <pt x="298" y="329" on="1"/>
        <pt x="207" y="277" on="1"/>
        <pt x="207" y="110" on="1"/>
        <pt x="419" y="110" on="1"/>
        <pt x="419" y="0" on="1"/>
        <pt x="75" y="0" on="1"/>
        <pt x="75" y="213" on="1"/>
        <pt x="13" y="176" on="1"/>
      </contour>
    </TTGlyph>
    <TTGlyph name="M" xMin="61" yMin="0" xMax="792" yMax="740">
      <contour>
        <pt x="61" y="740" on="1"/>
        <pt x="260" y="740" on="1"/>
        <pt x="397" y="330" on="1"/>
        <pt x="422" y="213" on="1"/>
        <pt x="429" y="213" on="1"/>
        <pt x="455" y="330" on="1"/>
        <pt x="592" y="740" on="1"/>
        <pt x="792" y="740" on="1"/>
        <pt x="792" y="0" on="1"/>
        <pt x="660" y="0" on="1"/>
        <pt x="660" y="559" on="1"/>
        <pt x="654" y="559" on="1"/>
        <pt x="621" y="440" on="1"/>
        <pt x="485" y="37" on="1"/>
        <pt x="364" y="37" on="1"/>
        <pt x="229" y="440" on="1"/>
        <pt x="195" y="559" on="1"/>
        <pt x="190" y="559" on="1"/>
        <pt x="190" y="0" on="1"/>
        <pt x="61" y="0" on="1"/>
      </contour>
    </TTGlyph>
    <TTGlyph name="M.sc" xMin="58" yMin="0" xMax="720" yMax="577">
      <contour>
        <pt x="58" y="577" on="1"/>
        <pt x="245" y="577" on="1"/>
        <pt x="364" y="268" on="1"/>
        <pt x="385" y="191" on="1"/>
        <pt x="392" y="191" on="1"/>
        <pt x="414" y="268" on="1"/>
        <pt x="533" y="577" on="1"/>
        <pt x="720" y="577" on="1"/>
        <pt x="720" y="0" on="1"/>
        <pt x="598" y="0" on="1"/>
        <pt x="598" y="420" on="1"/>
        <pt x="590" y="420" on="1"/>
        <pt x="554" y="313" on="1"/>
        <pt x="445" y="30" on="1"/>
        <pt x="332" y="30" on="1"/>
        <pt x="224" y="313" on="1"/>
        <pt x="187" y="420" on="1"/>
        <pt x="181" y="420" on="1"/>
        <pt x="181" y="0" on="1"/>
        <pt x="58" y="0" on="1"/>
      </contour>
    </TTGlyph>
    <TTGlyph name="N" xMin="61" yMin="0" xMax="612" yMax="740">
      <contour>
        <pt x="61" y="740" on="1"/>
        <pt x="180" y="740" on="1"/>
        <pt x="439" y="326" on="1"/>
        <pt x="479" y="246" on="1"/>
        <pt x="487" y="246" on="1"/>
        <pt x="487" y="740" on="1"/>
        <pt x="612" y="740" on="1"/>
        <pt x="612" y="0" on="1"/>
        <pt x="493" y="0" on="1"/>
        <pt x="233" y="415" on="1"/>
        <pt x="194" y="496" on="1"/>
        <pt x="185" y="496" on="1"/>
        <pt x="185" y="0" on="1"/>
        <pt x="61" y="0" on="1"/>
      </contour>
    </TTGlyph>
    <TTGlyph name="N.sc" xMin="58" yMin="0" xMax="557" yMax="577">
      <contour>
        <pt x="58" y="577" on="1"/>
        <pt x="168" y="577" on="1"/>
        <pt x="389" y="277" on="1"/>
        <pt x="431" y="213" on="1"/>
        <pt x="439" y="214" on="1"/>
        <pt x="439" y="577" on="1"/>
        <pt x="557" y="577" on="1"/>
        <pt x="557" y="0" on="1"/>
        <pt x="448" y="0" on="1"/>
        <pt x="226" y="302" on="1"/>
        <pt x="184" y="365" on="1"/>
        <pt x="176" y="366" on="1"/>
        <pt x="176" y="0" on="1"/>
        <pt x="58" y="0" on="1"/>
      </contour>
    </TTGlyph>
    <TTGlyph name="Nacute" xMin="61" yMin="0" xMax="612" yMax="961">
      <contour>
        <pt x="274" y="796" on="1"/>
        <pt x="343" y="961" on="1"/>
        <pt x="484" y="961" on="1"/>
        <pt x="374" y="788" on="1"/>
      </contour>
      <contour>
        <pt x="61" y="740" on="1"/>
        <pt x="180" y="740" on="1"/>
        <pt x="439" y="326" on="1"/>
        <pt x="479" y="246" on="1"/>
        <pt x="487" y="246" on="1"/>
        <pt x="487" y="740" on="1"/>
        <pt x="612" y="740" on="1"/>
        <pt x="612" y="0" on="1"/>
        <pt x="493" y="0" on="1"/>
        <pt x="233" y="415" on="1"/>
        <pt x="194" y="496" on="1"/>
        <pt x="185" y="496" on="1"/>
        <pt x="185" y="0" on="1"/>
        <pt x="61" y="0" on="1"/>
      </contour>
    </TTGlyph>
    <TTGlyph name="Nacute.sc" xMin="58" yMin="0" xMax="557" yMax="762">
      <contour>
        <pt x="58" y="577" on="1"/>
        <pt x="168" y="577" on="1"/>
        <pt x="389" y="277" on="1"/>
        <pt x="431" y="213" on="1"/>
        <pt x="439" y="214" on="1"/>
        <pt x="439" y="577" on="1"/>
        <pt x="557" y="577" on="1"/>
        <pt x="557" y="0" on="1"/>
        <pt x="448" y="0" on="1"/>
        <pt x="226" y="302" on="1"/>
        <pt x="184" y="365" on="1"/>
        <pt x="176" y="366" on="1"/>
        <pt x="176" y="0" on="1"/>
        <pt x="58" y="0" on="1"/>
      </contour>
      <contour>
        <pt x="249" y="623" on="1"/>
        <pt x="309" y="762" on="1"/>
        <pt x="441" y="762" on="1"/>
        <pt x="342" y="617" on="1"/>
      </contour>
    </TTGlyph>
    <TTGlyph name="Ncaron" xMin="61" yMin="0" xMax="612" yMax="958">
      <contour>
        <pt x="185" y="958" on="1"/>
        <pt x="339" y="886" on="1"/>
        <pt x="493" y="958" on="1"/>
        <pt x="493" y="862" on="1"/>
        <pt x="339" y="790" on="1"/>
        <pt x="185" y="862" on="1"/>
      </contour>
      <contour>
        <pt x="61" y="740" on="1"/>
        <pt x="180" y="740" on="1"/>
        <pt x="439" y="326" on="1"/>
        <pt x="479" y="246" on="1"/>
        <pt x="487" y="246" on="1"/>
        <pt x="487" y="740" on="1"/>
        <pt x="612" y="740" on="1"/>
        <pt x="612" y="0" on="1"/>
        <pt x="493" y="0" on="1"/>
        <pt x="233" y="415" on="1"/>
        <pt x="194" y="496" on="1"/>
        <pt x="185" y="496" on="1"/>
        <pt x="185" y="0" on="1"/>
        <pt x="61" y="0" on="1"/>
      </contour>
    </TTGlyph>
    <TTGlyph name="Ncaron.sc" xMin="58" yMin="0" xMax="557" yMax="758">
      <contour>
        <pt x="58" y="577" on="1"/>
        <pt x="168" y="577" on="1"/>
        <pt x="389" y="277" on="1"/>
        <pt x="431" y="213" on="1"/>
        <pt x="439" y="214" on="1"/>
        <pt x="439" y="577" on="1"/>
        <pt x="557" y="577" on="1"/>
        <pt x="557" y="0" on="1"/>
        <pt x="448" y="0" on="1"/>
        <pt x="226" y="302" on="1"/>
        <pt x="184" y="365" on="1"/>
        <pt x="176" y="366" on="1"/>
        <pt x="176" y="0" on="1"/>
        <pt x="58" y="0" on="1"/>
      </contour>
      <contour>
        <pt x="168" y="671" on="1"/>
        <pt x="168" y="758" on="1"/>
        <pt x="309" y="702" on="1"/>
        <pt x="450" y="758" on="1"/>
        <pt x="450" y="671" on="1"/>
        <pt x="310" y="615" on="1"/>
      </contour>
    </TTGlyph>
    <TTGlyph name="Ncommaaccent" xMin="61" yMin="-220" xMax="612" yMax="740">
      <contour>
        <pt x="284" y="-69" on="1"/>
        <pt x="424" y="-69" on="1"/>
        <pt x="344" y="-220" on="1"/>
        <pt x="240" y="-220" on="1"/>
      </contour>
      <contour>
        <pt x="61" y="740" on="1"/>
        <pt x="180" y="740" on="1"/>
        <pt x="439" y="326" on="1"/>
        <pt x="479" y="246" on="1"/>
        <pt x="487" y="246" on="1"/>
        <pt x="487" y="740" on="1"/>
        <pt x="612" y="740" on="1"/>
        <pt x="612" y="0" on="1"/>
        <pt x="493" y="0" on="1"/>
        <pt x="233" y="415" on="1"/>
        <pt x="194" y="496" on="1"/>
        <pt x="185" y="496" on="1"/>
        <pt x="185" y="0" on="1"/>
        <pt x="61" y="0" on="1"/>
      </contour>
    </TTGlyph>
    <TTGlyph name="Ncommaaccent.sc" xMin="58" yMin="-172" xMax="557" yMax="577">
      <contour>
        <pt x="58" y="577" on="1"/>
        <pt x="168" y="577" on="1"/>
        <pt x="389" y="277" on="1"/>
        <pt x="431" y="213" on="1"/>
        <pt x="439" y="214" on="1"/>
        <pt x="439" y="577" on="1"/>
        <pt x="557" y="577" on="1"/>
        <pt x="557" y="0" on="1"/>
        <pt x="448" y="0" on="1"/>
        <pt x="226" y="302" on="1"/>
        <pt x="184" y="365" on="1"/>
        <pt x="176" y="366" on="1"/>
        <pt x="176" y="0" on="1"/>
        <pt x="58" y="0" on="1"/>
      </contour>
      <contour>
        <pt x="255" y="-54" on="1"/>
        <pt x="387" y="-54" on="1"/>
        <pt x="315" y="-172" on="1"/>
        <pt x="217" y="-172" on="1"/>
      </contour>
    </TTGlyph>
    <TTGlyph name="Ndotaccent" xMin="61" yMin="0" xMax="612" yMax="950">
      <contour>
        <pt x="330" y="798" on="1"/>
        <pt x="290" y="798" on="0"/>
        <pt x="253" y="834" on="0"/>
        <pt x="253" y="874" on="1"/>
        <pt x="253" y="915" on="0"/>
        <pt x="290" y="950" on="0"/>
        <pt x="330" y="950" on="1"/>
        <pt x="370" y="950" on="0"/>
        <pt x="409" y="914" on="0"/>
        <pt x="409" y="874" on="1"/>
        <pt x="409" y="834" on="0"/>
        <pt x="370" y="798" on="0"/>
      </contour>
      <contour>
        <pt x="61" y="740" on="1"/>
        <pt x="180" y="740" on="1"/>
        <pt x="439" y="326" on="1"/>
        <pt x="479" y="246" on="1"/>
        <pt x="487" y="246" on="1"/>
        <pt x="487" y="740" on="1"/>
        <pt x="612" y="740" on="1"/>
        <pt x="612" y="0" on="1"/>
        <pt x="493" y="0" on="1"/>
        <pt x="233" y="415" on="1"/>
        <pt x="194" y="496" on="1"/>
        <pt x="185" y="496" on="1"/>
        <pt x="185" y="0" on="1"/>
        <pt x="61" y="0" on="1"/>
      </contour>
    </TTGlyph>
    <TTGlyph name="Ndotaccent.sc" xMin="58" yMin="0" xMax="557" yMax="761">
      <contour>
        <pt x="58" y="577" on="1"/>
        <pt x="168" y="577" on="1"/>
        <pt x="389" y="277" on="1"/>
        <pt x="431" y="213" on="1"/>
        <pt x="439" y="214" on="1"/>
        <pt x="439" y="577" on="1"/>
        <pt x="557" y="577" on="1"/>
        <pt x="557" y="0" on="1"/>
        <pt x="448" y="0" on="1"/>
        <pt x="226" y="302" on="1"/>
        <pt x="184" y="365" on="1"/>
        <pt x="176" y="366" on="1"/>
        <pt x="176" y="0" on="1"/>
        <pt x="58" y="0" on="1"/>
      </contour>
      <contour>
        <pt x="302" y="622" on="1"/>
        <pt x="264" y="622" on="0"/>
        <pt x="230" y="655" on="0"/>
        <pt x="230" y="693" on="1"/>
        <pt x="230" y="729" on="0"/>
        <pt x="264" y="761" on="0"/>
        <pt x="302" y="761" on="1"/>
        <pt x="340" y="761" on="0"/>
        <pt x="375" y="729" on="0"/>
        <pt x="375" y="693" on="1"/>
        <pt x="375" y="655" on="0"/>
        <pt x="340" y="622" on="0"/>
      </contour>
    </TTGlyph>
    <TTGlyph name="Ntilde" xMin="61" yMin="0" xMax="612" yMax="943">
      <contour>
        <pt x="158" y="839" on="1"/>
        <pt x="184" y="889" on="0"/>
        <pt x="251" y="943" on="0"/>
        <pt x="284" y="943" on="1"/>
        <pt x="303" y="943" on="0"/>
        <pt x="340" y="930" on="0"/>
        <pt x="375" y="915" on="0"/>
        <pt x="410" y="903" on="0"/>
        <pt x="428" y="903" on="1"/>
        <pt x="446" y="903" on="0"/>
        <pt x="480" y="921" on="0"/>
        <pt x="498" y="942" on="1"/>
        <pt x="522" y="921" on="1"/>
        <pt x="498" y="868" on="0"/>
        <pt x="431" y="815" on="0"/>
        <pt x="397" y="815" on="1"/>
        <pt x="378" y="815" on="0"/>
        <pt x="342" y="827" on="0"/>
        <pt x="307" y="842" on="0"/>
        <pt x="272" y="854" on="0"/>
        <pt x="254" y="854" on="1"/>
        <pt x="216" y="854" on="0"/>
        <pt x="180" y="817" on="1"/>
      </contour>
      <contour>
        <pt x="61" y="740" on="1"/>
        <pt x="180" y="740" on="1"/>
        <pt x="439" y="326" on="1"/>
        <pt x="479" y="246" on="1"/>
        <pt x="487" y="246" on="1"/>
        <pt x="487" y="740" on="1"/>
        <pt x="612" y="740" on="1"/>
        <pt x="612" y="0" on="1"/>
        <pt x="493" y="0" on="1"/>
        <pt x="233" y="415" on="1"/>
        <pt x="194" y="496" on="1"/>
        <pt x="185" y="496" on="1"/>
        <pt x="185" y="0" on="1"/>
        <pt x="61" y="0" on="1"/>
      </contour>
    </TTGlyph>
    <TTGlyph name="Ntilde.sc" xMin="58" yMin="0" xMax="557" yMax="746">
      <contour>
        <pt x="144" y="653" on="1"/>
        <pt x="167" y="699" on="0"/>
        <pt x="230" y="746" on="0"/>
        <pt x="261" y="746" on="1"/>
        <pt x="278" y="746" on="0"/>
        <pt x="311" y="737" on="0"/>
        <pt x="343" y="725" on="0"/>
        <pt x="376" y="716" on="0"/>
        <pt x="393" y="716" on="1"/>
        <pt x="409" y="716" on="0"/>
        <pt x="439" y="729" on="0"/>
        <pt x="456" y="746" on="1"/>
        <pt x="478" y="729" on="1"/>
        <pt x="455" y="681" on="0"/>
        <pt x="393" y="635" on="0"/>
        <pt x="362" y="635" on="1"/>
        <pt x="345" y="635" on="0"/>
        <pt x="312" y="644" on="0"/>
        <pt x="279" y="656" on="0"/>
        <pt x="247" y="665" on="0"/>
        <pt x="230" y="665" on="1"/>
        <pt x="213" y="665" on="0"/>
        <pt x="181" y="653" on="0"/>
        <pt x="164" y="636" on="1"/>
      </contour>
      <contour>
        <pt x="58" y="577" on="1"/>
        <pt x="168" y="577" on="1"/>
        <pt x="389" y="277" on="1"/>
        <pt x="431" y="213" on="1"/>
        <pt x="439" y="214" on="1"/>
        <pt x="439" y="577" on="1"/>
        <pt x="557" y="577" on="1"/>
        <pt x="557" y="0" on="1"/>
        <pt x="448" y="0" on="1"/>
        <pt x="226" y="302" on="1"/>
        <pt x="184" y="365" on="1"/>
        <pt x="176" y="366" on="1"/>
        <pt x="176" y="0" on="1"/>
        <pt x="58" y="0" on="1"/>
      </contour>
    </TTGlyph>
    <TTGlyph name="O" xMin="34" yMin="-10" xMax="620" yMax="750">
      <contour>
        <pt x="326" y="-10" on="1"/>
        <pt x="178" y="-10" on="0"/>
        <pt x="34" y="177" on="0"/>
        <pt x="34" y="369" on="1"/>
        <pt x="34" y="562" on="0"/>
        <pt x="178" y="750" on="0"/>
        <pt x="326" y="750" on="1"/>
        <pt x="475" y="750" on="0"/>
        <pt x="620" y="562" on="0"/>
        <pt x="620" y="369" on="1"/>
        <pt x="620" y="176" on="0"/>
        <pt x="476" y="-10" on="0"/>
      </contour>
      <contour>
        <pt x="326" y="107" on="1"/>
        <pt x="367" y="107" on="0"/>
        <pt x="424" y="135" on="0"/>
        <pt x="460" y="198" on="0"/>
        <pt x="476" y="297" on="0"/>
        <pt x="476" y="369" on="1"/>
        <pt x="476" y="441" on="0"/>
        <pt x="460" y="542" on="0"/>
        <pt x="424" y="605" on="0"/>
        <pt x="367" y="634" on="0"/>
        <pt x="326" y="634" on="1"/>
        <pt x="286" y="634" on="0"/>
        <pt x="229" y="605" on="0"/>
        <pt x="193" y="542" on="0"/>
        <pt x="177" y="441" on="0"/>
        <pt x="177" y="369" on="1"/>
        <pt x="177" y="298" on="0"/>
        <pt x="193" y="198" on="0"/>
        <pt x="229" y="135" on="0"/>
        <pt x="285" y="107" on="0"/>
      </contour>
    </TTGlyph>
</ttFont>
